<svg id="call-answer" xmlns="http://www.w3.org/2000/svg" viewBox="0 0 20 20">
  <defs>
    <style>
      .cls-1 {
        fill: #8630dd;
      }
    </style>
  </defs>
  <g id="Group_1037" data-name="Group 1037" transform="translate(0 0)">
    <g id="Group_1036" data-name="Group 1036">
      <path id="Path_768" data-name="Path 768" class="cls-1" d="M19.551,16.213l-3.089-3.1a1.608,1.608,0,0,0-2.271.043l-1.556,1.559-.307-.171a15.486,15.486,0,0,1-3.743-2.713A15.606,15.606,0,0,1,5.873,8.076c-.058-.1-.113-.205-.167-.3L6.75,6.73l.513-.515a1.615,1.615,0,0,0,.041-2.276L4.217.843A1.606,1.606,0,0,0,1.946.886l-.87.877.024.024A5.048,5.048,0,0,0,.382,3.055,5.267,5.267,0,0,0,.063,4.341C-.345,7.73,1.2,10.827,5.393,15.03c5.8,5.809,10.467,5.37,10.669,5.349a5.209,5.209,0,0,0,1.287-.324,5.014,5.014,0,0,0,1.261-.716l.019.017.882-.866A1.618,1.618,0,0,0,19.551,16.213Z" transform="translate(0 -0.394)"/>
    </g>
  </g>
</svg>
