<svg xmlns="http://www.w3.org/2000/svg" viewBox="0 0 20 20">
  <defs>
    <style>
      .cls-1 {
        fill: #8630dd;
      }
    </style>
  </defs>
  <g id="Clock" transform="translate(-580 -506)">
    <path id="Path_13" data-name="Path 13" class="cls-1" d="M3,3a9.078,9.078,0,0,1,7-3,9.078,9.078,0,0,1,7,3,9.078,9.078,0,0,1,3,7,9.078,9.078,0,0,1-3,7,9.078,9.078,0,0,1-7,3,9.078,9.078,0,0,1-7-3,9.98,9.98,0,0,1-3-7A9.078,9.078,0,0,1,3,3ZM14.5,14.5l1.167-1.167L11.5,9.167,10,2.5H8.333V10a1.513,1.513,0,0,0,.5,1.167.582.582,0,0,0,.333.167Z" transform="translate(580 506)"/>
  </g>
</svg>
