<svg xmlns="http://www.w3.org/2000/svg" xmlns:xlink="http://www.w3.org/1999/xlink" viewBox="0 0 129.871 133.11">
  <defs>
    <style>
      .cls-1 {
        fill: #f0f0f0;
      }

      .cls-2 {
        fill: #9d46f5;
      }

      .cls-3 {
        fill: #8630dd;
      }

      .cls-4 {
        clip-path: url(#clip-path);
      }
    </style>
    <clipPath id="clip-path">
      <rect id="Rectangle_1360" data-name="Rectangle 1360" width="129.871" height="133.111"/>
    </clipPath>
  </defs>
  <g id="Estimasi-01" transform="translate(-192.5 -83.2)">
    <path id="Path_649" data-name="Path 649" class="cls-1" d="M279.039,138.438c-15-14.416-21.348-12.958-20.279,11.6a63.931,63.931,0,0,1,20.279-11.6Zm0,0" transform="translate(-44.717 -31.104)"/>
    <path id="Path_650" data-name="Path 650" class="cls-2" d="M239.413,124.578c-1.069-24.555,5.28-26.013,20.279-11.6a69.338,69.338,0,0,1,9.492-2.592c-3.11-5.378-19.664-18.53-28.669-18.821-9.621-.745-12.926,25.527-8.779,40.98a55.632,55.632,0,0,1,7.678-7.969Zm0,0" transform="translate(-25.338 -5.646)"/>
    <path id="Path_651" data-name="Path 651" class="cls-2" d="M464.37,91.568c-9.006.292-25.56,13.411-28.669,18.821a69.333,69.333,0,0,1,9.492,2.592c15-14.416,21.348-12.958,20.279,11.6a56.163,56.163,0,0,1,7.71,8c4.114-15.485.81-41.757-8.811-41.012Zm0,0" transform="translate(-164.416 -5.646)"/>
    <path id="Path_652" data-name="Path 652" class="cls-1" d="M485.279,150.036c1.069-24.555-5.28-26.013-20.279-11.6a63.93,63.93,0,0,1,20.279,11.6Zm0,0" transform="translate(-184.224 -31.104)"/>
    <path id="Path_653" data-name="Path 653" class="cls-2" d="M306.937,161.117a63.231,63.231,0,0,0-20.279-11.6,69.337,69.337,0,0,0-9.492-2.592,71.687,71.687,0,0,0-27.471,0,69.336,69.336,0,0,0-9.492,2.592,63.93,63.93,0,0,0-20.279,11.6,56.162,56.162,0,0,0-7.71,8,49.666,49.666,0,0,0-11.014,30.9c0,22.482,15.582,41.789,37.8,50.082-4.341-3.078-6.965-7.613-6.965-14.157,0-6.22,2.365-13.282,6.349-19.437a41.719,41.719,0,0,1,5.183-6.479,32.949,32.949,0,0,1,10.366-7.289,7.948,7.948,0,0,1-.065-.875c0-4.6,4.276-5.961,9.524-5.961s9.524,1.361,9.524,5.961a7.933,7.933,0,0,1-.065.875,32.95,32.95,0,0,1,10.366,7.289,43.3,43.3,0,0,1,5.183,6.479c3.984,6.155,6.349,13.185,6.349,19.437,0,6.544-2.624,11.079-6.965,14.157,22.223-8.293,37.8-27.6,37.8-50.082a49.474,49.474,0,0,0-11.014-30.9,53.975,53.975,0,0,0-7.645-8Zm0,0" transform="translate(-5.882 -42.186)"/>
    <path id="Path_654" data-name="Path 654" class="cls-2" d="M382.948,306.961c0-4.6-4.276-5.961-9.524-5.961s-9.524,1.361-9.524,5.961a7.931,7.931,0,0,0,.065.875c.648,4.244,5.961,7.937,9.459,7.937s8.811-3.693,9.459-7.937c.032-.324.065-.615.065-.875Zm0,0" transform="translate(-115.875 -147.244)"/>
    <path id="Path_655" data-name="Path 655" class="cls-1" d="M337.318,322c-.648,4.244-5.961,7.937-9.459,7.937s-8.811-3.693-9.459-7.937a32.949,32.949,0,0,0-10.366,7.289,43.3,43.3,0,0,0-5.183,6.479c-3.985,6.155-6.349,13.185-6.349,19.437,0,6.544,2.624,11.079,6.965,14.157,5.734,4.049,14.545,5.507,24.393,5.507s18.627-1.458,24.393-5.507c4.341-3.078,6.965-7.613,6.965-14.157,0-6.22-2.365-13.282-6.349-19.437a41.717,41.717,0,0,0-5.183-6.479A32.949,32.949,0,0,0,337.318,322Zm0,0" transform="translate(-70.309 -161.441)"/>
    <path id="Path_656" data-name="Path 656" class="cls-3" d="M278.423,200.664l-.065.032a2.592,2.592,0,0,0,1.555,4.665,2.5,2.5,0,0,0,1.555-.518,2.585,2.585,0,0,0-3.045-4.179Zm0,0" transform="translate(-57.351 -79.076)"/>
    <g id="Group_839" data-name="Group 839" transform="translate(192.5 83.2)">
      <g id="Group_837" data-name="Group 837" class="cls-4" transform="translate(0 0)">
        <path id="Path_657" data-name="Path 657" class="cls-3" d="M319.815,170.716a2.582,2.582,0,0,0-3.013-2.106,61.264,61.264,0,0,0-18.724,6.511,2.606,2.606,0,0,0,1.231,4.892,2.416,2.416,0,0,0,1.231-.324,56.4,56.4,0,0,1,17.137-5.961,2.6,2.6,0,0,0,2.138-3.013Zm0,0" transform="translate(-262.962 -140.913)"/>
      </g>
      <g id="Group_838" data-name="Group 838" class="cls-4" transform="translate(0 0)">
        <path id="Path_658" data-name="Path 658" class="cls-3" d="M323.015,158.069a51.929,51.929,0,0,0-10.755-31.52c2.948-12.537,1.652-32.006-4.632-39.587-2.527-3.045-5.248-3.531-7.095-3.4-9.33.356-24.62,11.986-29.706,18.562a74.427,74.427,0,0,0-25.138,0c-5.086-6.576-20.376-18.206-29.706-18.562-1.879-.13-4.6.356-7.094,3.4-6.285,7.58-7.58,27.017-4.632,39.587a51.929,51.929,0,0,0-10.755,31.52c0,22.838,15.388,43.377,39.2,52.383a20.9,20.9,0,0,0,2.2,1.328c5.54,2.948,13.412,4.438,23.389,4.438s17.85-1.49,23.389-4.438c.777-.421,1.523-.875,2.2-1.328,23.778-9.006,39.133-29.544,39.133-52.383ZM300.727,88.744h.1c.356-.032,1.425-.1,2.786,1.523,4.244,5.086,6.058,19.6,4.309,31.2-1.134-1.2-2.332-2.332-3.6-3.466.454-13.152-1.3-19.664-5.8-21.7-4.179-1.879-9.524.583-17.752,8.261-1.393-.454-2.818-.875-4.276-1.231,5.507-5.669,17.688-14.351,24.231-14.578Zm-14.448,17.882c6.835-5.993,9.362-5.961,10.14-5.6.907.421,2.786,2.494,2.818,12.861a66.767,66.767,0,0,0-12.958-7.256ZM212.84,90.267c1.361-1.652,2.43-1.555,2.786-1.523h.1c6.511.227,18.724,8.909,24.167,14.61-1.425.356-2.851.777-4.276,1.231-8.2-7.678-13.573-10.172-17.752-8.261-4.5,2.041-6.252,8.552-5.8,21.7-1.263,1.1-2.462,2.268-3.6,3.466-1.685-11.63.13-26.11,4.373-31.229Zm4.373,23.648c.032-10.366,1.911-12.472,2.818-12.861.81-.356,3.337-.421,10.14,5.6a63.536,63.536,0,0,0-12.958,7.256Zm18.238,92.2a.985.985,0,0,0-.227-.162c-5.734-4.082-5.766-9.492-5.766-11.954,0-7.58,4.114-17.266,10.852-24.134h0a31.475,31.475,0,0,1,7.03-5.442,13.175,13.175,0,0,0,3.045,3.628,14.78,14.78,0,0,0,5.248,2.883v10.5a4.61,4.61,0,0,1-7.84-.518,2.6,2.6,0,1,0-4.535,2.527,9.909,9.909,0,0,0,8.617,5.118,9.8,9.8,0,0,0,6.349-2.365,9.772,9.772,0,0,0,14.966-2.754,2.6,2.6,0,1,0-4.535-2.527,4.61,4.61,0,0,1-7.84.518v-10.5a14.78,14.78,0,0,0,5.248-2.883,13.176,13.176,0,0,0,3.045-3.628,31.476,31.476,0,0,1,7.03,5.442h0c6.738,6.868,10.852,16.586,10.852,24.134,0,2.462,0,7.872-5.734,11.954-.1.065-.162.1-.259.162-4.114,2.818-11.047,4.924-22.774,4.924-11.695.032-18.659-2.106-22.774-4.924Zm22.774-39.975c-2.43,0-6.933-3.175-6.933-6.187,0-.939,0-3.369,6.933-3.369s6.932,2.462,6.932,3.369c0,3.013-4.5,6.187-6.932,6.187Zm32.751,35.246a22.35,22.35,0,0,0,1.2-7.386,34.041,34.041,0,0,0-1.749-10.3,18.032,18.032,0,0,1,9.978,1.587,2.541,2.541,0,0,0,1.069.227,2.6,2.6,0,0,0,1.1-4.956,22.985,22.985,0,0,0-14.092-1.814q-.729-1.6-1.652-3.207a32.633,32.633,0,0,1,20.765-2.689,2.586,2.586,0,0,0,.939-5.086,37.894,37.894,0,0,0-24.491,3.4c-.713-1-1.49-1.944-2.268-2.883a31.127,31.127,0,0,1,18.595-6.706,2.593,2.593,0,0,0-.194-5.183,36.239,36.239,0,0,0-22.029,8.131,35.184,35.184,0,0,0-7.807-5.41c-.259-3.207-2.332-7.807-12.083-7.807s-11.857,4.632-12.116,7.872a35.183,35.183,0,0,0-7.807,5.41,35.967,35.967,0,0,0-22.029-8.131,2.593,2.593,0,1,0-.194,5.183,31.2,31.2,0,0,1,18.595,6.706c-.777.907-1.555,1.879-2.268,2.883a37.688,37.688,0,0,0-24.491-3.4,2.583,2.583,0,1,0,.907,5.086A33.071,33.071,0,0,1,229.62,175.6q-.875,1.555-1.652,3.207a22.984,22.984,0,0,0-14.092,1.814,2.6,2.6,0,0,0,1.1,4.956,2.541,2.541,0,0,0,1.069-.227,17.749,17.749,0,0,1,9.978-1.587,34.039,34.039,0,0,0-1.749,10.3,21.543,21.543,0,0,0,1.2,7.386c-16.586-9.492-26.855-25.657-26.855-43.312,0-28.572,26.726-51.832,59.607-51.832s59.607,23.26,59.607,51.832c0,17.59-10.269,33.755-26.855,43.247Zm0,0" transform="translate(-193.176 -83.432)"/>
      </g>
    </g>
    <path id="Path_659" data-name="Path 659" class="cls-3" d="M423.211,245.5a11.286,11.286,0,0,0-9.816,5.831,2.6,2.6,0,1,0,4.535,2.527,5.979,5.979,0,0,1,10.561,0,2.625,2.625,0,0,0,2.268,1.328,2.533,2.533,0,0,0,1.263-.324,2.6,2.6,0,0,0,1-3.531,11.286,11.286,0,0,0-9.816-5.831Zm0,0" transform="translate(-149.108 -109.723)"/>
    <path id="Path_660" data-name="Path 660" class="cls-3" d="M321.011,245.5a11.285,11.285,0,0,0-9.816,5.831,2.575,2.575,0,0,0,1,3.531,2.533,2.533,0,0,0,1.263.324,2.626,2.626,0,0,0,2.268-1.328,5.979,5.979,0,0,1,10.561,0,2.6,2.6,0,1,0,4.535-2.527,11.286,11.286,0,0,0-9.816-5.831Zm0,0" transform="translate(-80.016 -109.723)"/>
  </g>
</svg>
