<?xml version="1.0" encoding="utf-8"?>
<!-- Generator: Adobe Illustrator 22.0.0, SVG Export Plug-In . SVG Version: 6.00 Build 0)  -->
<svg version="1.1" id="Layer_1" xmlns="http://www.w3.org/2000/svg" xmlns:xlink="http://www.w3.org/1999/xlink" x="0px" y="0px"
	 viewBox="0 0 47 49" style="enable-background:new 0 0 47 49;" xml:space="preserve">
<style type="text/css">
	.st0{fill:#25205C;}
	.st1{fill:none;stroke:#25205C;stroke-width:0.15;stroke-miterlimit:10;}
	.st2{fill-rule:evenodd;clip-rule:evenodd;fill:#25205C;}
</style>
<path class="st0" d="M28.7,17.5c-0.1-0.1-0.2-0.2-0.4-0.2l-0.1,0.1l-0.2,0.2l-0.3-0.2l0.2-0.2c0.3-0.5,0.7-1,1.4-0.5
	c0.4,0.3,0.3,0.7,0.1,1c-0.1,0.1-0.2,0.3-0.3,0.4L29,18.2L28.7,18l0.1-0.1l0.1-0.1C28.9,17.6,28.8,17.6,28.7,17.5L28.7,17.5z
	 M28.5,17c0.1,0.1,0.2,0.1,0.3,0.2c0.1,0.1,0.2,0.2,0.3,0.2c0.1-0.2,0.2-0.4,0-0.6C29,16.7,28.7,16.8,28.5,17L28.5,17z M26.8,16.8
	l0.5-0.9L27,15.7l0.2-0.3l1,0.5L28,16.2L27.6,16L27.1,17L26.8,16.8L26.8,16.8z M26.6,15.3l-0.4,1.3l-0.3-0.1l0.4-1.3L26.6,15.3
	L26.6,15.3z M24.7,16c0,0.1,0.1,0.1,0.1,0.1c0,0,0.1,0.1,0.2,0.1c0.1,0,0.1,0,0.2,0c0,0,0.1-0.1,0.1-0.1c0,0,0,0,0,0
	c0,0,0-0.1,0-0.1c0,0-0.1-0.1-0.1-0.1h-0.1c-0.1,0-0.3-0.1-0.4-0.2c-0.1-0.1-0.2-0.2-0.1-0.4c0-0.1,0.1-0.3,0.2-0.3
	c0.1-0.1,0.3-0.1,0.4-0.1c0.1,0,0.2,0.1,0.3,0.1c0.1,0.1,0.1,0.1,0.2,0.2l-0.3,0.1c0,0-0.1-0.1-0.1-0.1c0,0-0.1-0.1-0.1-0.1
	c-0.1,0-0.1,0-0.2,0c0,0-0.1,0-0.1,0.1c0,0,0,0.1,0,0.1c0.1,0,0.1,0.1,0.2,0.1h0.1c0.1,0,0.2,0.1,0.3,0.2c0.1,0.1,0.1,0.2,0.1,0.4
	c0,0,0,0,0,0.1c0,0.1-0.1,0.3-0.2,0.3c-0.1,0.1-0.3,0.1-0.4,0.1c-0.1,0-0.2,0-0.3-0.1c-0.1-0.1-0.2-0.1-0.2-0.2L24.7,16L24.7,16z
	 M23,15v0.4h0.5c0.1,0,0.1,0,0.2-0.1c0,0,0.1-0.1,0.1-0.1c0-0.1-0.1-0.1-0.2-0.2C23.3,15,23.2,15,23,15L23,15z M23.8,16.3
	c-0.1-0.1-0.2-0.3-0.3-0.4c0-0.1-0.1-0.1-0.2-0.2H23v0.5h-0.3v-1.4l0.1,0l0.2,0c0.2,0,0.4,0,0.6,0c0.2,0,0.4,0.2,0.4,0.4
	c0,0,0,0,0,0v0c0,0.1-0.1,0.3-0.2,0.4l-0.1,0.1c0,0,0,0,0.1,0.1c0.1,0.1,0.2,0.3,0.3,0.4L23.8,16.3L23.8,16.3z M21.9,15.1l-0.2,0
	c-0.2,0-0.5,0.1-0.5,0.2c0,0.1,0,0.1,0,0.2l0.7-0.1l0.1,0.3l-0.7,0.1l0.1,0.2l0,0.1l0.2,0c0.2,0,0.3-0.1,0.5-0.1l0.1,0.3
	c-0.2,0.1-0.4,0.1-0.6,0.1c-0.2,0-0.5,0-0.5-0.2l0-0.1c-0.1-0.3-0.2-0.5-0.2-0.8c0-0.4,0.4-0.4,0.8-0.5l0.2,0L21.9,15.1L21.9,15.1z
	 M19.3,15.5l0.8,0.8l0.1-1.1h0.3l-0.2,1.6L19,15.7L19.3,15.5L19.3,15.5z M18.7,15.9l0.6,1.2L19,17.2L18.4,16L18.7,15.9z M17.6,18.2
	l-0.8-1.2l0.2-0.2l1.3,0.3l-0.5-0.7l0.3-0.2l0.7,1.1l0.1,0.2l-0.2,0.1l-1.3-0.3l0.5,0.8L17.6,18.2L17.6,18.2z M15.8,18.2l0.1,0.1
	c0.1,0.1,0.2,0.2,0.4,0.3c0.2,0.2,0.5,0.3,0.6,0.1c0.1-0.1,0.1-0.3,0.1-0.4c-0.2-0.3-0.4-0.5-0.7-0.7l0.2-0.3
	c0.3,0.2,0.6,0.5,0.7,0.8c0.1,0.3,0.1,0.6-0.1,0.8c-0.3,0.4-0.7,0.2-1.1-0.1c-0.1-0.1-0.3-0.2-0.4-0.4l-0.1-0.1L15.8,18.2L15.8,18.2
	z M29.8,18.7c0,0,0,0.1,0,0.1c0,0.1,0,0.1,0.1,0.1h0C29.9,19,30,19,30.1,19c0,0,0.1,0,0.1,0c0,0,0.1-0.1,0-0.2
	c0-0.1-0.1-0.2-0.1-0.2L30,18.6c-0.1-0.1-0.1-0.2-0.1-0.4c0-0.1,0.1-0.2,0.2-0.3l0,0c0.1-0.1,0.2-0.1,0.4-0.1c0.1,0,0.3,0.1,0.4,0.2
	c0.1,0.1,0.2,0.2,0.2,0.3c0,0.1,0,0.3,0,0.4l-0.3-0.2c0,0,0-0.1,0-0.1c0-0.1-0.1-0.1-0.1-0.2c0,0-0.1-0.1-0.2-0.1
	c-0.1,0-0.1,0-0.2,0.1c0,0,0,0-0.1,0.1c0,0.1,0,0.1,0.1,0.1l0,0c0.1,0.1,0.2,0.2,0.2,0.3c0.1,0.2,0,0.4-0.1,0.5
	c-0.1,0.1-0.3,0.1-0.4,0.1c-0.1,0-0.3-0.1-0.4-0.2l0,0c-0.1-0.1-0.1-0.2-0.2-0.3c0-0.1,0-0.2,0.1-0.3L29.8,18.7L29.8,18.7z"/>
<path class="st1" d="M28.7,17.5c-0.1-0.1-0.2-0.2-0.4-0.2l-0.1,0.1l-0.2,0.2l-0.3-0.2l0.2-0.2c0.3-0.5,0.7-1,1.4-0.5
	c0.4,0.3,0.3,0.7,0.1,1c-0.1,0.1-0.2,0.3-0.3,0.4L29,18.2L28.7,18l0.1-0.1l0.1-0.1C28.9,17.6,28.8,17.6,28.7,17.5L28.7,17.5z
	 M28.5,17c0.1,0.1,0.2,0.1,0.3,0.2c0.1,0.1,0.2,0.2,0.3,0.2c0.1-0.2,0.2-0.4,0-0.6C29,16.7,28.7,16.8,28.5,17L28.5,17z M26.8,16.8
	l0.5-0.9L27,15.7l0.2-0.3l1,0.5L28,16.2L27.6,16L27.1,17L26.8,16.8L26.8,16.8z M26.6,15.3l-0.4,1.3l-0.3-0.1l0.4-1.3L26.6,15.3
	L26.6,15.3z M24.7,16c0,0.1,0.1,0.1,0.1,0.1c0,0,0.1,0.1,0.2,0.1c0.1,0,0.1,0,0.2,0c0,0,0.1-0.1,0.1-0.1c0,0,0,0,0,0
	c0,0,0-0.1,0-0.1c0,0-0.1-0.1-0.1-0.1h-0.1c-0.1,0-0.3-0.1-0.4-0.2c-0.1-0.1-0.2-0.2-0.1-0.4c0-0.1,0.1-0.3,0.2-0.3
	c0.1-0.1,0.3-0.1,0.4-0.1c0.1,0,0.2,0.1,0.3,0.1c0.1,0.1,0.1,0.1,0.2,0.2l-0.3,0.1c0,0-0.1-0.1-0.1-0.1c0,0-0.1-0.1-0.1-0.1
	c-0.1,0-0.1,0-0.2,0c0,0-0.1,0-0.1,0.1c0,0,0,0.1,0,0.1c0.1,0,0.1,0.1,0.2,0.1h0.1c0.1,0,0.2,0.1,0.3,0.2c0.1,0.1,0.1,0.2,0.1,0.4
	c0,0,0,0,0,0.1c0,0.1-0.1,0.3-0.2,0.3c-0.1,0.1-0.3,0.1-0.4,0.1c-0.1,0-0.2,0-0.3-0.1c-0.1-0.1-0.2-0.1-0.2-0.2L24.7,16L24.7,16z
	 M23,15v0.4h0.5c0.1,0,0.1,0,0.2-0.1c0,0,0.1-0.1,0.1-0.1c0-0.1-0.1-0.1-0.2-0.2C23.3,15,23.2,15,23,15L23,15z M23.8,16.3
	c-0.1-0.1-0.2-0.3-0.3-0.4c0-0.1-0.1-0.1-0.2-0.2H23v0.5h-0.3v-1.4l0.1,0l0.2,0c0.2,0,0.4,0,0.6,0c0.2,0,0.4,0.2,0.4,0.4
	c0,0,0,0,0,0v0c0,0.1-0.1,0.3-0.2,0.4l-0.1,0.1c0,0,0,0,0.1,0.1c0.1,0.1,0.2,0.3,0.3,0.4L23.8,16.3L23.8,16.3z M21.9,15.1l-0.2,0
	c-0.2,0-0.5,0.1-0.5,0.2c0,0.1,0,0.1,0,0.2l0.7-0.1l0.1,0.3l-0.7,0.1l0.1,0.2l0,0.1l0.2,0c0.2,0,0.3-0.1,0.5-0.1l0.1,0.3
	c-0.2,0.1-0.4,0.1-0.6,0.1c-0.2,0-0.5,0-0.5-0.2l0-0.1c-0.1-0.3-0.2-0.5-0.2-0.8c0-0.4,0.4-0.4,0.8-0.5l0.2,0L21.9,15.1L21.9,15.1z
	 M19.3,15.5l0.8,0.8l0.1-1.1h0.3l-0.2,1.6L19,15.7L19.3,15.5L19.3,15.5z M18.7,15.9l0.6,1.2L19,17.2L18.4,16L18.7,15.9z M17.6,18.2
	l-0.8-1.2l0.2-0.2l1.3,0.3l-0.5-0.7l0.3-0.2l0.7,1.1l0.1,0.2l-0.2,0.1l-1.3-0.3l0.5,0.8L17.6,18.2L17.6,18.2z M15.8,18.2l0.1,0.1
	c0.1,0.1,0.2,0.2,0.4,0.3c0.2,0.2,0.5,0.3,0.6,0.1c0.1-0.1,0.1-0.3,0.1-0.4c-0.2-0.3-0.4-0.5-0.7-0.7l0.2-0.3
	c0.3,0.2,0.6,0.5,0.7,0.8c0.1,0.3,0.1,0.6-0.1,0.8c-0.3,0.4-0.7,0.2-1.1-0.1c-0.1-0.1-0.3-0.2-0.4-0.4l-0.1-0.1L15.8,18.2L15.8,18.2
	z M29.8,18.7c0,0,0,0.1,0,0.1c0,0.1,0,0.1,0.1,0.1h0C29.9,19,30,19,30.1,19c0,0,0.1,0,0.1,0c0,0,0.1-0.1,0-0.2
	c0-0.1-0.1-0.2-0.1-0.2L30,18.6c-0.1-0.1-0.1-0.2-0.1-0.4c0-0.1,0.1-0.2,0.2-0.3l0,0c0.1-0.1,0.2-0.1,0.4-0.1c0.1,0,0.3,0.1,0.4,0.2
	c0.1,0.1,0.2,0.2,0.2,0.3c0,0.1,0,0.3,0,0.4l-0.3-0.2c0,0,0-0.1,0-0.1c0-0.1-0.1-0.1-0.1-0.2c0,0-0.1-0.1-0.2-0.1
	c-0.1,0-0.1,0-0.2,0.1c0,0,0,0-0.1,0.1c0,0.1,0,0.1,0.1,0.1l0,0c0.1,0.1,0.2,0.2,0.2,0.3c0.1,0.2,0,0.4-0.1,0.5
	c-0.1,0.1-0.3,0.1-0.4,0.1c-0.1,0-0.3-0.1-0.4-0.2l0,0c-0.1-0.1-0.1-0.2-0.2-0.3c0-0.1,0-0.2,0.1-0.3L29.8,18.7L29.8,18.7z"/>
<path class="st0" d="M16.4,29.4l0.5,0.6l0.1,0.1l-0.1,0.1l-0.2,0.2c-0.2,0.2-0.4,0.3-0.7,0.5c-0.1,0-0.3,0-0.4,0
	c-0.1-0.1-0.3-0.2-0.3-0.3c-0.1-0.1-0.1-0.2-0.2-0.4c0-0.1,0-0.3,0-0.4l0.3,0.1c0,0.1,0,0.2,0,0.3c0,0.1,0,0.2,0.1,0.2
	c0.1,0.1,0.1,0.1,0.2,0.2c0.1,0,0.1,0,0.2,0c0.2-0.1,0.4-0.2,0.6-0.4l0.1-0.1l-0.4-0.5L16.4,29.4L16.4,29.4z"/>
<path class="st1" d="M16.4,29.4l0.5,0.6l0.1,0.1l-0.1,0.1l-0.2,0.2c-0.2,0.2-0.4,0.3-0.7,0.5c-0.1,0-0.3,0-0.4,0
	c-0.1-0.1-0.3-0.2-0.3-0.3c-0.1-0.1-0.1-0.2-0.2-0.4c0-0.1,0-0.3,0-0.4l0.3,0.1c0,0.1,0,0.2,0,0.3c0,0.1,0,0.2,0.1,0.2
	c0.1,0.1,0.1,0.1,0.2,0.2c0.1,0,0.1,0,0.2,0c0.2-0.1,0.4-0.2,0.6-0.4l0.1-0.1l-0.4-0.5L16.4,29.4L16.4,29.4z"/>
<path class="st0" d="M17.1,31.2L17.1,31.2c-0.1,0.1-0.2,0.2-0.2,0.3c0,0.1,0,0.2,0.1,0.3c0.1,0.1,0.2,0.1,0.3,0.1
	c0.1,0,0.2,0,0.3-0.1c0.1-0.1,0.2-0.2,0.3-0.4c0-0.1,0-0.2-0.1-0.3l0,0C17.6,31,17.5,31,17.4,31C17.3,31,17.1,31.1,17.1,31.2
	L17.1,31.2z M16.8,31L16.8,31c0.2-0.2,0.4-0.3,0.6-0.3c0.2,0,0.5,0.1,0.6,0.2c0,0,0,0,0.1,0.1c0.1,0.2,0.2,0.4,0.2,0.6
	c-0.1,0.2-0.2,0.4-0.4,0.6h0c-0.2,0.1-0.3,0.2-0.5,0.1c-0.2,0-0.4-0.1-0.5-0.2l0,0c-0.1-0.2-0.2-0.4-0.2-0.6
	C16.6,31.2,16.7,31.1,16.8,31L16.8,31z"/>
<path class="st1" d="M17.1,31.2L17.1,31.2c-0.1,0.1-0.2,0.2-0.2,0.3c0,0.1,0,0.2,0.1,0.3c0.1,0.1,0.2,0.1,0.3,0.1
	c0.1,0,0.2,0,0.3-0.1c0.1-0.1,0.2-0.2,0.3-0.4c0-0.1,0-0.2-0.1-0.3l0,0C17.6,31,17.5,31,17.4,31C17.3,31,17.1,31.1,17.1,31.2
	L17.1,31.2z M16.8,31L16.8,31c0.2-0.2,0.4-0.3,0.6-0.3c0.2,0,0.5,0.1,0.6,0.2c0,0,0,0,0.1,0.1c0.1,0.2,0.2,0.4,0.2,0.6
	c-0.1,0.2-0.2,0.4-0.4,0.6h0c-0.2,0.1-0.3,0.2-0.5,0.1c-0.2,0-0.4-0.1-0.5-0.2l0,0c-0.1-0.2-0.2-0.4-0.2-0.6
	C16.6,31.2,16.7,31.1,16.8,31L16.8,31z"/>
<path class="st0" d="M19.2,32.2c0-0.1-0.1-0.1-0.1-0.2c0,0-0.1-0.1-0.1-0.1c-0.1,0-0.2,0-0.3,0.1c-0.1,0-0.2,0.1-0.3,0.2
	c-0.1,0.1-0.1,0.3,0,0.4c0,0.1,0.1,0.2,0.2,0.3c0.1,0,0.1,0.1,0.2,0.1c0.1,0,0.1,0,0.2,0c0.1-0.1,0.1-0.1,0.2-0.2l-0.3-0.1l-0.2-0.1
	l0.1-0.3l0.2,0.1c0.2,0.1,0.3,0.1,0.5,0.2l0.1,0.1l0,0.1c0,0,0,0,0,0.1c0,0.2-0.2,0.4-0.3,0.5c-0.1,0.1-0.3,0.1-0.4,0.1
	c-0.1,0-0.2-0.1-0.3-0.1c-0.2-0.1-0.3-0.3-0.4-0.5c-0.1-0.2,0-0.5,0.1-0.7c0.1-0.2,0.2-0.3,0.4-0.4c0.2-0.1,0.4-0.1,0.5-0.1
	c0.1,0,0.2,0.1,0.3,0.2c0.1,0.1,0.2,0.2,0.2,0.3L19.2,32.2L19.2,32.2z"/>
<path class="st1" d="M19.2,32.2c0-0.1-0.1-0.1-0.1-0.2c0,0-0.1-0.1-0.1-0.1c-0.1,0-0.2,0-0.3,0.1c-0.1,0-0.2,0.1-0.3,0.2
	c-0.1,0.1-0.1,0.3,0,0.4c0,0.1,0.1,0.2,0.2,0.3c0.1,0,0.1,0.1,0.2,0.1c0.1,0,0.1,0,0.2,0c0.1-0.1,0.1-0.1,0.2-0.2l-0.3-0.1l-0.2-0.1
	l0.1-0.3l0.2,0.1c0.2,0.1,0.3,0.1,0.5,0.2l0.1,0.1l0,0.1c0,0,0,0,0,0.1c0,0.2-0.2,0.4-0.3,0.5c-0.1,0.1-0.3,0.1-0.4,0.1
	c-0.1,0-0.2-0.1-0.3-0.1c-0.2-0.1-0.3-0.3-0.4-0.5c-0.1-0.2,0-0.5,0.1-0.7c0.1-0.2,0.2-0.3,0.4-0.4c0.2-0.1,0.4-0.1,0.5-0.1
	c0.1,0,0.2,0.1,0.3,0.2c0.1,0.1,0.2,0.2,0.2,0.3L19.2,32.2L19.2,32.2z"/>
<path class="st0" d="M20.6,32.4l0.3,0.1c0.1,0,0.2,0.1,0.4,0.1l0.2,0v0.2c0,0.2-0.1,0.4-0.1,0.5c-0.1,0.2-0.1,0.3-0.2,0.5
	C21,33.9,20.8,34,20.7,34c-0.1,0-0.3,0-0.4,0c-0.2-0.1-0.3-0.2-0.5-0.3c-0.1-0.1-0.2-0.2-0.2-0.4l0.3-0.1c0,0.1,0.1,0.2,0.1,0.2
	c0.1,0.1,0.2,0.2,0.3,0.2c0.1,0,0.2,0,0.2,0c0.1,0,0.1,0,0.1-0.1c0.1-0.1,0.1-0.3,0.2-0.4c0-0.1,0.1-0.2,0.1-0.3l-0.2-0.1l-0.3-0.1
	L20.6,32.4L20.6,32.4z"/>
<path class="st1" d="M20.6,32.4l0.3,0.1c0.1,0,0.2,0.1,0.4,0.1l0.2,0v0.2c0,0.2-0.1,0.4-0.1,0.5c-0.1,0.2-0.1,0.3-0.2,0.5
	C21,33.9,20.8,34,20.7,34c-0.1,0-0.3,0-0.4,0c-0.2-0.1-0.3-0.2-0.5-0.3c-0.1-0.1-0.2-0.2-0.2-0.4l0.3-0.1c0,0.1,0.1,0.2,0.1,0.2
	c0.1,0.1,0.2,0.2,0.3,0.2c0.1,0,0.2,0,0.2,0c0.1,0,0.1,0,0.1-0.1c0.1-0.1,0.1-0.3,0.2-0.4c0-0.1,0.1-0.2,0.1-0.3l-0.2-0.1l-0.3-0.1
	L20.6,32.4L20.6,32.4z"/>
<path class="st0" d="M22.4,33.9c-0.2,0-0.3,0-0.4,0c0,0.1,0,0.1,0,0.2s0,0.1,0,0.2h-0.3c0-0.1,0-0.1,0-0.2c0-0.3,0.1-0.6,0.2-0.8
	c0.1-0.3,0.4-0.4,0.6-0.4l0.1,0c0.8,0.1,0.7,0.8,0.6,1.4c0,0.1,0,0.2,0,0.2h-0.3c0-0.1,0-0.2,0-0.2V34L22.4,33.9L22.4,33.9z
	 M22,33.6c0.1,0,0.3,0,0.4,0c0.1,0,0.3,0,0.4,0.1c0-0.3-0.1-0.5-0.4-0.6h0c-0.2,0-0.3,0.1-0.3,0.3C22.1,33.4,22,33.5,22,33.6
	L22,33.6z"/>
<path class="st1" d="M22.4,33.9c-0.2,0-0.3,0-0.4,0c0,0.1,0,0.1,0,0.2s0,0.1,0,0.2h-0.3c0-0.1,0-0.1,0-0.2c0-0.3,0.1-0.6,0.2-0.8
	c0.1-0.3,0.4-0.4,0.6-0.4l0.1,0c0.8,0.1,0.7,0.8,0.6,1.4c0,0.1,0,0.2,0,0.2h-0.3c0-0.1,0-0.2,0-0.2V34L22.4,33.9L22.4,33.9z
	 M22,33.6c0.1,0,0.3,0,0.4,0c0.1,0,0.3,0,0.4,0.1c0-0.3-0.1-0.5-0.4-0.6h0c-0.2,0-0.3,0.1-0.3,0.3C22.1,33.4,22,33.5,22,33.6
	L22,33.6z"/>
<polygon class="st0" points="23.9,32.9 23.9,33.3 24.6,32.7 24.9,32.9 24.3,33.4 25,34 24.7,34.3 24.1,33.6 24,33.7 24,34.3 
	23.7,34.3 23.6,32.9 "/>
<polygon class="st1" points="23.9,32.9 23.9,33.3 24.6,32.7 24.9,32.9 24.3,33.4 25,34 24.7,34.3 24.1,33.6 24,33.7 24,34.3 
	23.7,34.3 23.6,32.9 "/>
<path class="st0" d="M25.7,33c0,0.1,0,0.1,0,0.2l0.7-0.2c0-0.1-0.1-0.2-0.1-0.2c-0.1-0.1-0.2-0.2-0.3-0.2
	C25.8,32.7,25.7,32.8,25.7,33L25.7,33z M25.5,34c-0.1-0.3-0.2-0.6-0.2-0.9c0-0.3,0.2-0.6,0.5-0.7c0.3-0.1,0.6,0,0.7,0.3
	c0.2,0.3,0.3,0.6,0.4,1l-0.3,0.1c0-0.1-0.1-0.2-0.1-0.3l-0.8,0.2c0,0.1,0.1,0.2,0.1,0.3L25.5,34z"/>
<path class="st1" d="M25.7,33c0,0.1,0,0.1,0,0.2l0.7-0.2c0-0.1-0.1-0.2-0.1-0.2c-0.1-0.1-0.2-0.2-0.3-0.2
	C25.8,32.7,25.7,32.8,25.7,33L25.7,33z M25.5,34c-0.1-0.3-0.2-0.6-0.2-0.9c0-0.3,0.2-0.6,0.5-0.7c0.3-0.1,0.6,0,0.7,0.3
	c0.2,0.3,0.3,0.6,0.4,1l-0.3,0.1c0-0.1-0.1-0.2-0.1-0.3l-0.8,0.2c0,0.1,0.1,0.2,0.1,0.3L25.5,34z"/>
<path class="st0" d="M27.4,32.1l0.3,0.4c0,0,0.1,0,0.1-0.1c0.1-0.1,0.1-0.1,0.2-0.2c0.1-0.1,0.2-0.3,0.2-0.4c0,0,0,0,0-0.1
	c0,0,0,0-0.1,0c-0.1,0-0.1,0-0.2,0c-0.2,0.1-0.3,0.2-0.5,0.3L27.4,32.1L27.4,32.1z M27.7,33.3l-0.7-1.1L27,32l0.1-0.1l0.2-0.2
	c0.2-0.1,0.3-0.2,0.5-0.3c0.1-0.1,0.3-0.1,0.4,0c0.1,0,0.2,0.1,0.2,0.1c0.1,0.1,0.1,0.2,0.1,0.3c0,0.1,0,0.2-0.1,0.3h0.1
	c0.2,0,0.3,0.1,0.5,0.2l-0.2,0.3c-0.1-0.1-0.2-0.1-0.3-0.1c-0.1,0-0.2,0-0.3,0c-0.1,0.1-0.2,0.1-0.2,0.2l-0.1,0.1l0.2,0.3L27.7,33.3
	L27.7,33.3z"/>
<path class="st1" d="M27.4,32.1l0.3,0.4c0,0,0.1,0,0.1-0.1c0.1-0.1,0.1-0.1,0.2-0.2c0.1-0.1,0.2-0.3,0.2-0.4c0,0,0,0,0-0.1
	c0,0,0,0-0.1,0c-0.1,0-0.1,0-0.2,0c-0.2,0.1-0.3,0.2-0.5,0.3L27.4,32.1L27.4,32.1z M27.7,33.3l-0.7-1.1L27,32l0.1-0.1l0.2-0.2
	c0.2-0.1,0.3-0.2,0.5-0.3c0.1-0.1,0.3-0.1,0.4,0c0.1,0,0.2,0.1,0.2,0.1c0.1,0.1,0.1,0.2,0.1,0.3c0,0.1,0,0.2-0.1,0.3h0.1
	c0.2,0,0.3,0.1,0.5,0.2l-0.2,0.3c-0.1-0.1-0.2-0.1-0.3-0.1c-0.1,0-0.2,0-0.3,0c-0.1,0.1-0.2,0.1-0.2,0.2l-0.1,0.1l0.2,0.3L27.7,33.3
	L27.7,33.3z"/>
<path class="st0" d="M29.8,31.8c-0.1-0.2-0.3-0.3-0.4-0.5c-0.1-0.1-0.2-0.2-0.3-0.3l-0.3,0.3l-0.2-0.3l0.8-0.8l0.2,0.3l-0.3,0.3
	c0.1,0.1,0.2,0.2,0.3,0.3c0.1,0.2,0.3,0.3,0.4,0.5L29.8,31.8L29.8,31.8z"/>
<path class="st1" d="M29.8,31.8c-0.1-0.2-0.3-0.3-0.4-0.5c-0.1-0.1-0.2-0.2-0.3-0.3l-0.3,0.3l-0.2-0.3l0.8-0.8l0.2,0.3l-0.3,0.3
	c0.1,0.1,0.2,0.2,0.3,0.3c0.1,0.2,0.3,0.3,0.4,0.5L29.8,31.8L29.8,31.8z"/>
<path class="st0" d="M30.5,29.5c-0.2,0.2-0.1,0.5,0.1,0.7l0.5-0.7h0C30.9,29.3,30.7,29.2,30.5,29.5L30.5,29.5z M30.9,30.8
	c-0.1-0.1-0.1-0.1-0.2-0.1c-0.4-0.3-0.9-0.7-0.5-1.4c0.3-0.5,0.7-0.4,1-0.1c0.1,0.1,0.2,0.2,0.3,0.3c0.1,0.1,0.2,0.1,0.2,0.2
	l-0.2,0.3c-0.1-0.1-0.2-0.1-0.3-0.2l-0.5,0.7l0,0c0.1,0.1,0.1,0.1,0.2,0.2L30.9,30.8L30.9,30.8z"/>
<path class="st1" d="M30.5,29.5c-0.2,0.2-0.1,0.5,0.1,0.7l0.5-0.7h0C30.9,29.3,30.7,29.2,30.5,29.5L30.5,29.5z M30.9,30.8
	c-0.1-0.1-0.1-0.1-0.2-0.1c-0.4-0.3-0.9-0.7-0.5-1.4c0.3-0.5,0.7-0.4,1-0.1c0.1,0.1,0.2,0.2,0.3,0.3c0.1,0.1,0.2,0.1,0.2,0.2
	l-0.2,0.3c-0.1-0.1-0.2-0.1-0.3-0.2l-0.5,0.7l0,0c0.1,0.1,0.1,0.1,0.2,0.2L30.9,30.8L30.9,30.8z"/>
<path class="st0" d="M31.1,16.8c0.1-0.1,0.1-0.2,0.1-0.3c0-0.1-0.1-0.1,0-0.2c0.1-0.2,0.2-0.5,0.3-0.7c0.3-0.4,0.5-0.8,0.7-1.2
	c0.3-0.4,0.5-0.7,0.9-1.2c0.4-0.6,0.9-1.1,1.5-1.5c0.7-0.5,1.5-0.7,2.3-0.7c0.7,0,1.4,0.2,2,0.6c0.6,0.5,1.1,1.1,1.5,1.8
	c0.4,0.7,0.9,1.3,1.4,2c0.2,0.2,0.3,0.4,0.5,0.6c0.2,0.3,0.5,0.5,0.8,0.7c0.3,0.2,0.7,0.4,1.1,0.5l0.3,0.1l-0.2,0.3
	c-0.2,0.3-0.4,0.7-0.5,1c-0.1,0.3-0.1,0.7-0.1,1c0,0.3,0,0.5,0,0.8c0,0.8,0.1,1.6,0.2,2.4c0.2,0.8,0.2,1.6,0,2.4
	c-0.2,0.7-0.6,1.3-1.1,1.7c-0.7,0.5-1.4,0.8-2.3,0.9c-0.7,0-1.4,0-2.1-0.2c-0.5-0.1-1-0.2-1.5-0.3c-0.4-0.1-0.8-0.3-1.3-0.4
	c-0.3-0.1-0.6-0.3-0.9-0.4c-0.1,0-0.2,0-0.2-0.1c-0.1-0.1-0.2-0.3-0.4-0.4l0.3-0.1c0.2,0.1,0.1,0,0.3,0.1l0.2,0.1
	c0.3,0.1,0.5,0.3,0.8,0.4c0.5,0.2,0.9,0.3,1.3,0.4c0.4,0.1,0.9,0.2,1.4,0.3c0.6,0.1,1.3,0.2,2,0.2c0.7-0.1,1.5-0.4,2-0.8
	c0.5-0.4,0.8-0.9,0.9-1.5c0.1-0.7,0.1-1.5,0-2.2c-0.1-0.8-0.2-1.6-0.2-2.5c0-0.3,0-0.5,0-0.8c0-0.4,0-0.8,0.2-1.2
	c0.1-0.3,0.2-0.6,0.4-0.9c-0.3-0.1-0.6-0.3-0.9-0.4c-0.3-0.2-0.6-0.5-0.9-0.8c-0.2-0.2-0.3-0.4-0.5-0.6c-0.5-0.6-1-1.3-1.4-2
	c-0.4-0.6-0.8-1.2-1.4-1.7c-0.5-0.4-1.1-0.5-1.7-0.5c-0.7,0-1.5,0.2-2.1,0.7c-0.5,0.4-1,0.9-1.4,1.4c-0.4,0.4-0.6,0.8-0.9,1.1
	c-0.2,0.4-0.5,0.7-0.7,1.1c-0.1,0.3-0.3,0.5-0.4,0.8c-0.1,0.1-0.4,0.1-0.4,0.2L31.1,16.8L31.1,16.8z M25.2,35.5
	c0,0.1,0.1,0.1,0.1,0.2c-0.1,0.5-0.2,1-0.2,1.5c0,0.6,0,1.3,0,1.9c0,0.7,0.1,1.3,0.3,1.9c0.3,0.7,0.7,1.3,1.3,1.8
	c0.5,0.4,1.1,0.6,1.7,0.5c0.7,0,1.4-0.2,2.1-0.6c0.8-0.3,1.5-0.6,2.3-0.8c0.3-0.1,0.5-0.1,0.8-0.2c0.4-0.1,0.8-0.2,1.2-0.1
	c0.3,0,0.7,0.1,1,0.2c0-0.3,0.1-0.7,0.2-1c0.1-0.4,0.3-0.7,0.6-1.1c0.2-0.2,0.3-0.4,0.5-0.6c0.5-0.7,1-1.3,1.6-1.9
	c0.5-0.5,1-1.1,1.3-1.8c0.2-0.6,0.3-1.2,0.1-1.7c-0.2-0.7-0.6-1.4-1.2-1.9c-0.5-0.4-1.1-0.8-1.7-1c-0.5-0.2-0.9-0.4-1.3-0.6
	c-0.4-0.1-0.8-0.3-1.3-0.4c-0.3-0.1-1.3-0.2-1.6-0.3h-0.1c0-0.1,0.6,0,0.7-0.2c0-0.1-0.1-0.2-0.1-0.2c0.4,0.1,1,0.2,1.2,0.2
	c0.5,0.1,0.9,0.3,1.3,0.4c0.4,0.2,0.8,0.3,1.4,0.6c0.6,0.3,1.3,0.6,1.8,1.1c0.6,0.5,1.1,1.3,1.3,2.1c0.2,0.7,0.2,1.4-0.1,2
	c-0.3,0.7-0.8,1.4-1.4,1.9c-0.6,0.6-1.1,1.2-1.5,1.8c-0.2,0.2-0.3,0.4-0.5,0.6c-0.2,0.3-0.4,0.6-0.5,0.9c-0.1,0.4-0.2,0.8-0.2,1.1
	v0.3l-0.3-0.1c-0.4-0.1-0.8-0.2-1.1-0.2c-0.3,0-0.7,0-1,0.1c-0.2,0.1-0.5,0.1-0.8,0.2c-0.8,0.2-1.5,0.5-2.3,0.8
	c-0.7,0.3-1.5,0.5-2.3,0.6c-0.7,0-1.4-0.2-2-0.6c-0.7-0.5-1.2-1.2-1.5-2c-0.2-0.7-0.3-1.3-0.4-2c-0.1-0.7-0.1-1.3,0-2
	c0-0.4,0.1-0.8,0.1-1.2c0-0.2,0.3-0.4,0.3-0.6L25.2,35.5L25.2,35.5z M21.6,35.8c0,0.1,0.2-0.3,0.2-0.2c0,0.2,0.1,0.6,0.1,0.6
	c0.1,0.5,0.1,0.9,0.1,1.4c0,0.5,0,1-0.1,1.5c0,0.7-0.1,1.4-0.4,2c-0.3,0.8-0.8,1.5-1.5,2c-0.6,0.4-1.3,0.7-2,0.6
	c-0.8-0.1-1.6-0.3-2.3-0.6c-0.7-0.3-1.5-0.6-2.3-0.8c-0.3-0.1-0.5-0.1-0.8-0.2c-0.3-0.1-0.7-0.1-1-0.1c-0.4,0-0.8,0.1-1.1,0.2
	l-0.3,0.1v-0.3c0-0.4-0.1-0.8-0.2-1.1C10,40.6,9.9,40.3,9.6,40c-0.2-0.2-0.3-0.4-0.5-0.6c-0.5-0.7-1-1.3-1.5-1.8
	c-0.6-0.5-1-1.2-1.4-1.9c-0.3-0.6-0.3-1.4-0.1-2c0.2-0.8,0.7-1.5,1.3-2.1c0.6-0.4,1.2-0.8,1.8-1.1c0.5-0.2,1-0.4,1.4-0.6
	c0.4-0.2,0.8-0.3,1.3-0.4c0.3-0.1,1-0.2,1.3-0.2L13,29.6l0.4,0.1h-0.1c-0.3,0.1-1,0.2-1.2,0.2c-0.5,0.1-0.9,0.3-1.3,0.4
	c-0.4,0.1-0.8,0.3-1.3,0.6c-0.6,0.3-1.2,0.6-1.7,1c-0.6,0.5-1,1.1-1.2,1.9c-0.2,0.6-0.2,1.2,0.1,1.7C7,36.1,7.4,36.7,8,37.2
	c0.6,0.6,1.1,1.2,1.6,1.9c0.2,0.2,0.3,0.4,0.5,0.6c0.3,0.3,0.4,0.7,0.6,1.1c0.1,0.3,0.2,0.6,0.2,1c0.3-0.1,0.6-0.1,1-0.2
	c0.4,0,0.8,0,1.2,0.1c0.3,0.1,0.5,0.1,0.8,0.2c0.8,0.2,1.6,0.5,2.3,0.8c0.7,0.3,1.4,0.5,2.1,0.6c0.6,0,1.2-0.2,1.7-0.5
	c0.6-0.4,1.1-1.1,1.3-1.8c0.2-0.6,0.3-1.3,0.3-1.9c0-0.6,0.1-1,0.1-1.5c0-0.4,0-0.8-0.1-1.3c0-0.1-0.1-0.7-0.1-0.8
	c0-0.1,0-0.1,0-0.2l0.2,0L21.6,35.8L21.6,35.8z M6,29.9c-0.5,0-1.1-0.1-1.6-0.3c-0.8-0.3-1.6-0.8-2.2-1.4c-0.6-0.6-1.1-1.3-1.4-2.2
	c-0.3-0.9-0.4-1.8-0.3-2.8c0.1-0.8,0.2-1.3,0.3-1.8c0.1-0.7,0.2-1.4,0.2-2c0.2-0.9,0-1.8-0.6-2.4l-0.3-0.3l0.4-0.1
	c0.4-0.1,0.8-0.2,1.2-0.4c0.4-0.2,0.5-0.6,0.8-1C3,14.6,3.3,14,3.7,13.4c0.3-0.4,0.5-0.9,1-1.5c0.5-0.8,1.2-1.5,2-2
	c0.7-0.5,1.6-0.7,2.4-0.8c0.9,0,1.7,0.1,2.6,0.4c0.4,0.1,0.8,0.3,1.2,0.6c-0.1-0.4-0.1-0.8-0.1-1.2c0-0.9,0.2-1.7,0.5-2.6
	c0.3-0.8,0.9-1.5,1.6-2c0.7-0.6,1.6-1,2.5-1.2C18,2.9,18.5,2.8,19,2.7c0.7-0.1,1.3-0.3,2-0.5c0.5-0.2,0.9-0.4,1.2-0.7
	c0.3-0.3,0.6-0.6,0.8-1l0.2-0.3l0.2,0.3c0.2,0.4,0.5,0.7,0.8,1c0.4,0.3,0.8,0.6,1.2,0.7c0.7,0.2,1.3,0.4,2,0.5
	c0.5,0.1,1.1,0.2,1.8,0.4c0.9,0.2,1.8,0.6,2.5,1.2c0.7,0.5,1.2,1.2,1.6,2C33.8,7.1,34,8,34,8.9c0,0.4,0,0.8-0.1,1.2
	c0.3-0.2,0.7-0.4,1.1-0.5c0.8-0.3,1.7-0.4,2.6-0.4c0.9,0.1,1.7,0.3,2.4,0.8c0.8,0.5,1.5,1.2,2,2c0.4,0.6,0.7,1.1,1,1.5
	c0.3,0.6,0.7,1.2,1.1,1.7c0.3,0.4,0.4,0.8,0.8,1c0.4,0.2,0.8,0.4,1.2,0.4l0.4,0.1L46.2,17c-0.6,0.6-0.9,1.5-0.6,2.4
	c0,0.7,0.1,1.4,0.2,2c0.1,0.5,0.2,1.1,0.3,1.8c0.1,0.9,0,1.9-0.3,2.8c-0.3,0.8-0.7,1.6-1.4,2.2c-0.6,0.6-1.4,1.1-2.2,1.4
	c-0.5,0.2-1,0.3-1.6,0.3c0.3,0.3,0.6,0.6,0.8,1c0.5,0.8,0.9,1.7,1.1,2.7c0.2,0.8,0.1,1.7-0.1,2.6c-0.3,0.9-0.8,1.7-1.4,2.4
	c-0.5,0.6-0.9,1-1.3,1.3c-0.5,0.5-0.9,1-1.4,1.5c-0.3,0.4-0.5,0.8-0.7,1.2c-0.1,0.4-0.2,0.8-0.1,1.3l0,0.4l-0.4-0.2
	c-0.4-0.2-0.8-0.3-1.2-0.3c-0.5,0-0.9,0-1.4,0.2c-0.7,0.2-1.3,0.5-1.9,0.7c-0.5,0.2-1,0.4-1.7,0.7c-0.9,0.3-1.8,0.5-2.8,0.4
	c-0.9,0-1.7-0.3-2.4-0.8c-0.7-0.5-1.4-1.1-1.9-1.8c-0.2-0.3-0.4-0.7-0.6-1.1c-0.1,0.4-0.3,0.8-0.6,1.1c-0.5,0.7-1.2,1.3-1.9,1.8
	c-0.7,0.5-1.6,0.7-2.4,0.8c-0.9,0.1-1.9-0.1-2.8-0.4c-0.7-0.3-1.2-0.5-1.7-0.7c-0.6-0.3-1.3-0.5-1.9-0.7c-0.4-0.1-0.9-0.2-1.4-0.2
	c-0.4,0-0.8,0.2-1.2,0.3L9,44.3l0-0.4c0-0.4,0-0.9-0.1-1.3c-0.1-0.4-0.4-0.9-0.7-1.2c-0.4-0.5-0.9-1.1-1.4-1.5
	c-0.4-0.4-0.8-0.8-1.3-1.3C5,37.9,4.6,37,4.3,36.1C4,35.3,4,34.4,4.1,33.6c0.2-0.9,0.6-1.9,1.1-2.7C5.4,30.5,5.7,30.2,6,29.9L6,29.9
	z M16.8,15.8l-0.4-0.2l-1.4-2c-0.6-0.8-1.2-1.7-1.8-2.5L13.1,11c-0.5-0.5-1-0.9-1.7-1.1c-0.8-0.3-1.6-0.4-2.4-0.3
	c-0.8,0-1.5,0.3-2.2,0.7c-0.7,0.5-1.4,1.1-1.9,1.8c-0.4,0.6-0.7,1.1-0.9,1.5c-0.3,0.6-0.7,1.2-1.2,1.8c-0.2,0.4-0.6,0.8-1,1.1
	c-0.3,0.2-0.7,0.3-1,0.4c0.2,0.3,0.4,0.6,0.5,1c0.1,0.5,0.1,1,0,1.5c0,0.7-0.1,1.4-0.2,2.1C1.1,22,1,22.5,1,23.3
	c-0.1,0.9,0,1.8,0.3,2.6c0.2,0.7,0.7,1.4,1.2,2c0.6,0.6,1.3,1,2.1,1.3c0.6,0.3,1.3,0.3,2,0.2l0.3-0.1c1-0.4,2-0.6,3-0.9
	c0.9-0.3,1.8-0.5,2.6-0.8c0.2,0,0.2,0.1,0.4,0.1l0.1,0l0,0.2c-0.1,0-0.2,0.1-0.3,0.1c-0.9,0.3-1.8,0.6-2.7,0.8l-0.1,0h0
	c-1,0.3-1.9,0.6-2.9,0.9c-0.6,0.3-1.1,0.8-1.4,1.4c-0.5,0.8-0.8,1.7-1,2.6c-0.2,0.8-0.1,1.6,0.1,2.3c0.3,0.8,0.7,1.6,1.3,2.3
	c0.5,0.6,0.9,1,1.2,1.3c0.5,0.5,1,1,1.4,1.6c0.3,0.4,0.6,0.9,0.7,1.4c0.1,0.3,0.2,0.7,0.2,1.1c0.3-0.1,0.7-0.2,1.1-0.2
	c0.5,0,1,0,1.5,0.2c0.7,0.2,1.3,0.5,2,0.8c0.5,0.2,1,0.4,1.7,0.7c0.8,0.3,1.7,0.4,2.6,0.4c0.8,0,1.6-0.3,2.3-0.7
	c0.7-0.4,1.3-1,1.8-1.7c0.4-0.5,0.7-1.2,0.7-1.8c0-1.1,0-2.1,0-3.1c0-0.8,0-1.6,0-2.4c0-0.3,0.2-0.3,0.2-0.6l0.1,0.1
	c0,0.3,0.2,0.2,0.2,0.5c0,0.8,0,1.5,0,2.3c0,1,0,2,0,3.1c0.1,0.7,0.3,1.3,0.7,1.8c0.5,0.7,1.1,1.2,1.8,1.7c0.7,0.4,1.4,0.7,2.2,0.7
	c0.9,0.1,1.7-0.1,2.6-0.4c0.7-0.3,1.2-0.5,1.7-0.7c0.6-0.3,1.3-0.5,2-0.8c0.5-0.2,1-0.2,1.5-0.2c0.4,0,0.7,0.1,1.1,0.2
	c0-0.4,0.1-0.7,0.2-1.1c0.2-0.5,0.4-1,0.7-1.4c0.4-0.6,0.9-1.1,1.4-1.6c0.4-0.4,0.8-0.8,1.2-1.3c0.6-0.7,1-1.4,1.3-2.3
	c0.2-0.7,0.3-1.5,0.2-2.3c-0.2-0.9-0.5-1.8-1-2.6c-0.3-0.6-0.8-1.1-1.4-1.4c-0.9-0.3-1.8-0.5-2.7-0.8h-0.1l-0.1,0
	c-0.9-0.3-2.2-0.6-3.2-1l0.1-0.1c0.4,0.1,0.6-0.2,0.6-0.2c0.9,0.3,1.9,0.6,2.7,0.8c0.9,0.2,1.8,0.5,2.8,0.8l0.3,0.1
	c0.7,0.1,1.4,0,2-0.3c0.8-0.3,1.5-0.7,2.1-1.3c0.6-0.5,1-1.2,1.2-2c0.3-0.8,0.4-1.7,0.3-2.6c-0.1-0.7-0.2-1.3-0.3-1.8
	c-0.1-0.7-0.2-1.4-0.2-2.1c-0.1-0.5-0.1-1,0-1.5c0.1-0.3,0.3-0.7,0.5-1c-0.3-0.1-0.7-0.2-1-0.4c-0.4-0.3-0.6-0.7-0.9-1.1
	c-0.4-0.6-0.8-1.1-1.2-1.8c-0.3-0.4-0.5-0.9-0.9-1.5c-0.5-0.7-1.1-1.4-1.9-1.8c-0.7-0.4-1.4-0.7-2.2-0.7c-0.8,0-1.6,0.1-2.4,0.3
	c-0.6,0.2-1.1,0.5-1.6,1L33.5,11l-3.2,4.5l-0.4,0.3l-0.3,0.3l0.1-0.3c0.1-0.2,0-0.3,0.1-0.5c0.5-0.7,1-1.4,1.5-2
	c0.6-0.9,1.3-1.8,1.9-2.7l0.1-0.1c0.2-0.6,0.4-1.2,0.3-1.8c0-0.8-0.2-1.6-0.5-2.4c-0.3-0.7-0.8-1.4-1.4-1.8
	c-0.7-0.5-1.5-0.9-2.3-1.1c-0.7-0.2-1.3-0.3-1.8-0.4c-0.7-0.1-1.4-0.3-2-0.5c-0.5-0.2-1-0.5-1.4-0.8c-0.3-0.2-0.5-0.5-0.7-0.8
	c-0.2,0.3-0.5,0.6-0.7,0.8c-0.4,0.4-0.9,0.6-1.4,0.8c-0.7,0.2-1.4,0.4-2,0.5c-0.5,0.1-1,0.2-1.8,0.4c-0.9,0.2-1.6,0.6-2.3,1.1
	c-0.6,0.5-1.1,1.1-1.4,1.8c-0.3,0.8-0.5,1.6-0.5,2.4c0,0.7,0.1,1.3,0.4,1.9l0,0.1l1.7,2.4l0.1,0.1c0.5,0.6,0.9,1.3,1.4,1.9
	c0,0,0.1,0.5,0.2,0.6L16.8,15.8L16.8,15.8z M15.5,16.9c0-0.1-0.4-0.1-0.4-0.2c-0.1-0.3-0.3-0.6-0.4-0.8c-0.3-0.4-0.5-0.8-0.7-1.1
	c-0.2-0.4-0.5-0.7-0.9-1.1c-0.4-0.5-0.9-1-1.4-1.4c-0.6-0.4-1.4-0.6-2.1-0.7c-0.6,0-1.2,0.1-1.7,0.5c-0.6,0.5-1,1-1.4,1.7
	c-0.4,0.7-0.9,1.4-1.4,2c-0.2,0.2-0.3,0.4-0.5,0.6C4.3,16.7,4,17,3.7,17.2c-0.3,0.2-0.6,0.3-0.9,0.4c0.2,0.3,0.3,0.6,0.4,0.9
	c0.1,0.4,0.2,0.8,0.2,1.2c0,0.3,0,0.5,0,0.8c0,0.8-0.1,1.7-0.2,2.5c-0.1,0.7-0.1,1.5,0,2.2c0.1,0.6,0.5,1.1,0.9,1.5
	c0.6,0.5,1.3,0.8,2,0.8c0.7,0,1.3,0,2-0.2c0.6-0.1,1-0.2,1.4-0.3c0.4-0.1,0.8-0.3,1.3-0.4c0.3-0.1,0.6-0.3,0.9-0.4
	c0.2-0.1,0.6-0.3,0.8-0.4l0.1,0.2l-0.5,0.3c-0.1,0.1,0.3,0.1,0.1,0.1l-0.2,0.1c-0.3,0.1-0.6,0.3-1,0.4c-0.5,0.2-0.9,0.3-1.3,0.4
	c-0.5,0.1-1,0.2-1.5,0.3c-0.7,0.2-1.4,0.2-2.1,0.2c-0.8-0.1-1.6-0.4-2.3-0.9c-0.6-0.4-1-1-1.1-1.7c-0.2-0.8-0.2-1.6,0-2.4
	c0.1-0.8,0.2-1.6,0.2-2.4c0-0.3,0-0.5,0-0.8c0-0.3,0-0.7-0.1-1c-0.1-0.4-0.3-0.7-0.5-1l-0.2-0.3l0.3-0.1c0.4-0.1,0.7-0.3,1.1-0.5
	c0.3-0.2,0.6-0.4,0.8-0.7c0.2-0.2,0.3-0.4,0.5-0.6c0.5-0.6,1-1.3,1.4-2c0.4-0.7,0.9-1.3,1.5-1.8c0.6-0.4,1.3-0.7,2-0.6
	c0.8,0,1.7,0.3,2.3,0.7c0.6,0.4,1.1,0.9,1.5,1.5c0.4,0.4,0.7,0.8,0.9,1.2s0.5,0.7,0.7,1.2c0.2,0.3,0.3,0.6,0.4,0.9l0.1,0.2
	L15.5,16.9L15.5,16.9z M28,14.9c0.1-0.1,0-0.1,0.1-0.2c0.1-0.1,0.8-0.8,0.8-0.9c0.3-0.4,0.6-0.7,0.8-1.1c0.3-0.3,0.5-0.7,0.8-1.2
	c0.4-0.6,0.6-1.2,0.8-1.8c0.2-0.7,0.2-1.5-0.1-2.2c-0.2-0.6-0.6-1.1-1.1-1.4c-0.6-0.4-1.3-0.6-2-0.7c-0.8-0.2-1.6-0.4-2.4-0.7
	l-0.7-0.2C24.7,4.4,24.3,4.2,24,4c-0.3-0.2-0.5-0.4-0.7-0.7c-0.2,0.3-0.4,0.5-0.7,0.7c-0.3,0.2-0.7,0.4-1.1,0.6l-0.7,0.2
	c-0.8,0.3-1.6,0.5-2.4,0.7c-0.7,0.1-1.4,0.4-2,0.7c-0.5,0.3-0.9,0.8-1.1,1.4C15,8.3,15,9,15.2,9.8c0.2,0.6,0.5,1.2,0.8,1.8
	c0.3,0.5,0.5,0.9,0.8,1.2c0.3,0.3,0.5,0.7,0.8,1.1c0.1,0.2,0.3,0.3,0.4,0.5c0.1,0.1-0.1,0.2,0,0.2l0,0L18,14.9l0,0
	c-0.2-0.2-0.5-0.4-0.7-0.7c-0.3-0.4-0.6-0.7-0.9-1.1c-0.3-0.4-0.5-0.8-0.8-1.3c-0.4-0.6-0.7-1.2-0.9-1.9c-0.2-0.8-0.2-1.7,0.1-2.5
	c0.2-0.7,0.7-1.3,1.3-1.6c0.7-0.4,1.4-0.7,2.2-0.8c0.8-0.2,1.6-0.4,2.3-0.6c0.3-0.1,0.5-0.2,0.8-0.3C21.7,4,22,3.8,22.3,3.6
	c0.3-0.2,0.6-0.5,0.8-0.8l0.2-0.3l0.2,0.3c0.2,0.3,0.5,0.6,0.8,0.8c0.3,0.2,0.6,0.4,0.9,0.5c0.3,0.1,0.5,0.2,0.8,0.3
	c0.8,0.3,1.5,0.5,2.3,0.6c0.8,0.1,1.5,0.4,2.2,0.8c0.6,0.4,1,1,1.3,1.6C32,8.2,32,9.1,31.8,9.9c-0.2,0.7-0.5,1.3-0.9,1.9
	c-0.3,0.5-0.5,0.9-0.8,1.3c-0.3,0.4-0.5,0.7-0.9,1.1c-0.1,0.1-0.1,0.1-0.2,0.2l-0.3,0.4c-0.2,0.2,0-0.4,0-0.3L28,14.9L28,14.9z"/>
<path class="st1" d="M31.1,16.8c0.1-0.1,0.1-0.2,0.1-0.3c0-0.1-0.1-0.1,0-0.2c0.1-0.2,0.2-0.5,0.3-0.7c0.3-0.4,0.5-0.8,0.7-1.2
	c0.3-0.4,0.5-0.7,0.9-1.2c0.4-0.6,0.9-1.1,1.5-1.5c0.7-0.5,1.5-0.7,2.3-0.7c0.7,0,1.4,0.2,2,0.6c0.6,0.5,1.1,1.1,1.5,1.8
	c0.4,0.7,0.9,1.3,1.4,2c0.2,0.2,0.3,0.4,0.5,0.6c0.2,0.3,0.5,0.5,0.8,0.7c0.3,0.2,0.7,0.4,1.1,0.5l0.3,0.1l-0.2,0.3
	c-0.2,0.3-0.4,0.7-0.5,1c-0.1,0.3-0.1,0.7-0.1,1c0,0.3,0,0.5,0,0.8c0,0.8,0.1,1.6,0.2,2.4c0.2,0.8,0.2,1.6,0,2.4
	c-0.2,0.7-0.6,1.3-1.1,1.7c-0.7,0.5-1.4,0.8-2.3,0.9c-0.7,0-1.4,0-2.1-0.2c-0.5-0.1-1-0.2-1.5-0.3c-0.4-0.1-0.8-0.3-1.3-0.4
	c-0.3-0.1-0.6-0.3-0.9-0.4c-0.1,0-0.2,0-0.2-0.1c-0.1-0.1-0.2-0.3-0.4-0.4l0.3-0.1c0.2,0.1,0.1,0,0.3,0.1l0.2,0.1
	c0.3,0.1,0.5,0.3,0.8,0.4c0.5,0.2,0.9,0.3,1.3,0.4c0.4,0.1,0.9,0.2,1.4,0.3c0.6,0.1,1.3,0.2,2,0.2c0.7-0.1,1.5-0.4,2-0.8
	c0.5-0.4,0.8-0.9,0.9-1.5c0.1-0.7,0.1-1.5,0-2.2c-0.1-0.8-0.2-1.6-0.2-2.5c0-0.3,0-0.5,0-0.8c0-0.4,0-0.8,0.2-1.2
	c0.1-0.3,0.2-0.6,0.4-0.9c-0.3-0.1-0.6-0.3-0.9-0.4c-0.3-0.2-0.6-0.5-0.9-0.8c-0.2-0.2-0.3-0.4-0.5-0.6c-0.5-0.6-1-1.3-1.4-2
	c-0.4-0.6-0.8-1.2-1.4-1.7c-0.5-0.4-1.1-0.5-1.7-0.5c-0.7,0-1.5,0.2-2.1,0.7c-0.5,0.4-1,0.9-1.4,1.4c-0.4,0.4-0.6,0.8-0.9,1.1
	c-0.2,0.4-0.5,0.7-0.7,1.1c-0.1,0.3-0.3,0.5-0.4,0.8c-0.1,0.1-0.4,0.1-0.4,0.2L31.1,16.8L31.1,16.8z M25.2,35.5
	c0,0.1,0.1,0.1,0.1,0.2c-0.1,0.5-0.2,1-0.2,1.5c0,0.6,0,1.3,0,1.9c0,0.7,0.1,1.3,0.3,1.9c0.3,0.7,0.7,1.3,1.3,1.8
	c0.5,0.4,1.1,0.6,1.7,0.5c0.7,0,1.4-0.2,2.1-0.6c0.8-0.3,1.5-0.6,2.3-0.8c0.3-0.1,0.5-0.1,0.8-0.2c0.4-0.1,0.8-0.2,1.2-0.1
	c0.3,0,0.7,0.1,1,0.2c0-0.3,0.1-0.7,0.2-1c0.1-0.4,0.3-0.7,0.6-1.1c0.2-0.2,0.3-0.4,0.5-0.6c0.5-0.7,1-1.3,1.6-1.9
	c0.5-0.5,1-1.1,1.3-1.8c0.2-0.6,0.3-1.2,0.1-1.7c-0.2-0.7-0.6-1.4-1.2-1.9c-0.5-0.4-1.1-0.8-1.7-1c-0.5-0.2-0.9-0.4-1.3-0.6
	c-0.4-0.1-0.8-0.3-1.3-0.4c-0.3-0.1-1.3-0.2-1.6-0.3h-0.1c0-0.1,0.6,0,0.7-0.2c0-0.1-0.1-0.2-0.1-0.2c0.4,0.1,1,0.2,1.2,0.2
	c0.5,0.1,0.9,0.3,1.3,0.4c0.4,0.2,0.8,0.3,1.4,0.6c0.6,0.3,1.3,0.6,1.8,1.1c0.6,0.5,1.1,1.3,1.3,2.1c0.2,0.7,0.2,1.4-0.1,2
	c-0.3,0.7-0.8,1.4-1.4,1.9c-0.6,0.6-1.1,1.2-1.5,1.8c-0.2,0.2-0.3,0.4-0.5,0.6c-0.2,0.3-0.4,0.6-0.5,0.9c-0.1,0.4-0.2,0.8-0.2,1.1
	v0.3l-0.3-0.1c-0.4-0.1-0.8-0.2-1.1-0.2c-0.3,0-0.7,0-1,0.1c-0.2,0.1-0.5,0.1-0.8,0.2c-0.8,0.2-1.5,0.5-2.3,0.8
	c-0.7,0.3-1.5,0.5-2.3,0.6c-0.7,0-1.4-0.2-2-0.6c-0.7-0.5-1.2-1.2-1.5-2c-0.2-0.7-0.3-1.3-0.4-2c-0.1-0.7-0.1-1.3,0-2
	c0-0.4,0.1-0.8,0.1-1.2c0-0.2,0.3-0.4,0.3-0.6L25.2,35.5L25.2,35.5z M21.6,35.8c0,0.1,0.2-0.3,0.2-0.2c0,0.2,0.1,0.6,0.1,0.6
	c0.1,0.5,0.1,0.9,0.1,1.4c0,0.5,0,1-0.1,1.5c0,0.7-0.1,1.4-0.4,2c-0.3,0.8-0.8,1.5-1.5,2c-0.6,0.4-1.3,0.7-2,0.6
	c-0.8-0.1-1.6-0.3-2.3-0.6c-0.7-0.3-1.5-0.6-2.3-0.8c-0.3-0.1-0.5-0.1-0.8-0.2c-0.3-0.1-0.7-0.1-1-0.1c-0.4,0-0.8,0.1-1.1,0.2
	l-0.3,0.1v-0.3c0-0.4-0.1-0.8-0.2-1.1C10,40.6,9.9,40.3,9.6,40c-0.2-0.2-0.3-0.4-0.5-0.6c-0.5-0.7-1-1.3-1.5-1.8
	c-0.6-0.5-1-1.2-1.4-1.9c-0.3-0.6-0.3-1.4-0.1-2c0.2-0.8,0.7-1.5,1.3-2.1c0.6-0.4,1.2-0.8,1.8-1.1c0.5-0.2,1-0.4,1.4-0.6
	c0.4-0.2,0.8-0.3,1.3-0.4c0.3-0.1,1-0.2,1.3-0.2L13,29.6l0.4,0.1h-0.1c-0.3,0.1-1,0.2-1.2,0.2c-0.5,0.1-0.9,0.3-1.3,0.4
	c-0.4,0.1-0.8,0.3-1.3,0.6c-0.6,0.3-1.2,0.6-1.7,1c-0.6,0.5-1,1.1-1.2,1.9c-0.2,0.6-0.2,1.2,0.1,1.7C7,36.1,7.4,36.7,8,37.2
	c0.6,0.6,1.1,1.2,1.6,1.9c0.2,0.2,0.3,0.4,0.5,0.6c0.3,0.3,0.4,0.7,0.6,1.1c0.1,0.3,0.2,0.6,0.2,1c0.3-0.1,0.6-0.1,1-0.2
	c0.4,0,0.8,0,1.2,0.1c0.3,0.1,0.5,0.1,0.8,0.2c0.8,0.2,1.6,0.5,2.3,0.8c0.7,0.3,1.4,0.5,2.1,0.6c0.6,0,1.2-0.2,1.7-0.5
	c0.6-0.4,1.1-1.1,1.3-1.8c0.2-0.6,0.3-1.3,0.3-1.9c0-0.6,0.1-1,0.1-1.5c0-0.4,0-0.8-0.1-1.3c0-0.1-0.1-0.7-0.1-0.8
	c0-0.1,0-0.1,0-0.2l0.2,0L21.6,35.8L21.6,35.8z M6,29.9c-0.5,0-1.1-0.1-1.6-0.3c-0.8-0.3-1.6-0.8-2.2-1.4c-0.6-0.6-1.1-1.3-1.4-2.2
	c-0.3-0.9-0.4-1.8-0.3-2.8c0.1-0.8,0.2-1.3,0.3-1.8c0.1-0.7,0.2-1.4,0.2-2c0.2-0.9,0-1.8-0.6-2.4l-0.3-0.3l0.4-0.1
	c0.4-0.1,0.8-0.2,1.2-0.4c0.4-0.2,0.5-0.6,0.8-1C3,14.6,3.3,14,3.7,13.4c0.3-0.4,0.5-0.9,1-1.5c0.5-0.8,1.2-1.5,2-2
	c0.7-0.5,1.6-0.7,2.4-0.8c0.9,0,1.7,0.1,2.6,0.4c0.4,0.1,0.8,0.3,1.2,0.6c-0.1-0.4-0.1-0.8-0.1-1.2c0-0.9,0.2-1.7,0.5-2.6
	c0.3-0.8,0.9-1.5,1.6-2c0.7-0.6,1.6-1,2.5-1.2C18,2.9,18.5,2.8,19,2.7c0.7-0.1,1.3-0.3,2-0.5c0.5-0.2,0.9-0.4,1.2-0.7
	c0.3-0.3,0.6-0.6,0.8-1l0.2-0.3l0.2,0.3c0.2,0.4,0.5,0.7,0.8,1c0.4,0.3,0.8,0.6,1.2,0.7c0.7,0.2,1.3,0.4,2,0.5
	c0.5,0.1,1.1,0.2,1.8,0.4c0.9,0.2,1.8,0.6,2.5,1.2c0.7,0.5,1.2,1.2,1.6,2C33.8,7.1,34,8,34,8.9c0,0.4,0,0.8-0.1,1.2
	c0.3-0.2,0.7-0.4,1.1-0.5c0.8-0.3,1.7-0.4,2.6-0.4c0.9,0.1,1.7,0.3,2.4,0.8c0.8,0.5,1.5,1.2,2,2c0.4,0.6,0.7,1.1,1,1.5
	c0.3,0.6,0.7,1.2,1.1,1.7c0.3,0.4,0.4,0.8,0.8,1c0.4,0.2,0.8,0.4,1.2,0.4l0.4,0.1L46.2,17c-0.6,0.6-0.9,1.5-0.6,2.4
	c0,0.7,0.1,1.4,0.2,2c0.1,0.5,0.2,1.1,0.3,1.8c0.1,0.9,0,1.9-0.3,2.8c-0.3,0.8-0.7,1.6-1.4,2.2c-0.6,0.6-1.4,1.1-2.2,1.4
	c-0.5,0.2-1,0.3-1.6,0.3c0.3,0.3,0.6,0.6,0.8,1c0.5,0.8,0.9,1.7,1.1,2.7c0.2,0.8,0.1,1.7-0.1,2.6c-0.3,0.9-0.8,1.7-1.4,2.4
	c-0.5,0.6-0.9,1-1.3,1.3c-0.5,0.5-0.9,1-1.4,1.5c-0.3,0.4-0.5,0.8-0.7,1.2c-0.1,0.4-0.2,0.8-0.1,1.3l0,0.4l-0.4-0.2
	c-0.4-0.2-0.8-0.3-1.2-0.3c-0.5,0-0.9,0-1.4,0.2c-0.7,0.2-1.3,0.5-1.9,0.7c-0.5,0.2-1,0.4-1.7,0.7c-0.9,0.3-1.8,0.5-2.8,0.4
	c-0.9,0-1.7-0.3-2.4-0.8c-0.7-0.5-1.4-1.1-1.9-1.8c-0.2-0.3-0.4-0.7-0.6-1.1c-0.1,0.4-0.3,0.8-0.6,1.1c-0.5,0.7-1.2,1.3-1.9,1.8
	c-0.7,0.5-1.6,0.7-2.4,0.8c-0.9,0.1-1.9-0.1-2.8-0.4c-0.7-0.3-1.2-0.5-1.7-0.7c-0.6-0.3-1.3-0.5-1.9-0.7c-0.4-0.1-0.9-0.2-1.4-0.2
	c-0.4,0-0.8,0.2-1.2,0.3L9,44.3l0-0.4c0-0.4,0-0.9-0.1-1.3c-0.1-0.4-0.4-0.9-0.7-1.2c-0.4-0.5-0.9-1.1-1.4-1.5
	c-0.4-0.4-0.8-0.8-1.3-1.3C5,37.9,4.6,37,4.3,36.1C4,35.3,4,34.4,4.1,33.6c0.2-0.9,0.6-1.9,1.1-2.7C5.4,30.5,5.7,30.2,6,29.9L6,29.9
	z M16.8,15.8l-0.4-0.2l-1.4-2c-0.6-0.8-1.2-1.7-1.8-2.5L13.1,11c-0.5-0.5-1-0.9-1.7-1.1c-0.8-0.3-1.6-0.4-2.4-0.3
	c-0.8,0-1.5,0.3-2.2,0.7c-0.7,0.5-1.4,1.1-1.9,1.8c-0.4,0.6-0.7,1.1-0.9,1.5c-0.3,0.6-0.7,1.2-1.2,1.8c-0.2,0.4-0.6,0.8-1,1.1
	c-0.3,0.2-0.7,0.3-1,0.4c0.2,0.3,0.4,0.6,0.5,1c0.1,0.5,0.1,1,0,1.5c0,0.7-0.1,1.4-0.2,2.1C1.1,22,1,22.5,1,23.3
	c-0.1,0.9,0,1.8,0.3,2.6c0.2,0.7,0.7,1.4,1.2,2c0.6,0.6,1.3,1,2.1,1.3c0.6,0.3,1.3,0.3,2,0.2l0.3-0.1c1-0.4,2-0.6,3-0.9
	c0.9-0.3,1.8-0.5,2.6-0.8c0.2,0,0.2,0.1,0.4,0.1l0.1,0l0,0.2c-0.1,0-0.2,0.1-0.3,0.1c-0.9,0.3-1.8,0.6-2.7,0.8l-0.1,0h0
	c-1,0.3-1.9,0.6-2.9,0.9c-0.6,0.3-1.1,0.8-1.4,1.4c-0.5,0.8-0.8,1.7-1,2.6c-0.2,0.8-0.1,1.6,0.1,2.3c0.3,0.8,0.7,1.6,1.3,2.3
	c0.5,0.6,0.9,1,1.2,1.3c0.5,0.5,1,1,1.4,1.6c0.3,0.4,0.6,0.9,0.7,1.4c0.1,0.3,0.2,0.7,0.2,1.1c0.3-0.1,0.7-0.2,1.1-0.2
	c0.5,0,1,0,1.5,0.2c0.7,0.2,1.3,0.5,2,0.8c0.5,0.2,1,0.4,1.7,0.7c0.8,0.3,1.7,0.4,2.6,0.4c0.8,0,1.6-0.3,2.3-0.7
	c0.7-0.4,1.3-1,1.8-1.7c0.4-0.5,0.7-1.2,0.7-1.8c0-1.1,0-2.1,0-3.1c0-0.8,0-1.6,0-2.4c0-0.3,0.2-0.3,0.2-0.6l0.1,0.1
	c0,0.3,0.2,0.2,0.2,0.5c0,0.8,0,1.5,0,2.3c0,1,0,2,0,3.1c0.1,0.7,0.3,1.3,0.7,1.8c0.5,0.7,1.1,1.2,1.8,1.7c0.7,0.4,1.4,0.7,2.2,0.7
	c0.9,0.1,1.7-0.1,2.6-0.4c0.7-0.3,1.2-0.5,1.7-0.7c0.6-0.3,1.3-0.5,2-0.8c0.5-0.2,1-0.2,1.5-0.2c0.4,0,0.7,0.1,1.1,0.2
	c0-0.4,0.1-0.7,0.2-1.1c0.2-0.5,0.4-1,0.7-1.4c0.4-0.6,0.9-1.1,1.4-1.6c0.4-0.4,0.8-0.8,1.2-1.3c0.6-0.7,1-1.4,1.3-2.3
	c0.2-0.7,0.3-1.5,0.2-2.3c-0.2-0.9-0.5-1.8-1-2.6c-0.3-0.6-0.8-1.1-1.4-1.4c-0.9-0.3-1.8-0.5-2.7-0.8h-0.1l-0.1,0
	c-0.9-0.3-2.2-0.6-3.2-1l0.1-0.1c0.4,0.1,0.6-0.2,0.6-0.2c0.9,0.3,1.9,0.6,2.7,0.8c0.9,0.2,1.8,0.5,2.8,0.8l0.3,0.1
	c0.7,0.1,1.4,0,2-0.3c0.8-0.3,1.5-0.7,2.1-1.3c0.6-0.5,1-1.2,1.2-2c0.3-0.8,0.4-1.7,0.3-2.6c-0.1-0.7-0.2-1.3-0.3-1.8
	c-0.1-0.7-0.2-1.4-0.2-2.1c-0.1-0.5-0.1-1,0-1.5c0.1-0.3,0.3-0.7,0.5-1c-0.3-0.1-0.7-0.2-1-0.4c-0.4-0.3-0.6-0.7-0.9-1.1
	c-0.4-0.6-0.8-1.1-1.2-1.8c-0.3-0.4-0.5-0.9-0.9-1.5c-0.5-0.7-1.1-1.4-1.9-1.8c-0.7-0.4-1.4-0.7-2.2-0.7c-0.8,0-1.6,0.1-2.4,0.3
	c-0.6,0.2-1.1,0.5-1.6,1L33.5,11l-3.2,4.5l-0.4,0.3l-0.3,0.3l0.1-0.3c0.1-0.2,0-0.3,0.1-0.5c0.5-0.7,1-1.4,1.5-2
	c0.6-0.9,1.3-1.8,1.9-2.7l0.1-0.1c0.2-0.6,0.4-1.2,0.3-1.8c0-0.8-0.2-1.6-0.5-2.4c-0.3-0.7-0.8-1.4-1.4-1.8
	c-0.7-0.5-1.5-0.9-2.3-1.1c-0.7-0.2-1.3-0.3-1.8-0.4c-0.7-0.1-1.4-0.3-2-0.5c-0.5-0.2-1-0.5-1.4-0.8c-0.3-0.2-0.5-0.5-0.7-0.8
	c-0.2,0.3-0.5,0.6-0.7,0.8c-0.4,0.4-0.9,0.6-1.4,0.8c-0.7,0.2-1.4,0.4-2,0.5c-0.5,0.1-1,0.2-1.8,0.4c-0.9,0.2-1.6,0.6-2.3,1.1
	c-0.6,0.5-1.1,1.1-1.4,1.8c-0.3,0.8-0.5,1.6-0.5,2.4c0,0.7,0.1,1.3,0.4,1.9l0,0.1l1.7,2.4l0.1,0.1c0.5,0.6,0.9,1.3,1.4,1.9
	c0,0,0.1,0.5,0.2,0.6L16.8,15.8L16.8,15.8z M15.5,16.9c0-0.1-0.4-0.1-0.4-0.2c-0.1-0.3-0.3-0.6-0.4-0.8c-0.3-0.4-0.5-0.8-0.7-1.1
	c-0.2-0.4-0.5-0.7-0.9-1.1c-0.4-0.5-0.9-1-1.4-1.4c-0.6-0.4-1.4-0.6-2.1-0.7c-0.6,0-1.2,0.1-1.7,0.5c-0.6,0.5-1,1-1.4,1.7
	c-0.4,0.7-0.9,1.4-1.4,2c-0.2,0.2-0.3,0.4-0.5,0.6C4.3,16.7,4,17,3.7,17.2c-0.3,0.2-0.6,0.3-0.9,0.4c0.2,0.3,0.3,0.6,0.4,0.9
	c0.1,0.4,0.2,0.8,0.2,1.2c0,0.3,0,0.5,0,0.8c0,0.8-0.1,1.7-0.2,2.5c-0.1,0.7-0.1,1.5,0,2.2c0.1,0.6,0.5,1.1,0.9,1.5
	c0.6,0.5,1.3,0.8,2,0.8c0.7,0,1.3,0,2-0.2c0.6-0.1,1-0.2,1.4-0.3c0.4-0.1,0.8-0.3,1.3-0.4c0.3-0.1,0.6-0.3,0.9-0.4
	c0.2-0.1,0.6-0.3,0.8-0.4l0.1,0.2l-0.5,0.3c-0.1,0.1,0.3,0.1,0.1,0.1l-0.2,0.1c-0.3,0.1-0.6,0.3-1,0.4c-0.5,0.2-0.9,0.3-1.3,0.4
	c-0.5,0.1-1,0.2-1.5,0.3c-0.7,0.2-1.4,0.2-2.1,0.2c-0.8-0.1-1.6-0.4-2.3-0.9c-0.6-0.4-1-1-1.1-1.7c-0.2-0.8-0.2-1.6,0-2.4
	c0.1-0.8,0.2-1.6,0.2-2.4c0-0.3,0-0.5,0-0.8c0-0.3,0-0.7-0.1-1c-0.1-0.4-0.3-0.7-0.5-1l-0.2-0.3l0.3-0.1c0.4-0.1,0.7-0.3,1.1-0.5
	c0.3-0.2,0.6-0.4,0.8-0.7c0.2-0.2,0.3-0.4,0.5-0.6c0.5-0.6,1-1.3,1.4-2c0.4-0.7,0.9-1.3,1.5-1.8c0.6-0.4,1.3-0.7,2-0.6
	c0.8,0,1.7,0.3,2.3,0.7c0.6,0.4,1.1,0.9,1.5,1.5c0.4,0.4,0.7,0.8,0.9,1.2s0.5,0.7,0.7,1.2c0.2,0.3,0.3,0.6,0.4,0.9l0.1,0.2
	L15.5,16.9L15.5,16.9z M28,14.9c0.1-0.1,0-0.1,0.1-0.2c0.1-0.1,0.8-0.8,0.8-0.9c0.3-0.4,0.6-0.7,0.8-1.1c0.3-0.3,0.5-0.7,0.8-1.2
	c0.4-0.6,0.6-1.2,0.8-1.8c0.2-0.7,0.2-1.5-0.1-2.2c-0.2-0.6-0.6-1.1-1.1-1.4c-0.6-0.4-1.3-0.6-2-0.7c-0.8-0.2-1.6-0.4-2.4-0.7
	l-0.7-0.2C24.7,4.4,24.3,4.2,24,4c-0.3-0.2-0.5-0.4-0.7-0.7c-0.2,0.3-0.4,0.5-0.7,0.7c-0.3,0.2-0.7,0.4-1.1,0.6l-0.7,0.2
	c-0.8,0.3-1.6,0.5-2.4,0.7c-0.7,0.1-1.4,0.4-2,0.7c-0.5,0.3-0.9,0.8-1.1,1.4C15,8.3,15,9,15.2,9.8c0.2,0.6,0.5,1.2,0.8,1.8
	c0.3,0.5,0.5,0.9,0.8,1.2c0.3,0.3,0.5,0.7,0.8,1.1c0.1,0.2,0.3,0.3,0.4,0.5c0.1,0.1-0.1,0.2,0,0.2l0,0L18,14.9l0,0
	c-0.2-0.2-0.5-0.4-0.7-0.7c-0.3-0.4-0.6-0.7-0.9-1.1c-0.3-0.4-0.5-0.8-0.8-1.3c-0.4-0.6-0.7-1.2-0.9-1.9c-0.2-0.8-0.2-1.7,0.1-2.5
	c0.2-0.7,0.7-1.3,1.3-1.6c0.7-0.4,1.4-0.7,2.2-0.8c0.8-0.2,1.6-0.4,2.3-0.6c0.3-0.1,0.5-0.2,0.8-0.3C21.7,4,22,3.8,22.3,3.6
	c0.3-0.2,0.6-0.5,0.8-0.8l0.2-0.3l0.2,0.3c0.2,0.3,0.5,0.6,0.8,0.8c0.3,0.2,0.6,0.4,0.9,0.5c0.3,0.1,0.5,0.2,0.8,0.3
	c0.8,0.3,1.5,0.5,2.3,0.6c0.8,0.1,1.5,0.4,2.2,0.8c0.6,0.4,1,1,1.3,1.6C32,8.2,32,9.1,31.8,9.9c-0.2,0.7-0.5,1.3-0.9,1.9
	c-0.3,0.5-0.5,0.9-0.8,1.3c-0.3,0.4-0.5,0.7-0.9,1.1c-0.1,0.1-0.1,0.1-0.2,0.2l-0.3,0.4c-0.2,0.2,0-0.4,0-0.3L28,14.9L28,14.9z"/>
<path class="st0" d="M36.3,9.2c0.3-1.1,0.5-2.2,0.4-3.4c-1.1,0.3-2.1,0.8-2.9,1.4l-0.1-0.5c1-0.7,2.1-1.2,3.2-1.5l0.3-0.1l0,0.3
	c0.2,1.2,0.1,2.5-0.3,3.7L36.3,9.2z"/>
<path class="st1" d="M36.3,9.2c0.3-1.1,0.5-2.2,0.4-3.4c-1.1,0.3-2.1,0.8-2.9,1.4l-0.1-0.5c1-0.7,2.1-1.2,3.2-1.5l0.3-0.1l0,0.3
	c0.2,1.2,0.1,2.5-0.3,3.7L36.3,9.2z"/>
<path class="st0" d="M41.9,32.2c1.1,0,2.3-0.2,3.3-0.7c-0.6-0.9-1.4-1.7-2.3-2.4l0.4-0.3c1,0.7,1.8,1.6,2.4,2.6l0.1,0.2l-0.2,0.1
	c-1.1,0.5-2.3,0.8-3.6,0.8L41.9,32.2L41.9,32.2z"/>
<path class="st1" d="M41.9,32.2c1.1,0,2.3-0.2,3.3-0.7c-0.6-0.9-1.4-1.7-2.3-2.4l0.4-0.3c1,0.7,1.8,1.6,2.4,2.6l0.1,0.2l-0.2,0.1
	c-1.1,0.5-2.3,0.8-3.6,0.8L41.9,32.2L41.9,32.2z"/>
<path class="st0" d="M21.7,44.4c0.3,1.1,0.9,2.1,1.6,3c0.7-0.9,1.3-1.9,1.6-3l0.4,0.3c-0.4,1.2-1,2.3-1.9,3.2l-0.2,0.2L23.1,48
	c-0.8-0.9-1.5-2-1.8-3.2L21.7,44.4z"/>
<path class="st1" d="M21.7,44.4c0.3,1.1,0.9,2.1,1.6,3c0.7-0.9,1.3-1.9,1.6-3l0.4,0.3c-0.4,1.2-1,2.3-1.9,3.2l-0.2,0.2L23.1,48
	c-0.8-0.9-1.5-2-1.8-3.2L21.7,44.4z"/>
<path class="st0" d="M3.8,29.2c-1,0.6-1.8,1.4-2.4,2.3c1,0.4,2.1,0.7,3.2,0.8l-0.2,0.5c-1.2-0.1-2.4-0.4-3.4-0.9l-0.2-0.1l0.1-0.2
	c0.7-1,1.5-1.9,2.6-2.6L3.8,29.2L3.8,29.2z"/>
<path class="st1" d="M3.8,29.2c-1,0.6-1.8,1.4-2.4,2.3c1,0.4,2.1,0.7,3.2,0.8l-0.2,0.5c-1.2-0.1-2.4-0.4-3.4-0.9l-0.2-0.1l0.1-0.2
	c0.7-1,1.5-1.9,2.6-2.6L3.8,29.2L3.8,29.2z"/>
<path class="st0" d="M12.8,7.5C12,6.8,11,6.2,9.9,5.8C9.8,7,9.8,8.1,10.1,9.1l-0.5,0C9.3,7.9,9.3,6.7,9.5,5.5l0-0.3l0.3,0.1
	C11,5.6,12.1,6.2,13,7.1L12.8,7.5z"/>
<path class="st1" d="M12.8,7.5C12,6.8,11,6.2,9.9,5.8C9.8,7,9.8,8.1,10.1,9.1l-0.5,0C9.3,7.9,9.3,6.7,9.5,5.5l0-0.3l0.3,0.1
	C11,5.6,12.1,6.2,13,7.1L12.8,7.5z"/>
<path class="st2" d="M23.3,23.3c0.5,0,1,0.3,1.2,0.8c0.2,0.5,0.1,1-0.3,1.4c-0.4,0.4-0.9,0.5-1.4,0.3C22.3,25.5,22,25,22,24.5
	C22,23.8,22.6,23.3,23.3,23.3L23.3,23.3z M23.3,23.6c0.5,0,0.9,0.4,0.9,0.9s-0.4,0.9-0.9,0.9c-0.5,0-0.9-0.4-0.9-0.9
	S22.8,23.6,23.3,23.6z"/>
<path class="st1" d="M23.3,23.3c0.5,0,1,0.3,1.2,0.8c0.2,0.5,0.1,1-0.3,1.4c-0.4,0.4-0.9,0.5-1.4,0.3C22.3,25.5,22,25,22,24.5
	C22,23.8,22.6,23.3,23.3,23.3L23.3,23.3z M23.3,23.6c0.5,0,0.9,0.4,0.9,0.9s-0.4,0.9-0.9,0.9c-0.5,0-0.9-0.4-0.9-0.9
	S22.8,23.6,23.3,23.6z"/>
<path class="st2" d="M23.3,21.7c1.6,0,2.8,1.3,2.8,2.8c0,1.6-1.3,2.8-2.8,2.8s-2.8-1.3-2.8-2.8C20.5,23,21.7,21.7,23.3,21.7
	L23.3,21.7z M23.3,22.1c1.3,0,2.4,1.1,2.4,2.4s-1.1,2.4-2.4,2.4c-1.3,0-2.4-1.1-2.4-2.4C20.9,23.2,22,22.1,23.3,22.1z"/>
<path class="st1" d="M23.3,21.7c1.6,0,2.8,1.3,2.8,2.8c0,1.6-1.3,2.8-2.8,2.8s-2.8-1.3-2.8-2.8C20.5,23,21.7,21.7,23.3,21.7
	L23.3,21.7z M23.3,22.1c1.3,0,2.4,1.1,2.4,2.4s-1.1,2.4-2.4,2.4c-1.3,0-2.4-1.1-2.4-2.4C20.9,23.2,22,22.1,23.3,22.1z"/>
<path class="st2" d="M23.3,20.8c1.5,0,2.9,0.9,3.5,2.3c0.6,1.4,0.3,3-0.8,4.1c-1.1,1.1-2.7,1.4-4.1,0.8c-1.4-0.6-2.3-2-2.3-3.5
	C19.5,22.4,21.2,20.8,23.3,20.8L23.3,20.8z M23.3,21c1.9,0,3.5,1.6,3.5,3.5c0,1.9-1.6,3.5-3.5,3.5c-1.9,0-3.5-1.6-3.5-3.5
	C19.8,22.6,21.4,21,23.3,21z"/>
<path class="st1" d="M23.3,20.8c1.5,0,2.9,0.9,3.5,2.3c0.6,1.4,0.3,3-0.8,4.1c-1.1,1.1-2.7,1.4-4.1,0.8c-1.4-0.6-2.3-2-2.3-3.5
	C19.5,22.4,21.2,20.8,23.3,20.8L23.3,20.8z M23.3,21c1.9,0,3.5,1.6,3.5,3.5c0,1.9-1.6,3.5-3.5,3.5c-1.9,0-3.5-1.6-3.5-3.5
	C19.8,22.6,21.4,21,23.3,21z"/>
<path class="st0" d="M30.5,17.3c-3.4-3.5-8.9-4-12.9-1.3c-4.1,2.7-5.6,7.9-3.8,12.4c1.9,4.5,6.7,7.1,11.5,6.1
	c4.8-1,8.2-5.2,8.2-10.1C33.5,21.8,32.4,19.2,30.5,17.3L30.5,17.3z M12.7,25.1c0-0.1,0-0.3,0-0.4c-0.2,0-0.4,0.1-0.6,0.1
	c-0.1,0-0.3,0.1-0.4,0.1c0.1,0,0.3,0.1,0.4,0.1C12.4,25.1,12.6,25.1,12.7,25.1L12.7,25.1z M12.8,25.7c0-0.1,0-0.2,0-0.4
	c-0.1,0-0.3,0.1-0.4,0.1c-0.1,0.1-0.2,0.1-0.3,0.1c0.1,0,0.2,0,0.3,0.1C12.5,25.7,12.7,25.7,12.8,25.7L12.8,25.7z M12.9,26.3l0-0.3
	c-0.1,0-0.2,0.1-0.3,0.1c-0.1,0-0.2,0.1-0.2,0.1c0.1,0,0.2,0,0.3,0C12.7,26.4,12.8,26.4,12.9,26.3L12.9,26.3z M13,27
	c0-0.1,0-0.2-0.1-0.3c-0.1,0-0.2,0.1-0.3,0.1c-0.1,0-0.2,0.1-0.2,0.2c0.1,0,0.2,0,0.3,0C12.8,27,12.9,27,13,27L13,27z M13.2,27.6
	l-0.1-0.3c-0.1,0-0.2,0.1-0.2,0.1c-0.1,0-0.1,0.1-0.2,0.2c0.1,0,0.2,0.1,0.3,0.1C13,27.6,13.1,27.6,13.2,27.6L13.2,27.6z M13.4,28.2
	c0-0.1-0.1-0.2-0.1-0.4c-0.1,0-0.1,0.1-0.2,0.1c-0.1,0.1-0.1,0.1-0.2,0.2c0.1,0,0.2,0,0.3,0.1C13.2,28.2,13.3,28.2,13.4,28.2
	L13.4,28.2z M13.6,28.8l-0.1-0.3c-0.1,0.1-0.2,0.1-0.3,0.2c-0.1,0.1-0.1,0.1-0.2,0.2c0.1,0,0.2,0,0.3,0
	C13.4,28.8,13.5,28.8,13.6,28.8L13.6,28.8z M13.9,29.4c-0.1-0.1-0.1-0.3-0.2-0.4c-0.1,0.1-0.2,0.1-0.3,0.2c-0.1,0.1-0.2,0.2-0.2,0.3
	c0.1,0,0.3,0,0.4,0C13.7,29.5,13.8,29.5,13.9,29.4L13.9,29.4z M14.2,29.9c-0.1-0.1-0.1-0.2-0.1-0.3c-0.1,0.1-0.3,0.2-0.4,0.3
	c-0.1,0.1-0.2,0.2-0.3,0.3c0.1,0,0.2,0,0.3-0.1C13.9,30.1,14,30.1,14.2,29.9L14.2,29.9z M14.6,30.5l-0.2-0.3l-0.1,0.1
	c-0.2,0.1-0.3,0.2-0.4,0.3c-0.1,0.1-0.2,0.3-0.3,0.4c0.2,0,0.3-0.1,0.5-0.1C14.2,30.7,14.4,30.6,14.6,30.5L14.6,30.5z M15,31
	l-0.2-0.3c-0.2,0.2-0.4,0.3-0.6,0.5c-0.2,0.1-0.3,0.3-0.4,0.5c0.2-0.1,0.4-0.1,0.6-0.2c0.2-0.1,0.3-0.2,0.5-0.3L15,31L15,31z
	 M15.3,31.4c-0.1-0.1-0.1-0.1-0.2-0.2l-0.2,0.2c-0.2,0.2-0.4,0.4-0.6,0.6c-0.2,0.2-0.4,0.4-0.6,0.7l0.2,0c0.1,0,0.3-0.1,0.4-0.2
	C14.6,32.1,14.9,31.7,15.3,31.4z M15.7,31.9c-0.1-0.1-0.2-0.2-0.3-0.3c-0.4,0.3-0.8,0.7-1.1,1c-0.3,0.3-0.6,0.6-0.8,1
	c0.1,0,0.2,0,0.2-0.1c0.2,0,0.4-0.1,0.5-0.2C14.7,32.8,15.2,32.4,15.7,31.9L15.7,31.9z M14.7,34.3c0.2-0.2,0.5-0.5,0.8-0.7
	c0.3-0.3,0.7-0.6,1-0.9c-0.2-0.2-0.4-0.3-0.6-0.5c-0.6,0.5-1.1,0.9-1.6,1.5c-0.4,0.4-0.8,1-1,1.5c0.2-0.1,0.4-0.2,0.6-0.3
	C14.3,34.7,14.5,34.5,14.7,34.3L14.7,34.3z M12.8,23.3c-0.4,0-0.7,0-1.1,0c-0.3,0-0.6,0.1-0.9,0.2c0.3,0.1,0.6,0.2,0.9,0.2
	c0.3,0,0.7,0,1,0C12.8,23.6,12.8,23.5,12.8,23.3L12.8,23.3z M12.8,24c-0.3,0-0.6,0-0.9,0c-0.1,0-0.3,0.1-0.4,0.1l-0.2,0.1
	c0.2,0.1,0.5,0.1,0.7,0.2c0.2,0,0.5,0.1,0.7,0.1C12.7,24.3,12.7,24.1,12.8,24L12.8,24z M13.4,20.7c-0.4-0.2-0.9-0.4-1.3-0.6
	c-0.9-0.5-1.9-0.9-2.9-1.2c-0.8-0.1-1.6-0.2-2.5-0.1c-0.3,0-0.6,0-0.9,0.1c0.2,0.2,0.5,0.4,0.7,0.5c0.6,0.5,1.3,1,2,1.3
	c1,0.4,2,0.6,3.1,0.7c0.5,0.1,0.9,0.1,1.4,0.2C13.2,21.4,13.3,21.1,13.4,20.7L13.4,20.7z M12.9,22.9c-0.7-0.1-1.4-0.2-2-0.3
	c-0.1,0-0.3,0-0.4,0.1l-0.2,0.1c0.6,0.2,1.3,0.3,2,0.3c0.2,0,0.4,0,0.6,0L12.9,22.9L12.9,22.9z M10.7,21.6c-0.3,0-0.6-0.1-1,0
	c-0.2,0-0.4,0.1-0.7,0.1c0.5,0.3,1.1,0.6,1.7,0.7c0.7,0.2,1.4,0.3,2.2,0.3c0-0.2,0.1-0.5,0.1-0.7c-0.5-0.1-0.9-0.2-1.4-0.2
	L10.7,21.6L10.7,21.6z M13.8,19.8c-0.6-0.4-1.3-0.7-2-1c-0.6-0.2-1.2-0.4-1.8-0.4c0.1,0.2,0.3,0.3,0.5,0.5c0.3,0.2,0.5,0.4,0.8,0.5
	c0.3,0.1,0.6,0.3,0.9,0.5c0.4,0.2,0.8,0.4,1.3,0.6C13.6,20.3,13.7,20,13.8,19.8L13.8,19.8z M14.1,19.3c-0.4-0.2-0.7-0.5-1.1-0.6
	c-0.4-0.2-0.8-0.3-1.1-0.4l0.1,0.2c0.1,0.1,0.2,0.3,0.4,0.4c0.5,0.2,1,0.5,1.6,0.8C14,19.5,14.1,19.4,14.1,19.3L14.1,19.3z
	 M14.5,18.7L14.5,18.7c-0.6-0.4-1.1-0.6-1.6-0.9c0,0.1,0.1,0.2,0.1,0.2c0.1,0.2,0.3,0.3,0.4,0.5c0.3,0.2,0.6,0.3,0.8,0.5
	C14.3,19,14.4,18.8,14.5,18.7L14.5,18.7z M14.9,18.2c-0.2-0.2-0.4-0.3-0.6-0.4c-0.2-0.1-0.3-0.2-0.5-0.2c0.1,0.2,0.2,0.3,0.3,0.5
	c0.2,0.2,0.3,0.4,0.5,0.5C14.7,18.4,14.8,18.3,14.9,18.2L14.9,18.2z M15.3,17.7c-0.1-0.1-0.3-0.2-0.4-0.3c-0.1-0.1-0.3-0.1-0.4-0.2
	c0.1,0.1,0.1,0.2,0.2,0.3c0.1,0.2,0.3,0.3,0.4,0.4L15.3,17.7z M15.7,17.2c-0.1-0.1-0.2-0.2-0.3-0.3c-0.1-0.1-0.2-0.1-0.3-0.2
	c0,0.1,0.1,0.2,0.2,0.3c0.1,0.1,0.1,0.2,0.2,0.3C15.5,17.4,15.6,17.3,15.7,17.2z M16.1,16.8c-0.1-0.1-0.2-0.1-0.3-0.2
	c-0.1-0.1-0.2-0.1-0.3-0.1c0,0.1,0.1,0.2,0.1,0.3c0.1,0.1,0.1,0.2,0.2,0.3L16.1,16.8L16.1,16.8z M16.5,16.5
	c-0.1-0.1-0.1-0.1-0.2-0.2c-0.1-0.1-0.2-0.1-0.2-0.1c0,0.1,0.1,0.2,0.1,0.3c0,0.1,0.1,0.2,0.2,0.2L16.5,16.5L16.5,16.5z M16.9,16.1
	l-0.2-0.2l-0.1-0.1c0,0.1,0,0.1,0,0.2c0,0.1,0.1,0.2,0.1,0.3L16.9,16.1z M17.4,15.8c-0.1-0.2-0.3-0.3-0.4-0.4c0,0.1,0,0.2,0.1,0.3
	c0,0.1,0.1,0.2,0.2,0.3L17.4,15.8z M17.8,15.5c-0.1-0.1-0.2-0.3-0.4-0.4c0,0.2,0.1,0.3,0.2,0.5L17.8,15.5z M18.2,15.3
	c-0.1-0.2-0.2-0.3-0.4-0.4c0,0.1,0,0.2,0.1,0.3c0,0.1,0.1,0.2,0.1,0.3L18.2,15.3L18.2,15.3z M18.7,15c-0.1-0.1-0.2-0.2-0.2-0.3
	c-0.1-0.1-0.2-0.2-0.3-0.2c0,0.1,0,0.2,0.1,0.3c0,0.1,0.1,0.2,0.1,0.4C18.6,15.1,18.7,15,18.7,15z M19.3,14.7
	c-0.1-0.2-0.3-0.5-0.5-0.7c0,0.1,0,0.2,0.1,0.4c0,0.2,0.1,0.3,0.2,0.5L19.3,14.7L19.3,14.7z M20,14.5c-0.1-0.2-0.2-0.4-0.4-0.6
	c-0.1-0.2-0.3-0.3-0.4-0.4c0,0.2,0,0.4,0.1,0.6c0.1,0.2,0.1,0.4,0.2,0.6L20,14.5L20,14.5z M20.7,14.3c-0.1-0.3-0.2-0.6-0.3-0.9
	c-0.1-0.2-0.3-0.5-0.5-0.7c0,0.3,0,0.6,0.1,0.8c0.1,0.3,0.1,0.6,0.3,0.8L20.7,14.3z M21.3,13.1c-0.1-0.3-0.2-0.7-0.3-1
	c-0.1-0.2-0.2-0.4-0.3-0.6c-0.1,0.2-0.1,0.5-0.1,0.8c0,0.3,0,0.7,0,1c0.1,0.3,0.2,0.6,0.3,0.9c0.2,0,0.4-0.1,0.6-0.1
	C21.4,13.8,21.3,13.5,21.3,13.1L21.3,13.1z M23.8,14c0.1-0.5,0.1-1,0.2-1.4c0.2-1,0.3-2.1,0.2-3.2c-0.1-0.8-0.3-1.6-0.7-2.4
	c-0.1-0.3-0.2-0.6-0.3-0.8C23.1,6.4,23,6.7,22.9,7c-0.3,0.7-0.6,1.5-0.7,2.4c0,1.1,0.1,2.1,0.3,3.2c0.1,0.5,0.2,1,0.2,1.4h0.5
	C23.4,13.9,23.6,13.9,23.8,14L23.8,14z M22.5,14c-0.1-0.5-0.1-0.9-0.2-1.4c-0.1-0.3-0.1-0.7-0.2-1c-0.1-0.3-0.1-0.6-0.3-0.9
	c-0.1-0.2-0.2-0.4-0.3-0.6c-0.2,0.6-0.2,1.2-0.2,1.8c0.1,0.7,0.2,1.5,0.4,2.2C22,14,22.2,14,22.5,14L22.5,14z M24.7,14
	c0.2-0.7,0.3-1.5,0.3-2.2c0.1-0.6,0-1.2-0.2-1.8c-0.1,0.2-0.2,0.4-0.3,0.6c-0.1,0.3-0.2,0.6-0.3,0.9c0,0.3-0.1,0.7-0.1,1
	c-0.1,0.5-0.1,0.9-0.2,1.4C24.3,14,24.5,14,24.7,14L24.7,14z M26.1,14.3c0-0.1,0-0.1,0.1-0.2c0.1-0.3,0.1-0.5,0.1-0.8
	c0-0.3,0.1-0.5,0.1-0.8c-0.2,0.2-0.3,0.4-0.4,0.7c-0.1,0.3-0.2,0.7-0.3,1.1L26.1,14.3z M26.7,14.5c0.1-0.2,0.1-0.5,0.2-0.7
	c0-0.2,0-0.4,0-0.6c-0.1,0.2-0.3,0.4-0.3,0.6c-0.1,0.1-0.1,0.3-0.1,0.5c0,0.1,0,0.2-0.1,0.2L26.7,14.5L26.7,14.5z M27.3,14.7
	c0.1-0.3,0.2-0.6,0.3-0.9c-0.1,0.1-0.2,0.2-0.3,0.3c-0.1,0.1-0.2,0.3-0.3,0.4L27.3,14.7z M27.8,15c0.1-0.1,0.1-0.3,0.1-0.4
	c0-0.1,0-0.3,0.1-0.4c-0.1,0.1-0.2,0.2-0.2,0.2c-0.1,0.1-0.2,0.3-0.3,0.4L27.8,15z M28.4,15.3c0.1-0.2,0.1-0.4,0.2-0.7
	c-0.1,0.1-0.2,0.1-0.2,0.2c-0.1,0.1-0.2,0.2-0.3,0.3L28.4,15.3z M28.9,15.6c0-0.1,0.1-0.2,0.1-0.3c0-0.1,0-0.2,0-0.3
	c-0.1,0.1-0.1,0.1-0.2,0.2c-0.1,0.1-0.1,0.2-0.2,0.2C28.7,15.5,28.8,15.5,28.9,15.6z M29.4,15.9c0.1-0.2,0.1-0.4,0.1-0.5
	c-0.1,0-0.1,0.1-0.2,0.2c-0.1,0.1-0.1,0.1-0.2,0.2L29.4,15.9z M29.9,16.3c0.1-0.1,0.1-0.3,0.2-0.5l-0.1,0.1
	c-0.1,0.1-0.2,0.1-0.2,0.2L29.9,16.3z M30.3,16.7c0.1-0.2,0.2-0.3,0.3-0.5c-0.1,0-0.1,0.1-0.2,0.1c-0.1,0.1-0.2,0.1-0.3,0.2
	L30.3,16.7L30.3,16.7z M30.7,17c0.1-0.1,0.1-0.2,0.2-0.3c0-0.1,0.1-0.2,0.1-0.2c-0.1,0-0.2,0.1-0.3,0.1c-0.1,0.1-0.2,0.1-0.3,0.2
	L30.7,17L30.7,17z M31.2,17.5c0.1-0.1,0.2-0.2,0.3-0.3c0.1-0.1,0.1-0.2,0.2-0.4c-0.1,0-0.2,0.1-0.3,0.1c-0.1,0.1-0.2,0.2-0.3,0.3
	C31,17.3,31.1,17.4,31.2,17.5z M31.6,18c0.3-0.2,0.5-0.5,0.6-0.8c-0.1,0.1-0.3,0.1-0.4,0.2c-0.2,0.1-0.3,0.2-0.4,0.3
	C31.4,17.8,31.5,17.9,31.6,18z M32,18.6L32,18.6c0.4-0.3,0.7-0.7,1-1.1c-0.2,0.1-0.3,0.2-0.5,0.2c-0.3,0.1-0.5,0.3-0.7,0.5
	C31.8,18.3,31.9,18.4,32,18.6L32,18.6z M32.4,19.2c0.3-0.2,0.5-0.5,0.8-0.7c0.2-0.2,0.4-0.4,0.5-0.7c-0.3,0.1-0.5,0.2-0.7,0.3
	c-0.3,0.2-0.6,0.4-0.9,0.6C32.2,18.9,32.3,19.1,32.4,19.2L32.4,19.2z M25.5,14.2c0-0.3,0.1-0.5,0.2-0.8c0-0.3,0-0.7,0-1
	c0-0.3,0-0.5,0-0.8c0,0-0.1,0.1-0.1,0.1c-0.1,0.2-0.2,0.3-0.2,0.5c-0.1,0.6-0.2,1.2-0.3,1.9L25.5,14.2L25.5,14.2z M32.6,19.6
	c0.6-0.3,1.1-0.6,1.7-0.8c0.1-0.1,0.3-0.2,0.4-0.4c0.1-0.1,0.1-0.2,0.1-0.2c-0.2,0.1-0.4,0.1-0.6,0.2c-0.3,0.1-0.6,0.3-0.8,0.4
	c-0.2,0.2-0.5,0.5-0.8,0.7C32.6,19.5,32.6,19.5,32.6,19.6L32.6,19.6z M33.4,21.8c0.4-0.1,0.9-0.2,1.3-0.2c1.1-0.1,2.1-0.4,3.1-0.7
	c0.7-0.4,1.4-0.8,2-1.3c0.2-0.2,0.5-0.4,0.7-0.5c-0.3,0-0.6,0-0.9-0.1c-0.8-0.1-1.7-0.1-2.5,0.1c-1,0.3-2,0.7-2.9,1.2
	c-0.4,0.2-0.8,0.4-1.2,0.6C33.3,21.1,33.4,21.4,33.4,21.8L33.4,21.8z M33,20.5c0.4-0.2,0.8-0.4,1.2-0.6c0.3-0.2,0.6-0.3,0.9-0.5
	c0.3-0.1,0.6-0.3,0.8-0.5c0.2-0.1,0.3-0.3,0.5-0.5c-0.6,0-1.2,0.2-1.8,0.4c-0.7,0.3-1.3,0.6-1.9,1C32.8,20,32.9,20.3,33,20.5z
	 M33.6,22.7c0.7-0.1,1.4-0.2,2.1-0.3c0.6-0.1,1.2-0.4,1.7-0.7c-0.2-0.1-0.4-0.1-0.7-0.1c-0.3,0-0.6,0-1,0l-1,0.2
	c-0.4,0.1-0.9,0.1-1.3,0.2C33.5,22.2,33.6,22.5,33.6,22.7L33.6,22.7z M33.7,23.3H34c0.8,0,1.5-0.2,2.2-0.4L36,22.9
	c-0.2-0.1-0.5-0.1-0.7-0.2c-0.5,0.1-1.1,0.2-1.6,0.2C33.7,23.1,33.7,23.2,33.7,23.3L33.7,23.3z M33.8,24L33.8,24
	c0.7,0,1.3-0.1,1.9-0.2c-0.2-0.1-0.5-0.1-0.7-0.1c-0.4,0-0.8,0-1.2,0C33.8,23.7,33.8,23.9,33.8,24L33.8,24z M33.8,24.6
	c0.3,0,0.5,0,0.8,0c0.2,0,0.4,0,0.6-0.1c-0.4-0.2-0.9-0.3-1.4-0.3V24.6L33.8,24.6z M33.8,25.2c0.2,0,0.4,0,0.6,0c0.1,0,0.3,0,0.4,0
	c-0.1-0.1-0.3-0.1-0.4-0.1c-0.2-0.1-0.4-0.1-0.6-0.1L33.8,25.2L33.8,25.2z M33.7,25.8c0.2,0,0.3,0,0.5,0.1c0.1,0,0.3,0,0.4,0
	c-0.1-0.1-0.2-0.2-0.3-0.2c-0.2-0.1-0.3-0.1-0.5-0.2C33.8,25.6,33.8,25.7,33.7,25.8L33.7,25.8z M33.6,26.4c0.1,0,0.3,0,0.4,0
	c0.1,0,0.2,0,0.3,0c-0.1,0-0.1-0.1-0.2-0.1c-0.1-0.1-0.3-0.1-0.4-0.2C33.7,26.1,33.7,26.2,33.6,26.4L33.6,26.4z M33.5,27
	c0.1,0,0.3,0,0.4,0c0.1,0,0.2,0,0.3,0c-0.1-0.1-0.2-0.1-0.3-0.2c-0.1-0.1-0.2-0.1-0.4-0.2L33.5,27z M33.3,27.6c0.1,0,0.2,0,0.3,0
	c0.1,0,0.2,0,0.3,0c-0.1-0.1-0.1-0.1-0.2-0.1c-0.1-0.1-0.2-0.1-0.3-0.2L33.3,27.6L33.3,27.6z M33.1,28.2c0.1,0,0.2,0,0.3,0
	c0.1,0,0.2,0,0.3,0c-0.1-0.1-0.1-0.1-0.2-0.2c-0.1-0.1-0.2-0.1-0.3-0.2C33.2,28,33.2,28.1,33.1,28.2L33.1,28.2z M32.9,28.8
	c0.1,0,0.2,0,0.3,0.1c0.1,0,0.2,0,0.3,0c-0.1-0.1-0.1-0.1-0.2-0.2c-0.1-0.1-0.2-0.1-0.3-0.2L32.9,28.8L32.9,28.8z M32.7,29.3
	c0.1,0,0.2,0.1,0.3,0.1c0.1,0,0.2,0,0.3,0l-0.2-0.1c-0.1,0-0.2-0.1-0.2-0.1L32.7,29.3L32.7,29.3z M32.3,30c0.1,0,0.3,0.1,0.4,0.1
	c0.1,0,0.3,0,0.4,0c-0.1-0.1-0.2-0.2-0.2-0.3c-0.1-0.1-0.2-0.2-0.3-0.3C32.4,29.7,32.4,29.8,32.3,30z M32,30.4
	c0.2,0.1,0.4,0.2,0.6,0.2c0.1,0,0.3,0.1,0.4,0.1c-0.1-0.1-0.2-0.1-0.3-0.2c-0.2-0.1-0.4-0.2-0.5-0.3C32.1,30.3,32,30.3,32,30.4z
	 M31.6,30.9c0.2,0.1,0.4,0.3,0.7,0.4c0.2,0.1,0.4,0.1,0.6,0.2c-0.1-0.2-0.3-0.3-0.4-0.4c-0.2-0.2-0.4-0.3-0.6-0.4
	C31.8,30.7,31.7,30.8,31.6,30.9z M31.1,31.5c0.3,0.2,0.6,0.4,0.9,0.5c0.3,0.1,0.5,0.2,0.8,0.3c-0.2-0.2-0.4-0.4-0.5-0.6
	c-0.3-0.2-0.5-0.4-0.8-0.6C31.4,31.3,31.3,31.4,31.1,31.5L31.1,31.5z M30.6,32.1c0.7,0.6,1.4,1,2.3,1.3c-0.1-0.2-0.2-0.3-0.3-0.5
	c-0.2-0.2-0.4-0.4-0.6-0.6c-0.3-0.1-0.7-0.3-1-0.5L30.7,32L30.6,32.1L30.6,32.1z M29.1,33.3c0.3,0.4,0.5,0.8,0.8,1.3
	c0.5,0.9,1.1,1.8,1.8,2.6c0.6,0.6,1.3,1.1,2,1.5c0.3,0.2,0.5,0.3,0.8,0.5c-0.1-0.3-0.2-0.6-0.3-0.9c-0.2-0.8-0.5-1.6-0.9-2.3
	c-0.6-0.9-1.4-1.6-2.2-2.3c-0.4-0.3-0.7-0.7-1.1-1C29.7,32.9,29.4,33.1,29.1,33.3z M32.2,34.5l0.5,0.2l0.3,0.2
	c-0.4-0.6-0.9-1.2-1.4-1.8c-0.4-0.2-0.8-0.5-1.2-0.8c-0.1,0.1-0.2,0.2-0.3,0.3c0.3,0.3,0.7,0.7,1,1C31.5,33.8,31.9,34.2,32.2,34.5
	L32.2,34.5z M27.1,34.4C27.1,34.4,27.1,34.4,27.1,34.4c0.1,0.4,0.2,0.7,0.3,1.1c0.1,0.2,0.2,0.5,0.3,0.7c0-0.3,0-0.6,0-0.9
	c-0.1-0.3-0.1-0.7-0.2-1L27.1,34.4L27.1,34.4z M26.5,34.6C26.5,34.6,26.5,34.6,26.5,34.6c0,0.3,0.1,0.6,0.2,0.8
	c0.1,0.2,0.2,0.4,0.3,0.6c0-0.2,0-0.4,0-0.6c0-0.3-0.1-0.6-0.1-0.8v-0.1L26.5,34.6L26.5,34.6z M25.9,34.7c0,0.2,0.1,0.4,0.1,0.6
	c0,0.1,0.1,0.3,0.2,0.4c0-0.2,0.1-0.3,0.1-0.5c0-0.2,0-0.4,0-0.6v0L25.9,34.7L25.9,34.7z M25.2,34.9C25.2,34.9,25.2,34.9,25.2,34.9
	c0,0.2,0,0.3,0.1,0.5c0,0.1,0.1,0.2,0.1,0.3c0-0.1,0.1-0.3,0.1-0.4c0-0.2,0-0.3,0.1-0.5L25.2,34.9L25.2,34.9z M24.6,35
	c0,0.1,0,0.3,0.1,0.4c0,0.1,0,0.1,0.1,0.2c0-0.1,0.1-0.2,0.1-0.3c0-0.1,0.1-0.3,0.1-0.4v0C24.9,34.9,24.8,35,24.6,35L24.6,35z
	 M24.1,35c0,0.1,0,0.3,0.1,0.4c0,0.1,0.1,0.1,0.1,0.2c0-0.1,0.1-0.2,0.1-0.3c0-0.1,0-0.2,0-0.3L24.1,35z M23.4,35.1
	c0,0.2,0.1,0.3,0.1,0.5c0,0.1,0.1,0.1,0.1,0.2c0.1-0.2,0.1-0.4,0.2-0.7C23.7,35.1,23.6,35.1,23.4,35.1L23.4,35.1z M22.8,35.1
	c0,0.1,0,0.2,0,0.3c0,0.1,0,0.2,0.1,0.3c0-0.1,0.1-0.2,0.1-0.2c0-0.1,0.1-0.2,0.1-0.3L22.8,35.1L22.8,35.1z M22.2,35
	c0,0.1,0,0.3,0,0.4c0,0.1,0,0.2,0.1,0.2c0-0.1,0.1-0.2,0.1-0.3c0-0.1,0.1-0.2,0.1-0.4L22.2,35L22.2,35z M21.6,34.9
	c0,0.1,0,0.3,0,0.4c0,0.1,0,0.2,0,0.3c0.1-0.1,0.1-0.2,0.2-0.3c0.1-0.1,0.1-0.2,0.1-0.4L21.6,34.9z M20.9,34.8c0,0.2,0,0.3,0,0.5
	c0,0.1,0,0.3,0.1,0.4c0.1-0.1,0.1-0.2,0.2-0.3c0.1-0.2,0.1-0.4,0.2-0.6L20.9,34.8L20.9,34.8z M20.3,34.7c0,0.2-0.1,0.5-0.1,0.7
	c0,0.2,0,0.3,0,0.5c0.2-0.3,0.3-0.7,0.4-1.1L20.3,34.7L20.3,34.7z M19.7,34.5c-0.1,0.3-0.2,0.6-0.2,0.9c0,0.2-0.1,0.4-0.1,0.6
	c0.1-0.1,0.2-0.3,0.3-0.4c0.1-0.3,0.3-0.6,0.4-1L19.7,34.5L19.7,34.5z M28.3,33.8c0.3,0.7,0.7,1.4,1.1,2c0.3,0.5,0.7,1,1.2,1.3
	c0-0.2-0.1-0.4-0.1-0.6c-0.1-0.3-0.2-0.6-0.4-0.9c-0.2-0.3-0.3-0.6-0.5-0.9c-0.2-0.4-0.5-0.9-0.7-1.3C28.7,33.6,28.5,33.7,28.3,33.8
	L28.3,33.8z M28.8,35.5c-0.3-0.5-0.5-1-0.8-1.5l-0.3,0.2c0.1,0.4,0.3,0.8,0.5,1.2c0.2,0.4,0.4,0.7,0.6,1c0-0.1,0-0.2,0-0.3
	C28.9,35.9,28.9,35.7,28.8,35.5L28.8,35.5z M19.2,34.2c-0.1,0.4-0.2,0.8-0.4,1.2c0,0.2,0,0.3,0,0.5c0,0.1,0,0.1,0,0.2
	c0.1-0.2,0.3-0.4,0.4-0.7c0.2-0.3,0.3-0.7,0.4-1v0L19.2,34.2L19.2,34.2z M17.7,35.6c-0.1,0.1-0.2,0.3-0.2,0.4
	c-0.4,0.6-0.9,1.1-1.5,1.5l-0.2,0.1v-0.2c0-0.3,0-0.5,0.1-0.8c-0.2,0.3-0.4,0.5-0.6,0.8c-0.6,0.6-1.3,1.1-2,1.5
	c-0.5,0.3-1,0.6-1.5,1c0.3-0.5,0.5-1.1,0.6-1.7c0.2-0.8,0.5-1.6,1-2.4c0.2-0.3,0.4-0.5,0.6-0.8c-0.2,0.1-0.4,0.2-0.6,0.2L13,35.4
	l0.1-0.2c0.2-0.6,0.5-1.1,0.8-1.5h0c-0.2,0.1-0.4,0.1-0.6,0.1l-0.3,0l0.2-0.2c0.2-0.3,0.4-0.5,0.6-0.8c-0.1,0-0.2,0.1-0.4,0.1
	l-0.3,0l0.2-0.2c0.2-0.3,0.5-0.6,0.7-0.9c-0.2,0.1-0.4,0.1-0.6,0.1l-0.3,0l0.1-0.2c0.1-0.2,0.3-0.5,0.5-0.7
	c-0.2,0.1-0.4,0.1-0.6,0.1H13l0.1-0.2c0.1-0.2,0.3-0.4,0.4-0.6c-0.1,0-0.2,0-0.4,0H13l0.1-0.2c0.1-0.2,0.2-0.4,0.4-0.5
	c-0.2,0-0.3,0-0.5,0h-0.2l0.1-0.1c0.1-0.2,0.2-0.4,0.4-0.5h0c-0.1,0-0.3,0-0.4,0l-0.2,0l0.1-0.2c0.1-0.2,0.2-0.3,0.3-0.4
	c-0.2,0-0.3-0.1-0.4-0.1l-0.1-0.1l0.1-0.1c0.1-0.1,0.2-0.2,0.3-0.4c-0.2,0-0.3-0.1-0.5-0.1l-0.2-0.1l0.1-0.1
	c0.1-0.1,0.2-0.2,0.3-0.2c-0.2,0-0.3-0.1-0.4-0.1L12,27.1l0.1-0.1c0.1-0.1,0.2-0.2,0.3-0.3c-0.2,0-0.3,0-0.5-0.1l-0.2-0.1l0.2-0.2
	c0.1-0.1,0.3-0.2,0.5-0.3h-0.1c-0.2,0-0.4-0.1-0.6-0.2l-0.2-0.1l0.2-0.1c0.2-0.1,0.3-0.2,0.5-0.3h-0.1c-0.3-0.1-0.5-0.2-0.8-0.3
	l-0.2-0.1l0.2-0.1c0.2-0.1,0.4-0.2,0.6-0.2c-0.3-0.1-0.7-0.1-1-0.3l-0.2-0.1l0.2-0.1c0.1-0.1,0.2-0.1,0.4-0.2
	c-0.3-0.1-0.6-0.2-0.9-0.3l-0.3-0.1l0.3-0.1c0.2-0.1,0.4-0.1,0.6-0.2c-0.4-0.1-0.8-0.2-1.1-0.3l-0.2-0.1l0.2-0.1
	c0.1-0.1,0.2-0.1,0.4-0.2c-0.6-0.2-1.1-0.4-1.5-0.8l-0.2-0.1l0.2-0.1c0.2-0.1,0.5-0.1,0.7-0.2c-0.3-0.1-0.6-0.2-1-0.3
	c-0.8-0.4-1.5-0.8-2.1-1.4c-0.4-0.4-0.9-0.7-1.4-1c0.6,0,1.1,0,1.7,0c0.8-0.1,1.7-0.1,2.6,0.1c0.3,0.1,0.6,0.2,0.9,0.3
	c-0.2-0.2-0.3-0.3-0.5-0.5l-0.1-0.2h0.2c0.7,0,1.4,0.1,2,0.4v0c-0.1-0.2-0.2-0.3-0.3-0.5l-0.1-0.2l0.3,0.1c0.4,0.1,0.8,0.2,1.2,0.4
	c-0.1-0.2-0.2-0.4-0.3-0.6l-0.1-0.3l0.3,0.1c0.4,0.1,0.8,0.3,1.2,0.6c-0.2-0.2-0.3-0.5-0.4-0.7L13.4,17l0.2,0.1
	c0.3,0.1,0.5,0.2,0.7,0.3c-0.1-0.1-0.2-0.3-0.2-0.4L14,16.8l0.2,0c0.2,0.1,0.5,0.1,0.7,0.3c-0.1-0.1-0.1-0.3-0.2-0.5l-0.1-0.2
	l0.2,0.1c0.2,0,0.3,0.1,0.5,0.2c-0.1-0.1-0.1-0.2-0.1-0.4l0-0.2l0.2,0c0.2,0,0.3,0.1,0.4,0.2c-0.1-0.1-0.1-0.3-0.1-0.4l0-0.2
	l0.2,0.1c0.2,0.1,0.4,0.1,0.5,0.2c0-0.2-0.1-0.3-0.1-0.5l0-0.3l0.2,0.2l0.2,0.2c0-0.1,0-0.3,0-0.4l0-0.1l0.1,0
	c0.1,0,0.2,0.1,0.3,0.2c0-0.1,0-0.2,0-0.3l0-0.2l0.2,0.1c0.1,0,0.2,0.1,0.3,0.2c0-0.1-0.1-0.3-0.1-0.4v-0.2l0.2,0.1
	c0.1,0,0.2,0.1,0.2,0.2c0-0.2,0-0.3,0-0.5l0-0.2l0.2,0.1c0.1,0.1,0.3,0.2,0.4,0.3c-0.1-0.2-0.1-0.4-0.1-0.6v-0.3l0.2,0.1
	c0.1,0.1,0.3,0.2,0.4,0.3C19,13.8,19,13.5,19,13.3l0-0.2l0.2,0.1c0.2,0.1,0.4,0.3,0.6,0.5c-0.1-0.4-0.1-0.8-0.1-1.2v-0.2l0.2,0.1
	c0.2,0.1,0.3,0.3,0.5,0.5c0-0.2,0-0.4,0-0.5c0-0.3,0.1-0.7,0.2-1l0.1-0.2l0.1,0.1c0.2,0.2,0.3,0.4,0.4,0.6c-0.1-0.7,0-1.4,0.3-2.1
	l0.1-0.2l0.1,0.2c0.1,0.2,0.3,0.4,0.4,0.6c0-0.3,0-0.6,0-0.9c0.1-0.8,0.3-1.7,0.7-2.4c0.2-0.5,0.4-1,0.6-1.5c0.2,0.5,0.4,1,0.5,1.5
	c0.3,0.8,0.6,1.6,0.7,2.4c0,0.3,0,0.7,0,1c0.1-0.2,0.2-0.4,0.4-0.6L25,9.6l0.1,0.2c0.2,0.6,0.3,1.2,0.3,1.8c0.1-0.1,0.2-0.3,0.3-0.4
	l0.2-0.2l0,0.2c0.1,0.4,0.1,0.7,0.1,1.1c0,0.1,0,0.3,0,0.4c0.1-0.2,0.3-0.4,0.5-0.6l0.2-0.2v0.3c0,0.3,0,0.7-0.1,1
	c0.1-0.2,0.2-0.3,0.3-0.4l0.2-0.2v0.3c0,0.3,0,0.7,0,1c0,0.1,0,0.1,0,0.2c0.2-0.2,0.3-0.4,0.5-0.6l0.2-0.2v0.3c0,0.2,0,0.4,0,0.6
	c0.1-0.1,0.2-0.2,0.3-0.3l0.2-0.2V14c0,0.2,0,0.5-0.1,0.7c0.1-0.1,0.3-0.2,0.4-0.3l0.2-0.1v0.2c0,0.2,0,0.3,0,0.5
	c0.1-0.1,0.2-0.1,0.3-0.2l0.2-0.1v0.2c0,0.2,0,0.3,0,0.5c0.1-0.1,0.2-0.1,0.3-0.2l0.2-0.1l0,0.2c0,0.2,0,0.4-0.1,0.6l0.1-0.1
	c0.1-0.1,0.3-0.2,0.4-0.2l0.2-0.1v0.2c0,0.2-0.1,0.3-0.1,0.5l0,0c0.2-0.1,0.3-0.2,0.5-0.3l0.2-0.1l0,0.2c0,0.1-0.1,0.3-0.1,0.4
	c0.1-0.1,0.3-0.1,0.4-0.2l0.2,0l0,0.2c0,0.1-0.1,0.2-0.1,0.4c0.2-0.1,0.3-0.1,0.5-0.2l0.2,0l0,0.2c0,0.1-0.1,0.3-0.1,0.4
	c0.2-0.1,0.4-0.2,0.6-0.3l0.2-0.1l0,0.2c0,0.2-0.1,0.4-0.2,0.5c0.3-0.1,0.5-0.3,0.8-0.3l0.2-0.1l0,0.2c-0.1,0.2-0.2,0.4-0.3,0.6
	c0.3-0.2,0.7-0.3,1-0.4l0.3-0.1l-0.1,0.3c-0.1,0.2-0.2,0.4-0.3,0.6l0.2-0.1c0.3-0.1,0.6-0.2,0.9-0.3l0.2,0L35.1,18
	c-0.1,0.2-0.1,0.4-0.3,0.5c0.6-0.2,1.2-0.3,1.9-0.3H37l-0.1,0.2c-0.1,0.2-0.3,0.4-0.5,0.5c0.3-0.1,0.6-0.2,0.9-0.3
	c0.8-0.2,1.7-0.2,2.6-0.1c0.5,0,1,0.1,1.6,0.1c-0.4,0.3-0.8,0.6-1.2,1c-0.6,0.6-1.4,1-2.1,1.4c-0.3,0.1-0.6,0.2-1,0.3
	c0.3,0,0.5,0.1,0.7,0.2l0.2,0.1l-0.2,0.1c-0.6,0.4-1.2,0.7-1.9,0.9l0.2,0c0.2,0,0.4,0.1,0.6,0.2L37,23l-0.3,0.1
	c-0.4,0.2-0.9,0.3-1.4,0.4c0.3,0,0.5,0.1,0.8,0.3l0.2,0.1l-0.3,0.1c-0.3,0.1-0.7,0.2-1.1,0.2c0.2,0.1,0.4,0.2,0.6,0.3l0.2,0.2
	l-0.3,0.1c-0.3,0.1-0.6,0.1-0.9,0.1c0.2,0.1,0.4,0.2,0.6,0.3l0.2,0.2l-0.3,0.1c-0.2,0.1-0.5,0.1-0.7,0.1c0.2,0.1,0.4,0.2,0.5,0.4
	l0.1,0.1L34.9,26c-0.2,0-0.3,0.1-0.5,0.1c0.1,0.1,0.2,0.2,0.3,0.3l0.1,0.1l-0.1,0c-0.1,0.1-0.3,0.1-0.4,0.1c0.1,0.1,0.3,0.2,0.4,0.3
	l0.1,0.1l-0.1,0.1c-0.2,0.1-0.3,0.1-0.5,0.1c0.1,0.1,0.2,0.2,0.3,0.3l0.1,0.1l-0.1,0.1c-0.2,0.1-0.3,0.1-0.5,0.1
	c0.2,0.1,0.3,0.3,0.4,0.4l0.1,0.2l-0.2,0c-0.2,0-0.4,0.1-0.6,0.1c0.1,0.1,0.3,0.2,0.3,0.4l0.1,0.2l-0.2,0c-0.1,0-0.2,0-0.4,0
	c0.1,0.1,0.2,0.2,0.3,0.3l0.1,0.1l-0.2,0.1c-0.2,0.1-0.4,0.1-0.5,0c0.2,0.1,0.3,0.3,0.4,0.5l0.1,0.2h-0.2c-0.1,0-0.3,0-0.4,0
	c0.2,0.1,0.4,0.3,0.5,0.4l0.2,0.2h-0.3c-0.2,0-0.4,0-0.5-0.1c0.2,0.2,0.4,0.4,0.5,0.6l0.1,0.2h-0.2c-0.2,0-0.4,0-0.6-0.1
	c0.3,0.2,0.5,0.5,0.7,0.8l0.2,0.3l-0.3-0.1c-0.2,0-0.4-0.1-0.6-0.2l0.2,0.3c0.3,0.3,0.5,0.7,0.7,1c-0.4-0.1-0.8-0.2-1.2-0.4
	c0.5,0.6,1,1.3,1.4,2c-0.3-0.1-0.6-0.2-0.9-0.4c0.2,0.3,0.4,0.5,0.6,0.8c0.4,0.7,0.8,1.5,1,2.4c0.2,0.6,0.4,1.1,0.6,1.7
	c-0.5-0.4-1-0.7-1.5-1c-0.8-0.4-1.4-0.9-2-1.5c-0.2-0.2-0.4-0.5-0.6-0.8c0.1,0.2,0.1,0.5,0.1,0.8v0.2l-0.2-0.1
	c-0.6-0.4-1.1-0.9-1.5-1.5c0,0,0,0.1,0,0.1c0,0.2,0,0.4-0.1,0.6L29,36.9l-0.2-0.2c-0.3-0.4-0.6-0.8-0.8-1.3l0-0.1
	c0.1,0.4,0.1,0.9,0,1.3c-0.3-0.3-0.5-0.7-0.7-1.1c0,0.2,0,0.4-0.1,0.7l-0.1,0.3L27,36.3c-0.2-0.3-0.4-0.6-0.5-0.9
	c0,0.2-0.1,0.4-0.2,0.6l-0.1,0.2l-0.1-0.2c-0.2-0.2-0.3-0.4-0.3-0.7c0,0.2-0.1,0.4-0.2,0.6l-0.1,0.2L25.3,36
	c-0.1-0.1-0.2-0.3-0.3-0.4c0,0.1-0.1,0.3-0.2,0.4l-0.1,0.2l-0.1-0.2c-0.1-0.1-0.1-0.2-0.2-0.4c0,0.1-0.1,0.2-0.1,0.3L24.3,36
	l-0.1-0.1c-0.1-0.1-0.1-0.2-0.2-0.3c0,0.1-0.1,0.3-0.2,0.4l-0.1,0.2L23.6,36c-0.1-0.1-0.2-0.3-0.2-0.4c0-0.1,0-0.1-0.1-0.2
	c-0.1,0.2-0.1,0.3-0.3,0.5L22.9,36l-0.1-0.1c-0.1-0.1-0.2-0.3-0.2-0.4c-0.1,0.2-0.2,0.4-0.3,0.5l-0.1,0.2l-0.1-0.2
	C22,35.8,22,35.6,22,35.5c-0.1,0.2-0.2,0.3-0.3,0.4L21.5,36l-0.1-0.2c0-0.1-0.1-0.3-0.1-0.4c-0.1,0.2-0.2,0.4-0.4,0.5L20.8,36l0-0.2
	c0-0.1-0.1-0.3-0.1-0.5c-0.1,0.2-0.2,0.5-0.4,0.7l-0.2,0.2l0-0.2c0-0.2-0.1-0.4-0.1-0.6l0,0.1c-0.1,0.3-0.3,0.5-0.6,0.7l-0.2,0.1
	v-0.1c0-0.2,0-0.3,0-0.5c-0.2,0.3-0.4,0.6-0.6,0.9c0-0.2-0.1-0.5-0.1-0.7c-0.2,0.3-0.4,0.5-0.6,0.8l-0.2,0.2v-0.3
	C17.6,36.3,17.7,35.9,17.7,35.6L17.7,35.6z M18.6,34c-0.1,0.2-0.2,0.5-0.3,0.7c-0.1,0.3-0.2,0.6-0.3,0.9c0,0.3-0.1,0.5-0.1,0.8
	c0.2-0.3,0.4-0.6,0.6-0.9c0.2-0.4,0.3-0.9,0.4-1.3L18.6,34L18.6,34z M16.5,35.6c-0.2,0.3-0.3,0.6-0.4,0.9c-0.1,0.2-0.1,0.4-0.1,0.6
	c0.5-0.4,0.9-0.8,1.2-1.3c0.4-0.6,0.8-1.3,1.1-2c-0.2-0.1-0.4-0.2-0.6-0.3c-0.3,0.4-0.5,0.8-0.7,1.2C16.9,35,16.7,35.3,16.5,35.6
	L16.5,35.6z M16.7,32.7c-0.3,0.3-0.7,0.7-1,1c-0.8,0.7-1.5,1.5-2.2,2.3c-0.4,0.7-0.7,1.5-0.9,2.3c-0.1,0.3-0.2,0.6-0.3,0.9
	c0.2-0.2,0.5-0.3,0.8-0.5c0.7-0.4,1.4-0.9,2-1.5c0.7-0.8,1.3-1.7,1.8-2.6c0.2-0.4,0.5-0.8,0.7-1.2C17.3,33.2,17,33,16.7,32.7
	L16.7,32.7z"/>
<path class="st1" d="M30.5,17.3c-3.4-3.5-8.9-4-12.9-1.3c-4.1,2.7-5.6,7.9-3.8,12.4c1.9,4.5,6.7,7.1,11.5,6.1
	c4.8-1,8.2-5.2,8.2-10.1C33.5,21.8,32.4,19.2,30.5,17.3L30.5,17.3z M12.7,25.1c0-0.1,0-0.3,0-0.4c-0.2,0-0.4,0.1-0.6,0.1
	c-0.1,0-0.3,0.1-0.4,0.1c0.1,0,0.3,0.1,0.4,0.1C12.4,25.1,12.6,25.1,12.7,25.1L12.7,25.1z M12.8,25.7c0-0.1,0-0.2,0-0.4
	c-0.1,0-0.3,0.1-0.4,0.1c-0.1,0.1-0.2,0.1-0.3,0.1c0.1,0,0.2,0,0.3,0.1C12.5,25.7,12.7,25.7,12.8,25.7L12.8,25.7z M12.9,26.3l0-0.3
	c-0.1,0-0.2,0.1-0.3,0.1c-0.1,0-0.2,0.1-0.2,0.1c0.1,0,0.2,0,0.3,0C12.7,26.4,12.8,26.4,12.9,26.3L12.9,26.3z M13,27
	c0-0.1,0-0.2-0.1-0.3c-0.1,0-0.2,0.1-0.3,0.1c-0.1,0-0.2,0.1-0.2,0.2c0.1,0,0.2,0,0.3,0C12.8,27,12.9,27,13,27L13,27z M13.2,27.6
	l-0.1-0.3c-0.1,0-0.2,0.1-0.2,0.1c-0.1,0-0.1,0.1-0.2,0.2c0.1,0,0.2,0.1,0.3,0.1C13,27.6,13.1,27.6,13.2,27.6L13.2,27.6z M13.4,28.2
	c0-0.1-0.1-0.2-0.1-0.4c-0.1,0-0.1,0.1-0.2,0.1c-0.1,0.1-0.1,0.1-0.2,0.2c0.1,0,0.2,0,0.3,0.1C13.2,28.2,13.3,28.2,13.4,28.2
	L13.4,28.2z M13.6,28.8l-0.1-0.3c-0.1,0.1-0.2,0.1-0.3,0.2c-0.1,0.1-0.1,0.1-0.2,0.2c0.1,0,0.2,0,0.3,0
	C13.4,28.8,13.5,28.8,13.6,28.8L13.6,28.8z M13.9,29.4c-0.1-0.1-0.1-0.3-0.2-0.4c-0.1,0.1-0.2,0.1-0.3,0.2c-0.1,0.1-0.2,0.2-0.2,0.3
	c0.1,0,0.3,0,0.4,0C13.7,29.5,13.8,29.5,13.9,29.4L13.9,29.4z M14.2,29.9c-0.1-0.1-0.1-0.2-0.1-0.3c-0.1,0.1-0.3,0.2-0.4,0.3
	c-0.1,0.1-0.2,0.2-0.3,0.3c0.1,0,0.2,0,0.3-0.1C13.9,30.1,14,30.1,14.2,29.9L14.2,29.9z M14.6,30.5l-0.2-0.3l-0.1,0.1
	c-0.2,0.1-0.3,0.2-0.4,0.3c-0.1,0.1-0.2,0.3-0.3,0.4c0.2,0,0.3-0.1,0.5-0.1C14.2,30.7,14.4,30.6,14.6,30.5L14.6,30.5z M15,31
	l-0.2-0.3c-0.2,0.2-0.4,0.3-0.6,0.5c-0.2,0.1-0.3,0.3-0.4,0.5c0.2-0.1,0.4-0.1,0.6-0.2c0.2-0.1,0.3-0.2,0.5-0.3L15,31L15,31z
	 M15.3,31.4c-0.1-0.1-0.1-0.1-0.2-0.2l-0.2,0.2c-0.2,0.2-0.4,0.4-0.6,0.6c-0.2,0.2-0.4,0.4-0.6,0.7l0.2,0c0.1,0,0.3-0.1,0.4-0.2
	C14.6,32.1,14.9,31.7,15.3,31.4z M15.7,31.9c-0.1-0.1-0.2-0.2-0.3-0.3c-0.4,0.3-0.8,0.7-1.1,1c-0.3,0.3-0.6,0.6-0.8,1
	c0.1,0,0.2,0,0.2-0.1c0.2,0,0.4-0.1,0.5-0.2C14.7,32.8,15.2,32.4,15.7,31.9L15.7,31.9z M14.7,34.3c0.2-0.2,0.5-0.5,0.8-0.7
	c0.3-0.3,0.7-0.6,1-0.9c-0.2-0.2-0.4-0.3-0.6-0.5c-0.6,0.5-1.1,0.9-1.6,1.5c-0.4,0.4-0.8,1-1,1.5c0.2-0.1,0.4-0.2,0.6-0.3
	C14.3,34.7,14.5,34.5,14.7,34.3L14.7,34.3z M12.8,23.3c-0.4,0-0.7,0-1.1,0c-0.3,0-0.6,0.1-0.9,0.2c0.3,0.1,0.6,0.2,0.9,0.2
	c0.3,0,0.7,0,1,0C12.8,23.6,12.8,23.5,12.8,23.3L12.8,23.3z M12.8,24c-0.3,0-0.6,0-0.9,0c-0.1,0-0.3,0.1-0.4,0.1l-0.2,0.1
	c0.2,0.1,0.5,0.1,0.7,0.2c0.2,0,0.5,0.1,0.7,0.1C12.7,24.3,12.7,24.1,12.8,24L12.8,24z M13.4,20.7c-0.4-0.2-0.9-0.4-1.3-0.6
	c-0.9-0.5-1.9-0.9-2.9-1.2c-0.8-0.1-1.6-0.2-2.5-0.1c-0.3,0-0.6,0-0.9,0.1c0.2,0.2,0.5,0.4,0.7,0.5c0.6,0.5,1.3,1,2,1.3
	c1,0.4,2,0.6,3.1,0.7c0.5,0.1,0.9,0.1,1.4,0.2C13.2,21.4,13.3,21.1,13.4,20.7L13.4,20.7z M12.9,22.9c-0.7-0.1-1.4-0.2-2-0.3
	c-0.1,0-0.3,0-0.4,0.1l-0.2,0.1c0.6,0.2,1.3,0.3,2,0.3c0.2,0,0.4,0,0.6,0L12.9,22.9L12.9,22.9z M10.7,21.6c-0.3,0-0.6-0.1-1,0
	c-0.2,0-0.4,0.1-0.7,0.1c0.5,0.3,1.1,0.6,1.7,0.7c0.7,0.2,1.4,0.3,2.2,0.3c0-0.2,0.1-0.5,0.1-0.7c-0.5-0.1-0.9-0.2-1.4-0.2
	L10.7,21.6L10.7,21.6z M13.8,19.8c-0.6-0.4-1.3-0.7-2-1c-0.6-0.2-1.2-0.4-1.8-0.4c0.1,0.2,0.3,0.3,0.5,0.5c0.3,0.2,0.5,0.4,0.8,0.5
	c0.3,0.1,0.6,0.3,0.9,0.5c0.4,0.2,0.8,0.4,1.3,0.6C13.6,20.3,13.7,20,13.8,19.8L13.8,19.8z M14.1,19.3c-0.4-0.2-0.7-0.5-1.1-0.6
	c-0.4-0.2-0.8-0.3-1.1-0.4l0.1,0.2c0.1,0.1,0.2,0.3,0.4,0.4c0.5,0.2,1,0.5,1.6,0.8C14,19.5,14.1,19.4,14.1,19.3L14.1,19.3z
	 M14.5,18.7L14.5,18.7c-0.6-0.4-1.1-0.6-1.6-0.9c0,0.1,0.1,0.2,0.1,0.2c0.1,0.2,0.3,0.3,0.4,0.5c0.3,0.2,0.6,0.3,0.8,0.5
	C14.3,19,14.4,18.8,14.5,18.7L14.5,18.7z M14.9,18.2c-0.2-0.2-0.4-0.3-0.6-0.4c-0.2-0.1-0.3-0.2-0.5-0.2c0.1,0.2,0.2,0.3,0.3,0.5
	c0.2,0.2,0.3,0.4,0.5,0.5C14.7,18.4,14.8,18.3,14.9,18.2L14.9,18.2z M15.3,17.7c-0.1-0.1-0.3-0.2-0.4-0.3c-0.1-0.1-0.3-0.1-0.4-0.2
	c0.1,0.1,0.1,0.2,0.2,0.3c0.1,0.2,0.3,0.3,0.4,0.4L15.3,17.7z M15.7,17.2c-0.1-0.1-0.2-0.2-0.3-0.3c-0.1-0.1-0.2-0.1-0.3-0.2
	c0,0.1,0.1,0.2,0.2,0.3c0.1,0.1,0.1,0.2,0.2,0.3C15.5,17.4,15.6,17.3,15.7,17.2z M16.1,16.8c-0.1-0.1-0.2-0.1-0.3-0.2
	c-0.1-0.1-0.2-0.1-0.3-0.1c0,0.1,0.1,0.2,0.1,0.3c0.1,0.1,0.1,0.2,0.2,0.3L16.1,16.8L16.1,16.8z M16.5,16.5
	c-0.1-0.1-0.1-0.1-0.2-0.2c-0.1-0.1-0.2-0.1-0.2-0.1c0,0.1,0.1,0.2,0.1,0.3c0,0.1,0.1,0.2,0.2,0.2L16.5,16.5L16.5,16.5z M16.9,16.1
	l-0.2-0.2l-0.1-0.1c0,0.1,0,0.1,0,0.2c0,0.1,0.1,0.2,0.1,0.3L16.9,16.1z M17.4,15.8c-0.1-0.2-0.3-0.3-0.4-0.4c0,0.1,0,0.2,0.1,0.3
	c0,0.1,0.1,0.2,0.2,0.3L17.4,15.8z M17.8,15.5c-0.1-0.1-0.2-0.3-0.4-0.4c0,0.2,0.1,0.3,0.2,0.5L17.8,15.5z M18.2,15.3
	c-0.1-0.2-0.2-0.3-0.4-0.4c0,0.1,0,0.2,0.1,0.3c0,0.1,0.1,0.2,0.1,0.3L18.2,15.3L18.2,15.3z M18.7,15c-0.1-0.1-0.2-0.2-0.2-0.3
	c-0.1-0.1-0.2-0.2-0.3-0.2c0,0.1,0,0.2,0.1,0.3c0,0.1,0.1,0.2,0.1,0.4C18.6,15.1,18.7,15,18.7,15z M19.3,14.7
	c-0.1-0.2-0.3-0.5-0.5-0.7c0,0.1,0,0.2,0.1,0.4c0,0.2,0.1,0.3,0.2,0.5L19.3,14.7L19.3,14.7z M20,14.5c-0.1-0.2-0.2-0.4-0.4-0.6
	c-0.1-0.2-0.3-0.3-0.4-0.4c0,0.2,0,0.4,0.1,0.6c0.1,0.2,0.1,0.4,0.2,0.6L20,14.5L20,14.5z M20.7,14.3c-0.1-0.3-0.2-0.6-0.3-0.9
	c-0.1-0.2-0.3-0.5-0.5-0.7c0,0.3,0,0.6,0.1,0.8c0.1,0.3,0.1,0.6,0.3,0.8L20.7,14.3z M21.3,13.1c-0.1-0.3-0.2-0.7-0.3-1
	c-0.1-0.2-0.2-0.4-0.3-0.6c-0.1,0.2-0.1,0.5-0.1,0.8c0,0.3,0,0.7,0,1c0.1,0.3,0.2,0.6,0.3,0.9c0.2,0,0.4-0.1,0.6-0.1
	C21.4,13.8,21.3,13.5,21.3,13.1L21.3,13.1z M23.8,14c0.1-0.5,0.1-1,0.2-1.4c0.2-1,0.3-2.1,0.2-3.2c-0.1-0.8-0.3-1.6-0.7-2.4
	c-0.1-0.3-0.2-0.6-0.3-0.8C23.1,6.4,23,6.7,22.9,7c-0.3,0.7-0.6,1.5-0.7,2.4c0,1.1,0.1,2.1,0.3,3.2c0.1,0.5,0.2,1,0.2,1.4h0.5
	C23.4,13.9,23.6,13.9,23.8,14L23.8,14z M22.5,14c-0.1-0.5-0.1-0.9-0.2-1.4c-0.1-0.3-0.1-0.7-0.2-1c-0.1-0.3-0.1-0.6-0.3-0.9
	c-0.1-0.2-0.2-0.4-0.3-0.6c-0.2,0.6-0.2,1.2-0.2,1.8c0.1,0.7,0.2,1.5,0.4,2.2C22,14,22.2,14,22.5,14L22.5,14z M24.7,14
	c0.2-0.7,0.3-1.5,0.3-2.2c0.1-0.6,0-1.2-0.2-1.8c-0.1,0.2-0.2,0.4-0.3,0.6c-0.1,0.3-0.2,0.6-0.3,0.9c0,0.3-0.1,0.7-0.1,1
	c-0.1,0.5-0.1,0.9-0.2,1.4C24.3,14,24.5,14,24.7,14L24.7,14z M26.1,14.3c0-0.1,0-0.1,0.1-0.2c0.1-0.3,0.1-0.5,0.1-0.8
	c0-0.3,0.1-0.5,0.1-0.8c-0.2,0.2-0.3,0.4-0.4,0.7c-0.1,0.3-0.2,0.7-0.3,1.1L26.1,14.3z M26.7,14.5c0.1-0.2,0.1-0.5,0.2-0.7
	c0-0.2,0-0.4,0-0.6c-0.1,0.2-0.3,0.4-0.3,0.6c-0.1,0.1-0.1,0.3-0.1,0.5c0,0.1,0,0.2-0.1,0.2L26.7,14.5L26.7,14.5z M27.3,14.7
	c0.1-0.3,0.2-0.6,0.3-0.9c-0.1,0.1-0.2,0.2-0.3,0.3c-0.1,0.1-0.2,0.3-0.3,0.4L27.3,14.7z M27.8,15c0.1-0.1,0.1-0.3,0.1-0.4
	c0-0.1,0-0.3,0.1-0.4c-0.1,0.1-0.2,0.2-0.2,0.2c-0.1,0.1-0.2,0.3-0.3,0.4L27.8,15z M28.4,15.3c0.1-0.2,0.1-0.4,0.2-0.7
	c-0.1,0.1-0.2,0.1-0.2,0.2c-0.1,0.1-0.2,0.2-0.3,0.3L28.4,15.3z M28.9,15.6c0-0.1,0.1-0.2,0.1-0.3c0-0.1,0-0.2,0-0.3
	c-0.1,0.1-0.1,0.1-0.2,0.2c-0.1,0.1-0.1,0.2-0.2,0.2C28.7,15.5,28.8,15.5,28.9,15.6z M29.4,15.9c0.1-0.2,0.1-0.4,0.1-0.5
	c-0.1,0-0.1,0.1-0.2,0.2c-0.1,0.1-0.1,0.1-0.2,0.2L29.4,15.9z M29.9,16.3c0.1-0.1,0.1-0.3,0.2-0.5l-0.1,0.1
	c-0.1,0.1-0.2,0.1-0.2,0.2L29.9,16.3z M30.3,16.7c0.1-0.2,0.2-0.3,0.3-0.5c-0.1,0-0.1,0.1-0.2,0.1c-0.1,0.1-0.2,0.1-0.3,0.2
	L30.3,16.7L30.3,16.7z M30.7,17c0.1-0.1,0.1-0.2,0.2-0.3c0-0.1,0.1-0.2,0.1-0.2c-0.1,0-0.2,0.1-0.3,0.1c-0.1,0.1-0.2,0.1-0.3,0.2
	L30.7,17L30.7,17z M31.2,17.5c0.1-0.1,0.2-0.2,0.3-0.3c0.1-0.1,0.1-0.2,0.2-0.4c-0.1,0-0.2,0.1-0.3,0.1c-0.1,0.1-0.2,0.2-0.3,0.3
	C31,17.3,31.1,17.4,31.2,17.5z M31.6,18c0.3-0.2,0.5-0.5,0.6-0.8c-0.1,0.1-0.3,0.1-0.4,0.2c-0.2,0.1-0.3,0.2-0.4,0.3
	C31.4,17.8,31.5,17.9,31.6,18z M32,18.6L32,18.6c0.4-0.3,0.7-0.7,1-1.1c-0.2,0.1-0.3,0.2-0.5,0.2c-0.3,0.1-0.5,0.3-0.7,0.5
	C31.8,18.3,31.9,18.4,32,18.6L32,18.6z M32.4,19.2c0.3-0.2,0.5-0.5,0.8-0.7c0.2-0.2,0.4-0.4,0.5-0.7c-0.3,0.1-0.5,0.2-0.7,0.3
	c-0.3,0.2-0.6,0.4-0.9,0.6C32.2,18.9,32.3,19.1,32.4,19.2L32.4,19.2z M25.5,14.2c0-0.3,0.1-0.5,0.2-0.8c0-0.3,0-0.7,0-1
	c0-0.3,0-0.5,0-0.8c0,0-0.1,0.1-0.1,0.1c-0.1,0.2-0.2,0.3-0.2,0.5c-0.1,0.6-0.2,1.2-0.3,1.9L25.5,14.2L25.5,14.2z M32.6,19.6
	c0.6-0.3,1.1-0.6,1.7-0.8c0.1-0.1,0.3-0.2,0.4-0.4c0.1-0.1,0.1-0.2,0.1-0.2c-0.2,0.1-0.4,0.1-0.6,0.2c-0.3,0.1-0.6,0.3-0.8,0.4
	c-0.2,0.2-0.5,0.5-0.8,0.7C32.6,19.5,32.6,19.5,32.6,19.6L32.6,19.6z M33.4,21.8c0.4-0.1,0.9-0.2,1.3-0.2c1.1-0.1,2.1-0.4,3.1-0.7
	c0.7-0.4,1.4-0.8,2-1.3c0.2-0.2,0.5-0.4,0.7-0.5c-0.3,0-0.6,0-0.9-0.1c-0.8-0.1-1.7-0.1-2.5,0.1c-1,0.3-2,0.7-2.9,1.2
	c-0.4,0.2-0.8,0.4-1.2,0.6C33.3,21.1,33.4,21.4,33.4,21.8L33.4,21.8z M33,20.5c0.4-0.2,0.8-0.4,1.2-0.6c0.3-0.2,0.6-0.3,0.9-0.5
	c0.3-0.1,0.6-0.3,0.8-0.5c0.2-0.1,0.3-0.3,0.5-0.5c-0.6,0-1.2,0.2-1.8,0.4c-0.7,0.3-1.3,0.6-1.9,1C32.8,20,32.9,20.3,33,20.5z
	 M33.6,22.7c0.7-0.1,1.4-0.2,2.1-0.3c0.6-0.1,1.2-0.4,1.7-0.7c-0.2-0.1-0.4-0.1-0.7-0.1c-0.3,0-0.6,0-1,0l-1,0.2
	c-0.4,0.1-0.9,0.1-1.3,0.2C33.5,22.2,33.6,22.5,33.6,22.7L33.6,22.7z M33.7,23.3H34c0.8,0,1.5-0.2,2.2-0.4L36,22.9
	c-0.2-0.1-0.5-0.1-0.7-0.2c-0.5,0.1-1.1,0.2-1.6,0.2C33.7,23.1,33.7,23.2,33.7,23.3L33.7,23.3z M33.8,24L33.8,24
	c0.7,0,1.3-0.1,1.9-0.2c-0.2-0.1-0.5-0.1-0.7-0.1c-0.4,0-0.8,0-1.2,0C33.8,23.7,33.8,23.9,33.8,24L33.8,24z M33.8,24.6
	c0.3,0,0.5,0,0.8,0c0.2,0,0.4,0,0.6-0.1c-0.4-0.2-0.9-0.3-1.4-0.3V24.6L33.8,24.6z M33.8,25.2c0.2,0,0.4,0,0.6,0c0.1,0,0.3,0,0.4,0
	c-0.1-0.1-0.3-0.1-0.4-0.1c-0.2-0.1-0.4-0.1-0.6-0.1L33.8,25.2L33.8,25.2z M33.7,25.8c0.2,0,0.3,0,0.5,0.1c0.1,0,0.3,0,0.4,0
	c-0.1-0.1-0.2-0.2-0.3-0.2c-0.2-0.1-0.3-0.1-0.5-0.2C33.8,25.6,33.8,25.7,33.7,25.8L33.7,25.8z M33.6,26.4c0.1,0,0.3,0,0.4,0
	c0.1,0,0.2,0,0.3,0c-0.1,0-0.1-0.1-0.2-0.1c-0.1-0.1-0.3-0.1-0.4-0.2C33.7,26.1,33.7,26.2,33.6,26.4L33.6,26.4z M33.5,27
	c0.1,0,0.3,0,0.4,0c0.1,0,0.2,0,0.3,0c-0.1-0.1-0.2-0.1-0.3-0.2c-0.1-0.1-0.2-0.1-0.4-0.2L33.5,27z M33.3,27.6c0.1,0,0.2,0,0.3,0
	c0.1,0,0.2,0,0.3,0c-0.1-0.1-0.1-0.1-0.2-0.1c-0.1-0.1-0.2-0.1-0.3-0.2L33.3,27.6L33.3,27.6z M33.1,28.2c0.1,0,0.2,0,0.3,0
	c0.1,0,0.2,0,0.3,0c-0.1-0.1-0.1-0.1-0.2-0.2c-0.1-0.1-0.2-0.1-0.3-0.2C33.2,28,33.2,28.1,33.1,28.2L33.1,28.2z M32.9,28.8
	c0.1,0,0.2,0,0.3,0.1c0.1,0,0.2,0,0.3,0c-0.1-0.1-0.1-0.1-0.2-0.2c-0.1-0.1-0.2-0.1-0.3-0.2L32.9,28.8L32.9,28.8z M32.7,29.3
	c0.1,0,0.2,0.1,0.3,0.1c0.1,0,0.2,0,0.3,0l-0.2-0.1c-0.1,0-0.2-0.1-0.2-0.1L32.7,29.3L32.7,29.3z M32.3,30c0.1,0,0.3,0.1,0.4,0.1
	c0.1,0,0.3,0,0.4,0c-0.1-0.1-0.2-0.2-0.2-0.3c-0.1-0.1-0.2-0.2-0.3-0.3C32.4,29.7,32.4,29.8,32.3,30z M32,30.4
	c0.2,0.1,0.4,0.2,0.6,0.2c0.1,0,0.3,0.1,0.4,0.1c-0.1-0.1-0.2-0.1-0.3-0.2c-0.2-0.1-0.4-0.2-0.5-0.3C32.1,30.3,32,30.3,32,30.4z
	 M31.6,30.9c0.2,0.1,0.4,0.3,0.7,0.4c0.2,0.1,0.4,0.1,0.6,0.2c-0.1-0.2-0.3-0.3-0.4-0.4c-0.2-0.2-0.4-0.3-0.6-0.4
	C31.8,30.7,31.7,30.8,31.6,30.9z M31.1,31.5c0.3,0.2,0.6,0.4,0.9,0.5c0.3,0.1,0.5,0.2,0.8,0.3c-0.2-0.2-0.4-0.4-0.5-0.6
	c-0.3-0.2-0.5-0.4-0.8-0.6C31.4,31.3,31.3,31.4,31.1,31.5L31.1,31.5z M30.6,32.1c0.7,0.6,1.4,1,2.3,1.3c-0.1-0.2-0.2-0.3-0.3-0.5
	c-0.2-0.2-0.4-0.4-0.6-0.6c-0.3-0.1-0.7-0.3-1-0.5L30.7,32L30.6,32.1L30.6,32.1z M29.1,33.3c0.3,0.4,0.5,0.8,0.8,1.3
	c0.5,0.9,1.1,1.8,1.8,2.6c0.6,0.6,1.3,1.1,2,1.5c0.3,0.2,0.5,0.3,0.8,0.5c-0.1-0.3-0.2-0.6-0.3-0.9c-0.2-0.8-0.5-1.6-0.9-2.3
	c-0.6-0.9-1.4-1.6-2.2-2.3c-0.4-0.3-0.7-0.7-1.1-1C29.7,32.9,29.4,33.1,29.1,33.3z M32.2,34.5l0.5,0.2l0.3,0.2
	c-0.4-0.6-0.9-1.2-1.4-1.8c-0.4-0.2-0.8-0.5-1.2-0.8c-0.1,0.1-0.2,0.2-0.3,0.3c0.3,0.3,0.7,0.7,1,1C31.5,33.8,31.9,34.2,32.2,34.5
	L32.2,34.5z M27.1,34.4C27.1,34.4,27.1,34.4,27.1,34.4c0.1,0.4,0.2,0.7,0.3,1.1c0.1,0.2,0.2,0.5,0.3,0.7c0-0.3,0-0.6,0-0.9
	c-0.1-0.3-0.1-0.7-0.2-1L27.1,34.4L27.1,34.4z M26.5,34.6C26.5,34.6,26.5,34.6,26.5,34.6c0,0.3,0.1,0.6,0.2,0.8
	c0.1,0.2,0.2,0.4,0.3,0.6c0-0.2,0-0.4,0-0.6c0-0.3-0.1-0.6-0.1-0.8v-0.1L26.5,34.6L26.5,34.6z M25.9,34.7c0,0.2,0.1,0.4,0.1,0.6
	c0,0.1,0.1,0.3,0.2,0.4c0-0.2,0.1-0.3,0.1-0.5c0-0.2,0-0.4,0-0.6v0L25.9,34.7L25.9,34.7z M25.2,34.9C25.2,34.9,25.2,34.9,25.2,34.9
	c0,0.2,0,0.3,0.1,0.5c0,0.1,0.1,0.2,0.1,0.3c0-0.1,0.1-0.3,0.1-0.4c0-0.2,0-0.3,0.1-0.5L25.2,34.9L25.2,34.9z M24.6,35
	c0,0.1,0,0.3,0.1,0.4c0,0.1,0,0.1,0.1,0.2c0-0.1,0.1-0.2,0.1-0.3c0-0.1,0.1-0.3,0.1-0.4v0C24.9,34.9,24.8,35,24.6,35L24.6,35z
	 M24.1,35c0,0.1,0,0.3,0.1,0.4c0,0.1,0.1,0.1,0.1,0.2c0-0.1,0.1-0.2,0.1-0.3c0-0.1,0-0.2,0-0.3L24.1,35z M23.4,35.1
	c0,0.2,0.1,0.3,0.1,0.5c0,0.1,0.1,0.1,0.1,0.2c0.1-0.2,0.1-0.4,0.2-0.7C23.7,35.1,23.6,35.1,23.4,35.1L23.4,35.1z M22.8,35.1
	c0,0.1,0,0.2,0,0.3c0,0.1,0,0.2,0.1,0.3c0-0.1,0.1-0.2,0.1-0.2c0-0.1,0.1-0.2,0.1-0.3L22.8,35.1L22.8,35.1z M22.2,35
	c0,0.1,0,0.3,0,0.4c0,0.1,0,0.2,0.1,0.2c0-0.1,0.1-0.2,0.1-0.3c0-0.1,0.1-0.2,0.1-0.4L22.2,35L22.2,35z M21.6,34.9
	c0,0.1,0,0.3,0,0.4c0,0.1,0,0.2,0,0.3c0.1-0.1,0.1-0.2,0.2-0.3c0.1-0.1,0.1-0.2,0.1-0.4L21.6,34.9z M20.9,34.8c0,0.2,0,0.3,0,0.5
	c0,0.1,0,0.3,0.1,0.4c0.1-0.1,0.1-0.2,0.2-0.3c0.1-0.2,0.1-0.4,0.2-0.6L20.9,34.8L20.9,34.8z M20.3,34.7c0,0.2-0.1,0.5-0.1,0.7
	c0,0.2,0,0.3,0,0.5c0.2-0.3,0.3-0.7,0.4-1.1L20.3,34.7L20.3,34.7z M19.7,34.5c-0.1,0.3-0.2,0.6-0.2,0.9c0,0.2-0.1,0.4-0.1,0.6
	c0.1-0.1,0.2-0.3,0.3-0.4c0.1-0.3,0.3-0.6,0.4-1L19.7,34.5L19.7,34.5z M28.3,33.8c0.3,0.7,0.7,1.4,1.1,2c0.3,0.5,0.7,1,1.2,1.3
	c0-0.2-0.1-0.4-0.1-0.6c-0.1-0.3-0.2-0.6-0.4-0.9c-0.2-0.3-0.3-0.6-0.5-0.9c-0.2-0.4-0.5-0.9-0.7-1.3C28.7,33.6,28.5,33.7,28.3,33.8
	L28.3,33.8z M28.8,35.5c-0.3-0.5-0.5-1-0.8-1.5l-0.3,0.2c0.1,0.4,0.3,0.8,0.5,1.2c0.2,0.4,0.4,0.7,0.6,1c0-0.1,0-0.2,0-0.3
	C28.9,35.9,28.9,35.7,28.8,35.5L28.8,35.5z M19.2,34.2c-0.1,0.4-0.2,0.8-0.4,1.2c0,0.2,0,0.3,0,0.5c0,0.1,0,0.1,0,0.2
	c0.1-0.2,0.3-0.4,0.4-0.7c0.2-0.3,0.3-0.7,0.4-1v0L19.2,34.2L19.2,34.2z M17.7,35.6c-0.1,0.1-0.2,0.3-0.2,0.4
	c-0.4,0.6-0.9,1.1-1.5,1.5l-0.2,0.1v-0.2c0-0.3,0-0.5,0.1-0.8c-0.2,0.3-0.4,0.5-0.6,0.8c-0.6,0.6-1.3,1.1-2,1.5
	c-0.5,0.3-1,0.6-1.5,1c0.3-0.5,0.5-1.1,0.6-1.7c0.2-0.8,0.5-1.6,1-2.4c0.2-0.3,0.4-0.5,0.6-0.8c-0.2,0.1-0.4,0.2-0.6,0.2L13,35.4
	l0.1-0.2c0.2-0.6,0.5-1.1,0.8-1.5h0c-0.2,0.1-0.4,0.1-0.6,0.1l-0.3,0l0.2-0.2c0.2-0.3,0.4-0.5,0.6-0.8c-0.1,0-0.2,0.1-0.4,0.1
	l-0.3,0l0.2-0.2c0.2-0.3,0.5-0.6,0.7-0.9c-0.2,0.1-0.4,0.1-0.6,0.1l-0.3,0l0.1-0.2c0.1-0.2,0.3-0.5,0.5-0.7
	c-0.2,0.1-0.4,0.1-0.6,0.1H13l0.1-0.2c0.1-0.2,0.3-0.4,0.4-0.6c-0.1,0-0.2,0-0.4,0H13l0.1-0.2c0.1-0.2,0.2-0.4,0.4-0.5
	c-0.2,0-0.3,0-0.5,0h-0.2l0.1-0.1c0.1-0.2,0.2-0.4,0.4-0.5h0c-0.1,0-0.3,0-0.4,0l-0.2,0l0.1-0.2c0.1-0.2,0.2-0.3,0.3-0.4
	c-0.2,0-0.3-0.1-0.4-0.1l-0.1-0.1l0.1-0.1c0.1-0.1,0.2-0.2,0.3-0.4c-0.2,0-0.3-0.1-0.5-0.1l-0.2-0.1l0.1-0.1
	c0.1-0.1,0.2-0.2,0.3-0.2c-0.2,0-0.3-0.1-0.4-0.1L12,27.1l0.1-0.1c0.1-0.1,0.2-0.2,0.3-0.3c-0.2,0-0.3,0-0.5-0.1l-0.2-0.1l0.2-0.2
	c0.1-0.1,0.3-0.2,0.5-0.3h-0.1c-0.2,0-0.4-0.1-0.6-0.2l-0.2-0.1l0.2-0.1c0.2-0.1,0.3-0.2,0.5-0.3h-0.1c-0.3-0.1-0.5-0.2-0.8-0.3
	l-0.2-0.1l0.2-0.1c0.2-0.1,0.4-0.2,0.6-0.2c-0.3-0.1-0.7-0.1-1-0.3l-0.2-0.1l0.2-0.1c0.1-0.1,0.2-0.1,0.4-0.2
	c-0.3-0.1-0.6-0.2-0.9-0.3l-0.3-0.1l0.3-0.1c0.2-0.1,0.4-0.1,0.6-0.2c-0.4-0.1-0.8-0.2-1.1-0.3l-0.2-0.1l0.2-0.1
	c0.1-0.1,0.2-0.1,0.4-0.2c-0.6-0.2-1.1-0.4-1.5-0.8l-0.2-0.1l0.2-0.1c0.2-0.1,0.5-0.1,0.7-0.2c-0.3-0.1-0.6-0.2-1-0.3
	c-0.8-0.4-1.5-0.8-2.1-1.4c-0.4-0.4-0.9-0.7-1.4-1c0.6,0,1.1,0,1.7,0c0.8-0.1,1.7-0.1,2.6,0.1c0.3,0.1,0.6,0.2,0.9,0.3
	c-0.2-0.2-0.3-0.3-0.5-0.5l-0.1-0.2h0.2c0.7,0,1.4,0.1,2,0.4v0c-0.1-0.2-0.2-0.3-0.3-0.5l-0.1-0.2l0.3,0.1c0.4,0.1,0.8,0.2,1.2,0.4
	c-0.1-0.2-0.2-0.4-0.3-0.6l-0.1-0.3l0.3,0.1c0.4,0.1,0.8,0.3,1.2,0.6c-0.2-0.2-0.3-0.5-0.4-0.7L13.4,17l0.2,0.1
	c0.3,0.1,0.5,0.2,0.7,0.3c-0.1-0.1-0.2-0.3-0.2-0.4L14,16.8l0.2,0c0.2,0.1,0.5,0.1,0.7,0.3c-0.1-0.1-0.1-0.3-0.2-0.5l-0.1-0.2
	l0.2,0.1c0.2,0,0.3,0.1,0.5,0.2c-0.1-0.1-0.1-0.2-0.1-0.4l0-0.2l0.2,0c0.2,0,0.3,0.1,0.4,0.2c-0.1-0.1-0.1-0.3-0.1-0.4l0-0.2
	l0.2,0.1c0.2,0.1,0.4,0.1,0.5,0.2c0-0.2-0.1-0.3-0.1-0.5l0-0.3l0.2,0.2l0.2,0.2c0-0.1,0-0.3,0-0.4l0-0.1l0.1,0
	c0.1,0,0.2,0.1,0.3,0.2c0-0.1,0-0.2,0-0.3l0-0.2l0.2,0.1c0.1,0,0.2,0.1,0.3,0.2c0-0.1-0.1-0.3-0.1-0.4v-0.2l0.2,0.1
	c0.1,0,0.2,0.1,0.2,0.2c0-0.2,0-0.3,0-0.5l0-0.2l0.2,0.1c0.1,0.1,0.3,0.2,0.4,0.3c-0.1-0.2-0.1-0.4-0.1-0.6v-0.3l0.2,0.1
	c0.1,0.1,0.3,0.2,0.4,0.3C19,13.8,19,13.5,19,13.3l0-0.2l0.2,0.1c0.2,0.1,0.4,0.3,0.6,0.5c-0.1-0.4-0.1-0.8-0.1-1.2v-0.2l0.2,0.1
	c0.2,0.1,0.3,0.3,0.5,0.5c0-0.2,0-0.4,0-0.5c0-0.3,0.1-0.7,0.2-1l0.1-0.2l0.1,0.1c0.2,0.2,0.3,0.4,0.4,0.6c-0.1-0.7,0-1.4,0.3-2.1
	l0.1-0.2l0.1,0.2c0.1,0.2,0.3,0.4,0.4,0.6c0-0.3,0-0.6,0-0.9c0.1-0.8,0.3-1.7,0.7-2.4c0.2-0.5,0.4-1,0.6-1.5c0.2,0.5,0.4,1,0.5,1.5
	c0.3,0.8,0.6,1.6,0.7,2.4c0,0.3,0,0.7,0,1c0.1-0.2,0.2-0.4,0.4-0.6L25,9.6l0.1,0.2c0.2,0.6,0.3,1.2,0.3,1.8c0.1-0.1,0.2-0.3,0.3-0.4
	l0.2-0.2l0,0.2c0.1,0.4,0.1,0.7,0.1,1.1c0,0.1,0,0.3,0,0.4c0.1-0.2,0.3-0.4,0.5-0.6l0.2-0.2v0.3c0,0.3,0,0.7-0.1,1
	c0.1-0.2,0.2-0.3,0.3-0.4l0.2-0.2v0.3c0,0.3,0,0.7,0,1c0,0.1,0,0.1,0,0.2c0.2-0.2,0.3-0.4,0.5-0.6l0.2-0.2v0.3c0,0.2,0,0.4,0,0.6
	c0.1-0.1,0.2-0.2,0.3-0.3l0.2-0.2V14c0,0.2,0,0.5-0.1,0.7c0.1-0.1,0.3-0.2,0.4-0.3l0.2-0.1v0.2c0,0.2,0,0.3,0,0.5
	c0.1-0.1,0.2-0.1,0.3-0.2l0.2-0.1v0.2c0,0.2,0,0.3,0,0.5c0.1-0.1,0.2-0.1,0.3-0.2l0.2-0.1l0,0.2c0,0.2,0,0.4-0.1,0.6l0.1-0.1
	c0.1-0.1,0.3-0.2,0.4-0.2l0.2-0.1v0.2c0,0.2-0.1,0.3-0.1,0.5l0,0c0.2-0.1,0.3-0.2,0.5-0.3l0.2-0.1l0,0.2c0,0.1-0.1,0.3-0.1,0.4
	c0.1-0.1,0.3-0.1,0.4-0.2l0.2,0l0,0.2c0,0.1-0.1,0.2-0.1,0.4c0.2-0.1,0.3-0.1,0.5-0.2l0.2,0l0,0.2c0,0.1-0.1,0.3-0.1,0.4
	c0.2-0.1,0.4-0.2,0.6-0.3l0.2-0.1l0,0.2c0,0.2-0.1,0.4-0.2,0.5c0.3-0.1,0.5-0.3,0.8-0.3l0.2-0.1l0,0.2c-0.1,0.2-0.2,0.4-0.3,0.6
	c0.3-0.2,0.7-0.3,1-0.4l0.3-0.1l-0.1,0.3c-0.1,0.2-0.2,0.4-0.3,0.6l0.2-0.1c0.3-0.1,0.6-0.2,0.9-0.3l0.2,0L35.1,18
	c-0.1,0.2-0.1,0.4-0.3,0.5c0.6-0.2,1.2-0.3,1.9-0.3H37l-0.1,0.2c-0.1,0.2-0.3,0.4-0.5,0.5c0.3-0.1,0.6-0.2,0.9-0.3
	c0.8-0.2,1.7-0.2,2.6-0.1c0.5,0,1,0.1,1.6,0.1c-0.4,0.3-0.8,0.6-1.2,1c-0.6,0.6-1.4,1-2.1,1.4c-0.3,0.1-0.6,0.2-1,0.3
	c0.3,0,0.5,0.1,0.7,0.2l0.2,0.1l-0.2,0.1c-0.6,0.4-1.2,0.7-1.9,0.9l0.2,0c0.2,0,0.4,0.1,0.6,0.2L37,23l-0.3,0.1
	c-0.4,0.2-0.9,0.3-1.4,0.4c0.3,0,0.5,0.1,0.8,0.3l0.2,0.1l-0.3,0.1c-0.3,0.1-0.7,0.2-1.1,0.2c0.2,0.1,0.4,0.2,0.6,0.3l0.2,0.2
	l-0.3,0.1c-0.3,0.1-0.6,0.1-0.9,0.1c0.2,0.1,0.4,0.2,0.6,0.3l0.2,0.2l-0.3,0.1c-0.2,0.1-0.5,0.1-0.7,0.1c0.2,0.1,0.4,0.2,0.5,0.4
	l0.1,0.1L34.9,26c-0.2,0-0.3,0.1-0.5,0.1c0.1,0.1,0.2,0.2,0.3,0.3l0.1,0.1l-0.1,0c-0.1,0.1-0.3,0.1-0.4,0.1c0.1,0.1,0.3,0.2,0.4,0.3
	l0.1,0.1l-0.1,0.1c-0.2,0.1-0.3,0.1-0.5,0.1c0.1,0.1,0.2,0.2,0.3,0.3l0.1,0.1l-0.1,0.1c-0.2,0.1-0.3,0.1-0.5,0.1
	c0.2,0.1,0.3,0.3,0.4,0.4l0.1,0.2l-0.2,0c-0.2,0-0.4,0.1-0.6,0.1c0.1,0.1,0.3,0.2,0.3,0.4l0.1,0.2l-0.2,0c-0.1,0-0.2,0-0.4,0
	c0.1,0.1,0.2,0.2,0.3,0.3l0.1,0.1l-0.2,0.1c-0.2,0.1-0.4,0.1-0.5,0c0.2,0.1,0.3,0.3,0.4,0.5l0.1,0.2h-0.2c-0.1,0-0.3,0-0.4,0
	c0.2,0.1,0.4,0.3,0.5,0.4l0.2,0.2h-0.3c-0.2,0-0.4,0-0.5-0.1c0.2,0.2,0.4,0.4,0.5,0.6l0.1,0.2h-0.2c-0.2,0-0.4,0-0.6-0.1
	c0.3,0.2,0.5,0.5,0.7,0.8l0.2,0.3l-0.3-0.1c-0.2,0-0.4-0.1-0.6-0.2l0.2,0.3c0.3,0.3,0.5,0.7,0.7,1c-0.4-0.1-0.8-0.2-1.2-0.4
	c0.5,0.6,1,1.3,1.4,2c-0.3-0.1-0.6-0.2-0.9-0.4c0.2,0.3,0.4,0.5,0.6,0.8c0.4,0.7,0.8,1.5,1,2.4c0.2,0.6,0.4,1.1,0.6,1.7
	c-0.5-0.4-1-0.7-1.5-1c-0.8-0.4-1.4-0.9-2-1.5c-0.2-0.2-0.4-0.5-0.6-0.8c0.1,0.2,0.1,0.5,0.1,0.8v0.2l-0.2-0.1
	c-0.6-0.4-1.1-0.9-1.5-1.5c0,0,0,0.1,0,0.1c0,0.2,0,0.4-0.1,0.6L29,36.9l-0.2-0.2c-0.3-0.4-0.6-0.8-0.8-1.3l0-0.1
	c0.1,0.4,0.1,0.9,0,1.3c-0.3-0.3-0.5-0.7-0.7-1.1c0,0.2,0,0.4-0.1,0.7l-0.1,0.3L27,36.3c-0.2-0.3-0.4-0.6-0.5-0.9
	c0,0.2-0.1,0.4-0.2,0.6l-0.1,0.2l-0.1-0.2c-0.2-0.2-0.3-0.4-0.3-0.7c0,0.2-0.1,0.4-0.2,0.6l-0.1,0.2L25.3,36
	c-0.1-0.1-0.2-0.3-0.3-0.4c0,0.1-0.1,0.3-0.2,0.4l-0.1,0.2l-0.1-0.2c-0.1-0.1-0.1-0.2-0.2-0.4c0,0.1-0.1,0.2-0.1,0.3L24.3,36
	l-0.1-0.1c-0.1-0.1-0.1-0.2-0.2-0.3c0,0.1-0.1,0.3-0.2,0.4l-0.1,0.2L23.6,36c-0.1-0.1-0.2-0.3-0.2-0.4c0-0.1,0-0.1-0.1-0.2
	c-0.1,0.2-0.1,0.3-0.3,0.5L22.9,36l-0.1-0.1c-0.1-0.1-0.2-0.3-0.2-0.4c-0.1,0.2-0.2,0.4-0.3,0.5l-0.1,0.2l-0.1-0.2
	C22,35.8,22,35.6,22,35.5c-0.1,0.2-0.2,0.3-0.3,0.4L21.5,36l-0.1-0.2c0-0.1-0.1-0.3-0.1-0.4c-0.1,0.2-0.2,0.4-0.4,0.5L20.8,36l0-0.2
	c0-0.1-0.1-0.3-0.1-0.5c-0.1,0.2-0.2,0.5-0.4,0.7l-0.2,0.2l0-0.2c0-0.2-0.1-0.4-0.1-0.6l0,0.1c-0.1,0.3-0.3,0.5-0.6,0.7l-0.2,0.1
	v-0.1c0-0.2,0-0.3,0-0.5c-0.2,0.3-0.4,0.6-0.6,0.9c0-0.2-0.1-0.5-0.1-0.7c-0.2,0.3-0.4,0.5-0.6,0.8l-0.2,0.2v-0.3
	C17.6,36.3,17.7,35.9,17.7,35.6L17.7,35.6z M18.6,34c-0.1,0.2-0.2,0.5-0.3,0.7c-0.1,0.3-0.2,0.6-0.3,0.9c0,0.3-0.1,0.5-0.1,0.8
	c0.2-0.3,0.4-0.6,0.6-0.9c0.2-0.4,0.3-0.9,0.4-1.3L18.6,34L18.6,34z M16.5,35.6c-0.2,0.3-0.3,0.6-0.4,0.9c-0.1,0.2-0.1,0.4-0.1,0.6
	c0.5-0.4,0.9-0.8,1.2-1.3c0.4-0.6,0.8-1.3,1.1-2c-0.2-0.1-0.4-0.2-0.6-0.3c-0.3,0.4-0.5,0.8-0.7,1.2C16.9,35,16.7,35.3,16.5,35.6
	L16.5,35.6z M16.7,32.7c-0.3,0.3-0.7,0.7-1,1c-0.8,0.7-1.5,1.5-2.2,2.3c-0.4,0.7-0.7,1.5-0.9,2.3c-0.1,0.3-0.2,0.6-0.3,0.9
	c0.2-0.2,0.5-0.3,0.8-0.5c0.7-0.4,1.4-0.9,2-1.5c0.7-0.8,1.3-1.7,1.8-2.6c0.2-0.4,0.5-0.8,0.7-1.2C17.3,33.2,17,33,16.7,32.7
	L16.7,32.7z"/>
<path class="st2" d="M19.4,18.5l0-0.1l0.1-0.1l0.1-0.1l0.1-0.1l0.1-0.1l0.1-0.1l0.2-0.1l0.2-0.1l0.2-0.1l0.2-0.1l0.2-0.1l0.2-0.1
	l0.2,0l0.2,0h0.2h0.4h0.2l0.2,0l0.2,0l0.1,0.1l0.1,0.1l0.1,0.1l0.1,0.1l0.1,0.1l0,0.1v0.1v1.6H23h-0.2l-0.2,0l-0.2,0L22,19.7
	l-0.3,0.1l-0.3,0.1L21.1,20l-0.3,0.1c-0.2,0.1-0.3,0.2-0.4,0.3l-0.9-1.2l-0.1-0.2l-0.1-0.2l0-0.2v-0.1L19.4,18.5L19.4,18.5z
	 M16.5,21.8l0-0.1v-0.2v-0.2l0-0.2l0.1-0.2l0.1-0.2l0.1-0.2l0.1-0.2l0.1-0.2l0.1-0.2l0.1-0.2l0.1-0.2l0.2-0.1l0.2-0.1l0.2-0.1
	l0.2-0.1l0.2-0.1l0.2-0.1l0.2-0.1l0.1,0h0.1h0.1l0.1,0l0.1,0l0.1,0.1l0.1,0.1l1,1.3l-0.1,0.1l-0.1,0.1l-0.1,0.1l-0.2,0.1l-0.2,0.2
	l-0.1,0.2l-0.2,0.3c-0.1,0.1-0.1,0.2-0.2,0.3L19,22.1l-0.2,0.3l-0.1,0.2l-0.1,0.1c0,0.1,0,0.1-0.1,0.2l-1.5-0.5L17,22.4l-0.2-0.1
	l-0.1-0.1l-0.1-0.1l-0.1-0.1L16.5,21.8L16.5,21.8z M16.3,26.4l-0.1-0.1l-0.1-0.1L16,26.1l-0.1-0.1l-0.1-0.2l-0.1-0.2l0-0.2l0-0.2V25
	v-0.2v-0.2v-0.2l0-0.2l0-0.2l0.1-0.2l0.1-0.2l0.1-0.2l0.1-0.2l0.1-0.2l0.1-0.1l0.1-0.1l0.1-0.1l0.1-0.1l0.1,0l0.1,0h0.1l0.1,0
	l1.5,0.5l0,0.1l0,0.1l0,0.1l-0.1,0.2l0,0.2l0,0.2c0,0.1,0,0.2,0,0.4v0.5c0,0.1,0,0.2,0,0.3l0,0.2l0,0.2l0,0.2v0.1l0,0.1l0,0.1v0
	l-1.4,0.5l-0.2,0h-0.2h-0.2L16.3,26.4L16.3,26.4L16.3,26.4z M18.8,30.1h-0.1h-0.1l-0.1-0.1L18.2,30L18,29.9l-0.1-0.1l-0.1-0.1
	l-0.1-0.1l-0.1-0.2l-0.1-0.2L17.2,29l-0.1-0.2L17,28.7l-0.1-0.2l-0.1-0.2l-0.1-0.2l-0.1-0.2l0-0.2v-0.2v-0.2v-0.2v-0.1l0-0.1
	l0.1-0.1l0.1-0.1l0.1-0.1l0.1-0.1l1.5-0.5l0,0.1l0,0.1l0.1,0.2l0.1,0.2l0.1,0.2l0.1,0.2c0.1,0.1,0.1,0.2,0.2,0.3
	c0.1,0.1,0.1,0.2,0.2,0.3l0.1,0.2l0.2,0.2l0.1,0.1l0.1,0.1l0.1,0l0.1,0l0.1,0h0l-0.9,1.2l-0.1,0.2L19.1,30L19,30l-0.1,0.1L18.8,30.1
	L18.8,30.1z M22.9,31.7l-0.1,0.1l-0.1,0.1l-0.1,0l-0.2,0h-0.2H22h-0.2l-0.2,0l-0.2,0l-0.2-0.1L21,31.8l-0.2-0.1l-0.2-0.1l-0.2-0.1
	l-0.2-0.1l-0.2-0.1l-0.2-0.1L19.8,31l-0.1-0.1l-0.1-0.1l-0.1-0.1l-0.1-0.1l0-0.1v-0.1v-0.1l0-0.1l0.1-0.1l1-1.3l0.1,0.1l0.1,0.1
	l0.1,0.1l0.2,0.1l0.2,0.1l0.2,0.1l0.2,0.1l0.3,0.1l0.3,0.1l0.2,0.1l0.3,0.1c0.2,0,0.3,0,0.5,0l0,1.5v0.2l0,0.2l-0.1,0.1L23,31.6
	L22.9,31.7L22.9,31.7z M27.2,30.6l0,0.1l-0.1,0.1L27,31l-0.1,0.1l-0.1,0.1l-0.1,0.1l-0.2,0.1l-0.2,0.1l-0.2,0.1l-0.2,0.1l-0.2,0.1
	l-0.2,0.1l-0.2,0l-0.2,0h-0.2h-0.4h-0.2l-0.2,0l-0.2,0l-0.1-0.1l-0.1-0.1l-0.1-0.1l-0.1-0.1l-0.1-0.1l0-0.1v-0.1v-1.6h0.2h0.2l0.2,0
	l0.2,0c0.1,0,0.2,0,0.3-0.1l0.3-0.1l0.3-0.1l0.3-0.1l0.2-0.1c0.2-0.1,0.3-0.2,0.4-0.3l0.9,1.2l0.1,0.2l0.1,0.2l0,0.2v0.1L27.2,30.6
	L27.2,30.6z M30,27.1l0,0.1v0.1v0.2v0.2l0,0.2L30,28.1l-0.1,0.2l-0.1,0.2l-0.1,0.2l-0.1,0.2L29.5,29l-0.1,0.2l-0.1,0.2L29,29.4
	l-0.2,0.1l-0.2,0.1l-0.2,0.1l-0.2,0.1L28.2,30L28.1,30l-0.2,0h-0.1h-0.1h-0.1L27.4,30l-0.1-0.1l-0.1-0.1l-1-1.3l0.1,0l0.1-0.1
	l0.2-0.1l0.2-0.1l0.2-0.2l0.2-0.3c0.1-0.1,0.1-0.2,0.2-0.3l0.2-0.3c0.1-0.1,0.1-0.2,0.2-0.3l0.1-0.2c0.1-0.2,0.1-0.3,0.2-0.5
	l1.4,0.4l0.2,0.1l0.2,0.1l0.1,0.1L30,27L30,27.1L30,27.1z M30.3,22.6l0.1,0.1l0.1,0.1l0.1,0.1l0.1,0.1l0.1,0.2l0.1,0.2l0,0.2l0,0.2
	V24v0.2v0.2v0.2l0,0.2l0,0.2l0,0.2l-0.1,0.2l-0.1,0.2l-0.1,0.2L30.5,26l-0.1,0.1l-0.1,0.1l-0.1,0.1l-0.1,0.1l-0.1,0h-0.1h-0.1
	l-0.1,0L28,25.9l0-0.1l0-0.1v-0.1l0-0.2l0-0.2l0-0.2c0-0.1,0-0.2,0-0.4s0-0.2,0-0.4c0-0.1,0-0.2,0-0.3v-0.2l0-0.2
	c0-0.2-0.1-0.4-0.2-0.5l1.4-0.5l0.2,0h0.2H30l0.1,0L30.3,22.6L30.3,22.6z M27.8,18.9H28l0.1,0l0.2,0l0.1,0.1l0.2,0.1l0.1,0.1
	l0.1,0.1l0.1,0.1l0.1,0.2l0.1,0.2l0.1,0.2l0.1,0.2l0.1,0.2l0.1,0.2l0.1,0.2l0.1,0.2l0.1,0.2l0,0.2l0,0.2v0.2v0.2l0,0.1l0,0.1
	l-0.1,0.1l-0.1,0.1l-0.1,0.1l-0.1,0.1L28,22.9v-0.1l0-0.1l-0.1-0.2l-0.1-0.2l-0.1-0.2l-0.1-0.2c-0.1-0.1-0.1-0.2-0.2-0.3
	c-0.1-0.1-0.1-0.2-0.2-0.3c-0.1-0.1-0.1-0.2-0.2-0.3L26.8,21l-0.1-0.1c-0.1-0.1-0.2-0.2-0.3-0.2l0.9-1.2l0.1-0.2l0.1-0.1l0.1-0.1
	L27.8,18.9L27.8,18.9L27.8,18.9z M23.7,17.3l0.1-0.1l0.1-0.1l0.1,0l0.2,0h0.2h0.2h0.2l0.2,0l0.2,0l0.2,0.1l0.2,0.1l0.2,0.1l0.2,0.1
	l0.2,0.1l0.2,0.1l0.2,0.1l0.2,0.1l0.1,0.1l0.1,0.1l0.1,0.1l0.1,0.1l0.1,0.1l0,0.1v0.1v0.1l0,0.1l-0.1,0.1l-1,1.3l-0.1-0.1L26,20.4
	l-0.1-0.1l-0.2-0.1l-0.2-0.1L25.3,20L25,19.8l-0.3-0.1l-0.3-0.1l-0.2,0l-0.3,0h-0.2h-0.1h-0.1h0l0-1.5v-0.2l0-0.2l0.1-0.1l0.1-0.1
	L23.7,17.3L23.7,17.3z M23.3,20c2.5,0,4.5,2,4.5,4.5c0,2.5-2,4.5-4.5,4.5c-2.5,0-4.5-2-4.5-4.5C18.8,22,20.8,20,23.3,20z M23.3,16.5
	c4.4,0,8,3.6,8,8c0,4.4-3.6,8-8,8c-4.4,0-8-3.6-8-8C15.3,20.1,18.9,16.5,23.3,16.5L23.3,16.5z"/>
<path class="st1" d="M19.4,18.5l0-0.1l0.1-0.1l0.1-0.1l0.1-0.1l0.1-0.1l0.1-0.1l0.2-0.1l0.2-0.1l0.2-0.1l0.2-0.1l0.2-0.1l0.2-0.1
	l0.2,0l0.2,0h0.2h0.4h0.2l0.2,0l0.2,0l0.1,0.1l0.1,0.1l0.1,0.1l0.1,0.1l0.1,0.1l0,0.1v0.1v1.6H23h-0.2l-0.2,0l-0.2,0L22,19.7
	l-0.3,0.1l-0.3,0.1L21.1,20l-0.3,0.1c-0.2,0.1-0.3,0.2-0.4,0.3l-0.9-1.2l-0.1-0.2l-0.1-0.2l0-0.2v-0.1L19.4,18.5L19.4,18.5z
	 M16.5,21.8l0-0.1v-0.2v-0.2l0-0.2l0.1-0.2l0.1-0.2l0.1-0.2l0.1-0.2l0.1-0.2l0.1-0.2l0.1-0.2l0.1-0.2l0.2-0.1l0.2-0.1l0.2-0.1
	l0.2-0.1l0.2-0.1l0.2-0.1l0.2-0.1l0.1,0h0.1h0.1l0.1,0l0.1,0l0.1,0.1l0.1,0.1l1,1.3l-0.1,0.1l-0.1,0.1l-0.1,0.1l-0.2,0.1l-0.2,0.2
	l-0.1,0.2l-0.2,0.3c-0.1,0.1-0.1,0.2-0.2,0.3L19,22.1l-0.2,0.3l-0.1,0.2l-0.1,0.1c0,0.1,0,0.1-0.1,0.2l-1.5-0.5L17,22.4l-0.2-0.1
	l-0.1-0.1l-0.1-0.1l-0.1-0.1L16.5,21.8L16.5,21.8z M16.3,26.4l-0.1-0.1l-0.1-0.1L16,26.1l-0.1-0.1l-0.1-0.2l-0.1-0.2l0-0.2l0-0.2V25
	v-0.2v-0.2v-0.2l0-0.2l0-0.2l0.1-0.2l0.1-0.2l0.1-0.2l0.1-0.2l0.1-0.2l0.1-0.1l0.1-0.1l0.1-0.1l0.1-0.1l0.1,0l0.1,0h0.1l0.1,0
	l1.5,0.5l0,0.1l0,0.1l0,0.1l-0.1,0.2l0,0.2l0,0.2c0,0.1,0,0.2,0,0.4v0.5c0,0.1,0,0.2,0,0.3l0,0.2l0,0.2l0,0.2v0.1l0,0.1l0,0.1v0
	l-1.4,0.5l-0.2,0h-0.2h-0.2L16.3,26.4L16.3,26.4L16.3,26.4z M18.8,30.1h-0.1h-0.1l-0.1-0.1L18.2,30L18,29.9l-0.1-0.1l-0.1-0.1
	l-0.1-0.1l-0.1-0.2l-0.1-0.2L17.2,29l-0.1-0.2L17,28.7l-0.1-0.2l-0.1-0.2l-0.1-0.2l-0.1-0.2l0-0.2v-0.2v-0.2v-0.2v-0.1l0-0.1
	l0.1-0.1l0.1-0.1l0.1-0.1l0.1-0.1l1.5-0.5l0,0.1l0,0.1l0.1,0.2l0.1,0.2l0.1,0.2l0.1,0.2c0.1,0.1,0.1,0.2,0.2,0.3
	c0.1,0.1,0.1,0.2,0.2,0.3l0.1,0.2l0.2,0.2l0.1,0.1l0.1,0.1l0.1,0l0.1,0l0.1,0h0l-0.9,1.2l-0.1,0.2L19.1,30L19,30l-0.1,0.1L18.8,30.1
	L18.8,30.1z M22.9,31.7l-0.1,0.1l-0.1,0.1l-0.1,0l-0.2,0h-0.2H22h-0.2l-0.2,0l-0.2,0l-0.2-0.1L21,31.8l-0.2-0.1l-0.2-0.1l-0.2-0.1
	l-0.2-0.1l-0.2-0.1l-0.2-0.1L19.8,31l-0.1-0.1l-0.1-0.1l-0.1-0.1l-0.1-0.1l0-0.1v-0.1v-0.1l0-0.1l0.1-0.1l1-1.3l0.1,0.1l0.1,0.1
	l0.1,0.1l0.2,0.1l0.2,0.1l0.2,0.1l0.2,0.1l0.3,0.1l0.3,0.1l0.2,0.1l0.3,0.1c0.2,0,0.3,0,0.5,0l0,1.5v0.2l0,0.2l-0.1,0.1L23,31.6
	L22.9,31.7L22.9,31.7z M27.2,30.6l0,0.1l-0.1,0.1L27,31l-0.1,0.1l-0.1,0.1l-0.1,0.1l-0.2,0.1l-0.2,0.1l-0.2,0.1l-0.2,0.1l-0.2,0.1
	l-0.2,0.1l-0.2,0l-0.2,0h-0.2h-0.4h-0.2l-0.2,0l-0.2,0l-0.1-0.1l-0.1-0.1l-0.1-0.1l-0.1-0.1l-0.1-0.1l0-0.1v-0.1v-1.6h0.2h0.2l0.2,0
	l0.2,0c0.1,0,0.2,0,0.3-0.1l0.3-0.1l0.3-0.1l0.3-0.1l0.2-0.1c0.2-0.1,0.3-0.2,0.4-0.3l0.9,1.2l0.1,0.2l0.1,0.2l0,0.2v0.1L27.2,30.6
	L27.2,30.6z M30,27.1l0,0.1v0.1v0.2v0.2l0,0.2L30,28.1l-0.1,0.2l-0.1,0.2l-0.1,0.2l-0.1,0.2L29.5,29l-0.1,0.2l-0.1,0.2L29,29.4
	l-0.2,0.1l-0.2,0.1l-0.2,0.1l-0.2,0.1L28.2,30L28.1,30l-0.2,0h-0.1h-0.1h-0.1L27.4,30l-0.1-0.1l-0.1-0.1l-1-1.3l0.1,0l0.1-0.1
	l0.2-0.1l0.2-0.1l0.2-0.2l0.2-0.3c0.1-0.1,0.1-0.2,0.2-0.3l0.2-0.3c0.1-0.1,0.1-0.2,0.2-0.3l0.1-0.2c0.1-0.2,0.1-0.3,0.2-0.5
	l1.4,0.4l0.2,0.1l0.2,0.1l0.1,0.1L30,27L30,27.1L30,27.1z M30.3,22.6l0.1,0.1l0.1,0.1l0.1,0.1l0.1,0.1l0.1,0.2l0.1,0.2l0,0.2l0,0.2
	V24v0.2v0.2v0.2l0,0.2l0,0.2l0,0.2l-0.1,0.2l-0.1,0.2l-0.1,0.2L30.5,26l-0.1,0.1l-0.1,0.1l-0.1,0.1l-0.1,0.1l-0.1,0h-0.1h-0.1
	l-0.1,0L28,25.9l0-0.1l0-0.1v-0.1l0-0.2l0-0.2l0-0.2c0-0.1,0-0.2,0-0.4s0-0.2,0-0.4c0-0.1,0-0.2,0-0.3v-0.2l0-0.2
	c0-0.2-0.1-0.4-0.2-0.5l1.4-0.5l0.2,0h0.2H30l0.1,0L30.3,22.6L30.3,22.6z M27.8,18.9H28l0.1,0l0.2,0l0.1,0.1l0.2,0.1l0.1,0.1
	l0.1,0.1l0.1,0.1l0.1,0.2l0.1,0.2l0.1,0.2l0.1,0.2l0.1,0.2l0.1,0.2l0.1,0.2l0.1,0.2l0.1,0.2l0,0.2l0,0.2v0.2v0.2l0,0.1l0,0.1
	l-0.1,0.1l-0.1,0.1l-0.1,0.1l-0.1,0.1L28,22.9v-0.1l0-0.1l-0.1-0.2l-0.1-0.2l-0.1-0.2l-0.1-0.2c-0.1-0.1-0.1-0.2-0.2-0.3
	c-0.1-0.1-0.1-0.2-0.2-0.3c-0.1-0.1-0.1-0.2-0.2-0.3L26.8,21l-0.1-0.1c-0.1-0.1-0.2-0.2-0.3-0.2l0.9-1.2l0.1-0.2l0.1-0.1l0.1-0.1
	L27.8,18.9L27.8,18.9L27.8,18.9z M23.7,17.3l0.1-0.1l0.1-0.1l0.1,0l0.2,0h0.2h0.2h0.2l0.2,0l0.2,0l0.2,0.1l0.2,0.1l0.2,0.1l0.2,0.1
	l0.2,0.1l0.2,0.1l0.2,0.1l0.2,0.1l0.1,0.1l0.1,0.1l0.1,0.1l0.1,0.1l0.1,0.1l0,0.1v0.1v0.1l0,0.1l-0.1,0.1l-1,1.3l-0.1-0.1L26,20.4
	l-0.1-0.1l-0.2-0.1l-0.2-0.1L25.3,20L25,19.8l-0.3-0.1l-0.3-0.1l-0.2,0l-0.3,0h-0.2h-0.1h-0.1h0l0-1.5v-0.2l0-0.2l0.1-0.1l0.1-0.1
	L23.7,17.3L23.7,17.3z M23.3,20c2.5,0,4.5,2,4.5,4.5c0,2.5-2,4.5-4.5,4.5c-2.5,0-4.5-2-4.5-4.5C18.8,22,20.8,20,23.3,20z M23.3,16.5
	c4.4,0,8,3.6,8,8c0,4.4-3.6,8-8,8c-4.4,0-8-3.6-8-8C15.3,20.1,18.9,16.5,23.3,16.5L23.3,16.5z"/>
<path class="st0" d="M17.6,20.7l0.4-0.7l0.1-0.2l0.1,0.1l0.3,0.2c0.2,0.1,0.3,0.3,0.5,0.4c0.1,0.1,0.1,0.3,0.1,0.5
	c0,0.2-0.1,0.3-0.2,0.5c-0.1,0.1-0.3,0.2-0.4,0.3c-0.2,0.1-0.4,0.1-0.6,0l0.1-0.3c0.1,0,0.3,0,0.4,0c0.1-0.1,0.2-0.2,0.4-0.3
	c0.1-0.1,0.1-0.2,0.1-0.3c0-0.1,0-0.1,0-0.2c-0.2-0.1-0.3-0.3-0.5-0.4l-0.1-0.1l-0.3,0.6L17.6,20.7L17.6,20.7z"/>
<path class="st1" d="M17.6,20.7l0.4-0.7l0.1-0.2l0.1,0.1l0.3,0.2c0.2,0.1,0.3,0.3,0.5,0.4c0.1,0.1,0.1,0.3,0.1,0.5
	c0,0.2-0.1,0.3-0.2,0.5c-0.1,0.1-0.3,0.2-0.4,0.3c-0.2,0.1-0.4,0.1-0.6,0l0.1-0.3c0.1,0,0.3,0,0.4,0c0.1-0.1,0.2-0.2,0.4-0.3
	c0.1-0.1,0.1-0.2,0.1-0.3c0-0.1,0-0.1,0-0.2c-0.2-0.1-0.3-0.3-0.5-0.4l-0.1-0.1l-0.3,0.6L17.6,20.7L17.6,20.7z"/>
<path class="st0" d="M17.6,25.6c-0.3,0-0.7,0-1,0l-0.1,0l0-0.1c-0.2-0.4-0.2-0.9-0.1-1.3c0-0.2,0.1-0.4,0.3-0.5
	c0.1-0.1,0.3-0.2,0.5-0.2c0.2,0,0.4,0.1,0.5,0.2c0.1,0.1,0.2,0.3,0.3,0.5c0,0.3,0,0.5,0,0.8v0.4v0.2h-0.2
	C17.5,25.5,17.7,25.5,17.6,25.6L17.6,25.6z M16.8,25.3c0.3,0,0.5,0,0.8,0c0-0.1,0-0.2,0-0.2c0-0.3,0-0.5,0-0.8
	c0-0.1-0.1-0.2-0.2-0.3c-0.1-0.1-0.2-0.1-0.3-0.1c-0.1,0-0.2,0-0.2,0.1c-0.1,0.1-0.1,0.2-0.2,0.3c0,0.2-0.1,0.4,0,0.6
	C16.7,25,16.7,25.1,16.8,25.3L16.8,25.3z"/>
<path class="st1" d="M17.6,25.6c-0.3,0-0.7,0-1,0l-0.1,0l0-0.1c-0.2-0.4-0.2-0.9-0.1-1.3c0-0.2,0.1-0.4,0.3-0.5
	c0.1-0.1,0.3-0.2,0.5-0.2c0.2,0,0.4,0.1,0.5,0.2c0.1,0.1,0.2,0.3,0.3,0.5c0,0.3,0,0.5,0,0.8v0.4v0.2h-0.2
	C17.5,25.5,17.7,25.5,17.6,25.6L17.6,25.6z M16.8,25.3c0.3,0,0.5,0,0.8,0c0-0.1,0-0.2,0-0.2c0-0.3,0-0.5,0-0.8
	c0-0.1-0.1-0.2-0.2-0.3c-0.1-0.1-0.2-0.1-0.3-0.1c-0.1,0-0.2,0-0.2,0.1c-0.1,0.1-0.1,0.2-0.2,0.3c0,0.2-0.1,0.4,0,0.6
	C16.7,25,16.7,25.1,16.8,25.3L16.8,25.3z"/>
<path class="st0" d="M20.5,18.6c0,0.1-0.1,0.2-0.1,0.3c0.2-0.1,0.5-0.2,0.7-0.3c0.3-0.1,0.5-0.2,0.8-0.2c-0.1-0.1-0.1-0.1-0.2-0.2
	c-0.2-0.1-0.4-0.1-0.6,0L21,18.2C20.8,18.3,20.6,18.4,20.5,18.6L20.5,18.6z M20.5,19.7c0,0-0.1-0.1-0.1-0.1
	c-0.1-0.1-0.2-0.3-0.2-0.4c-0.1-0.3-0.1-0.5,0.1-0.8c0.2-0.2,0.4-0.4,0.7-0.5l0.2-0.1c0.2-0.1,0.5-0.1,0.7,0
	c0.2,0.1,0.4,0.3,0.5,0.5c0,0,0,0.1,0,0.1c0,0.2,0.1,0.3,0.1,0.5c0,0.1,0,0.1,0,0.2l-0.3,0c0-0.1,0-0.1,0-0.2c0-0.1,0-0.2,0-0.3
	c-0.3,0-0.5,0.1-0.8,0.2c-0.3,0.1-0.5,0.2-0.7,0.3c0,0.1,0.1,0.1,0.1,0.2l0.1,0.2L20.5,19.7L20.5,19.7z"/>
<path class="st1" d="M20.5,18.6c0,0.1-0.1,0.2-0.1,0.3c0.2-0.1,0.5-0.2,0.7-0.3c0.3-0.1,0.5-0.2,0.8-0.2c-0.1-0.1-0.1-0.1-0.2-0.2
	c-0.2-0.1-0.4-0.1-0.6,0L21,18.2C20.8,18.3,20.6,18.4,20.5,18.6L20.5,18.6z M20.5,19.7c0,0-0.1-0.1-0.1-0.1
	c-0.1-0.1-0.2-0.3-0.2-0.4c-0.1-0.3-0.1-0.5,0.1-0.8c0.2-0.2,0.4-0.4,0.7-0.5l0.2-0.1c0.2-0.1,0.5-0.1,0.7,0
	c0.2,0.1,0.4,0.3,0.5,0.5c0,0,0,0.1,0,0.1c0,0.2,0.1,0.3,0.1,0.5c0,0.1,0,0.1,0,0.2l-0.3,0c0-0.1,0-0.1,0-0.2c0-0.1,0-0.2,0-0.3
	c-0.3,0-0.5,0.1-0.8,0.2c-0.3,0.1-0.5,0.2-0.7,0.3c0,0.1,0.1,0.1,0.1,0.2l0.1,0.2L20.5,19.7L20.5,19.7z"/>
<path class="st0" d="M26.4,18.4c0,0.2,0,0.4,0,0.6c-0.1,0.2-0.1,0.4-0.3,0.6l-0.3-0.2c0.1-0.1,0.1-0.2,0.2-0.4
	c-0.2-0.1-0.5-0.2-0.7-0.3c-0.2-0.1-0.5-0.1-0.7-0.1c0,0.1,0,0.2,0,0.4l-0.3,0c0-0.2,0-0.4,0.1-0.6c0.1-0.2,0.2-0.4,0.3-0.6l0.3,0.2
	c-0.1,0.1-0.1,0.2-0.2,0.3c0.2,0,0.5,0.1,0.7,0.1c0.2,0.1,0.5,0.2,0.7,0.3c0-0.1,0-0.2,0-0.3L26.4,18.4L26.4,18.4z"/>
<path class="st1" d="M26.4,18.4c0,0.2,0,0.4,0,0.6c-0.1,0.2-0.1,0.4-0.3,0.6l-0.3-0.2c0.1-0.1,0.1-0.2,0.2-0.4
	c-0.2-0.1-0.5-0.2-0.7-0.3c-0.2-0.1-0.5-0.1-0.7-0.1c0,0.1,0,0.2,0,0.4l-0.3,0c0-0.2,0-0.4,0.1-0.6c0.1-0.2,0.2-0.4,0.3-0.6l0.3,0.2
	c-0.1,0.1-0.1,0.2-0.2,0.3c0.2,0,0.5,0.1,0.7,0.1c0.2,0.1,0.5,0.2,0.7,0.3c0-0.1,0-0.2,0-0.3L26.4,18.4L26.4,18.4z"/>
<path class="st0" d="M27.1,20.6c0-0.2,0.1-0.4,0.3-0.5c0.1-0.1,0.3-0.2,0.5-0.3c0.2,0,0.3,0,0.5,0.1c0.1,0.1,0.3,0.3,0.3,0.4
	c0,0.1,0,0.2,0,0.3c0.1,0,0.1,0,0.2,0.1h0c0.1,0.1,0.2,0.2,0.3,0.4c0,0.2,0,0.3,0,0.5c0,0,0,0,0,0c-0.1,0.2-0.3,0.3-0.4,0.4
	C28.5,22,28.3,22,28.1,22l0-0.3c0.2,0,0.3,0,0.4-0.1c0.1-0.1,0.2-0.1,0.3-0.3c0-0.1,0-0.1,0-0.2c0-0.1-0.1-0.1-0.1-0.2
	c0,0-0.1,0-0.1,0h-0.2l-0.3,0l0.1-0.3l0.1-0.1c0,0,0.1-0.1,0.1-0.2c0-0.1-0.1-0.2-0.2-0.3c-0.1-0.1-0.1-0.1-0.2-0.1
	c-0.1,0-0.3,0.1-0.3,0.2c-0.1,0.1-0.2,0.2-0.2,0.4L27.1,20.6L27.1,20.6z"/>
<path class="st1" d="M27.1,20.6c0-0.2,0.1-0.4,0.3-0.5c0.1-0.1,0.3-0.2,0.5-0.3c0.2,0,0.3,0,0.5,0.1c0.1,0.1,0.3,0.3,0.3,0.4
	c0,0.1,0,0.2,0,0.3c0.1,0,0.1,0,0.2,0.1h0c0.1,0.1,0.2,0.2,0.3,0.4c0,0.2,0,0.3,0,0.5c0,0,0,0,0,0c-0.1,0.2-0.3,0.3-0.4,0.4
	C28.5,22,28.3,22,28.1,22l0-0.3c0.2,0,0.3,0,0.4-0.1c0.1-0.1,0.2-0.1,0.3-0.3c0-0.1,0-0.1,0-0.2c0-0.1-0.1-0.1-0.1-0.2
	c0,0-0.1,0-0.1,0h-0.2l-0.3,0l0.1-0.3l0.1-0.1c0,0,0.1-0.1,0.1-0.2c0-0.1-0.1-0.2-0.2-0.3c-0.1-0.1-0.1-0.1-0.2-0.1
	c-0.1,0-0.3,0.1-0.3,0.2c-0.1,0.1-0.2,0.2-0.2,0.4L27.1,20.6L27.1,20.6z"/>
<path class="st0" d="M29.6,23.8c0,0-0.1,0-0.1-0.1c0,0.3,0,0.5,0,0.8c0,0.3,0,0.5-0.1,0.8c0.1,0,0.1,0,0.2,0
	c0.1-0.1,0.2-0.2,0.3-0.3c0.1-0.1,0.1-0.3,0.1-0.5c0-0.1,0-0.3-0.1-0.4C29.8,24,29.7,23.9,29.6,23.8L29.6,23.8z M28.7,23.5
	L28.7,23.5c0.4-0.1,0.7-0.1,1.1,0c0.2,0.1,0.3,0.2,0.4,0.4c0.1,0.2,0.1,0.4,0.1,0.6c0,0.2,0,0.4-0.1,0.6c-0.1,0.2-0.2,0.3-0.4,0.4
	c-0.3,0.1-0.7,0.1-1,0h-0.1l0.1-0.3h0.1l0.2,0c0-0.2,0.1-0.5,0.1-0.7c0-0.3,0-0.5,0-0.8l-0.3,0.1h0L28.7,23.5z"/>
<path class="st1" d="M29.6,23.8c0,0-0.1,0-0.1-0.1c0,0.3,0,0.5,0,0.8c0,0.3,0,0.5-0.1,0.8c0.1,0,0.1,0,0.2,0
	c0.1-0.1,0.2-0.2,0.3-0.3c0.1-0.1,0.1-0.3,0.1-0.5c0-0.1,0-0.3-0.1-0.4C29.8,24,29.7,23.9,29.6,23.8L29.6,23.8z M28.7,23.5
	L28.7,23.5c0.4-0.1,0.7-0.1,1.1,0c0.2,0.1,0.3,0.2,0.4,0.4c0.1,0.2,0.1,0.4,0.1,0.6c0,0.2,0,0.4-0.1,0.6c-0.1,0.2-0.2,0.3-0.4,0.4
	c-0.3,0.1-0.7,0.1-1,0h-0.1l0.1-0.3h0.1l0.2,0c0-0.2,0.1-0.5,0.1-0.7c0-0.3,0-0.5,0-0.8l-0.3,0.1h0L28.7,23.5z"/>
<path class="st0" d="M28.4,27.6L28,27.4c0,0.1-0.1,0.1-0.1,0.2c-0.1,0.2-0.2,0.3-0.3,0.5c-0.2,0.3-0.2,0.6,0.1,0.7
	c0.4,0.2,0.9-0.5,1.1-1C28.7,27.8,28.6,27.7,28.4,27.6L28.4,27.6z M28.1,27.1l0.5,0.3l0.5,0.3l0.1,0.1l-0.1,0.1L29.1,28
	c-0.3,0.5-0.8,1.5-1.6,1.1c-0.5-0.3-0.4-0.7-0.2-1.2c0.1-0.2,0.2-0.4,0.3-0.5c0.1-0.1,0.1-0.2,0.2-0.3l0.1-0.1L28.1,27.1L28.1,27.1z
	"/>
<path class="st1" d="M28.4,27.6L28,27.4c0,0.1-0.1,0.1-0.1,0.2c-0.1,0.2-0.2,0.3-0.3,0.5c-0.2,0.3-0.2,0.6,0.1,0.7
	c0.4,0.2,0.9-0.5,1.1-1C28.7,27.8,28.6,27.7,28.4,27.6L28.4,27.6z M28.1,27.1l0.5,0.3l0.5,0.3l0.1,0.1l-0.1,0.1L29.1,28
	c-0.3,0.5-0.8,1.5-1.6,1.1c-0.5-0.3-0.4-0.7-0.2-1.2c0.1-0.2,0.2-0.4,0.3-0.5c0.1-0.1,0.1-0.2,0.2-0.3l0.1-0.1L28.1,27.1L28.1,27.1z
	"/>
<path class="st0" d="M24.6,30.6c0,0,0,0.1,0.1,0.1c0.1,0.2,0.4,0.3,0.9,0.1c0.1,0,0.3-0.1,0.4-0.2c0.1-0.1,0.1-0.2,0.2-0.3
	c0-0.1,0-0.2,0-0.2c-0.3,0.1-0.5,0.2-0.8,0.3C25.1,30.5,24.8,30.5,24.6,30.6L24.6,30.6z M24.5,29.9c0,0.1,0,0.3,0,0.4
	c0.2,0,0.5-0.1,0.7-0.2c0.3-0.1,0.5-0.2,0.8-0.3c-0.1-0.1-0.1-0.2-0.2-0.3l0.3-0.2c0.2,0.2,0.3,0.4,0.3,0.6c0.1,0.2,0.1,0.3,0,0.5
	c0,0.2-0.1,0.4-0.3,0.5c-0.1,0.1-0.3,0.2-0.5,0.3c-0.7,0.2-1.1,0.1-1.3-0.3c-0.2-0.3-0.2-0.7-0.2-1L24.5,29.9L24.5,29.9z"/>
<path class="st1" d="M24.6,30.6c0,0,0,0.1,0.1,0.1c0.1,0.2,0.4,0.3,0.9,0.1c0.1,0,0.3-0.1,0.4-0.2c0.1-0.1,0.1-0.2,0.2-0.3
	c0-0.1,0-0.2,0-0.2c-0.3,0.1-0.5,0.2-0.8,0.3C25.1,30.5,24.8,30.5,24.6,30.6L24.6,30.6z M24.5,29.9c0,0.1,0,0.3,0,0.4
	c0.2,0,0.5-0.1,0.7-0.2c0.3-0.1,0.5-0.2,0.8-0.3c-0.1-0.1-0.1-0.2-0.2-0.3l0.3-0.2c0.2,0.2,0.3,0.4,0.3,0.6c0.1,0.2,0.1,0.3,0,0.5
	c0,0.2-0.1,0.4-0.3,0.5c-0.1,0.1-0.3,0.2-0.5,0.3c-0.7,0.2-1.1,0.1-1.3-0.3c-0.2-0.3-0.2-0.7-0.2-1L24.5,29.9L24.5,29.9z"/>
<path class="st0" d="M20.7,30.5C20.8,30.5,20.8,30.6,20.7,30.5c0.2,0.2,0.4,0.3,0.6,0.4c0.2,0,0.4-0.1,0.5-0.2l0.1-0.1
	c0,0,0,0,0-0.1c0-0.1,0.1-0.2,0-0.3c0-0.1-0.1-0.2-0.2-0.3c-0.1-0.1-0.1-0.1-0.2-0.2c-0.2-0.1-0.4-0.2-0.6-0.2
	c-0.1,0-0.3,0.1-0.4,0.2c0.1,0.1,0.2,0.1,0.3,0.2c0.2,0.1,0.3,0.1,0.5,0.2l-0.1,0.3c-0.2,0-0.4-0.1-0.6-0.2
	c-0.2-0.1-0.4-0.2-0.5-0.3L20.2,30l0.1-0.1c0.2-0.2,0.4-0.4,0.7-0.5c0.3-0.1,0.6,0,0.8,0.2c0.1,0.1,0.2,0.1,0.3,0.2
	c0.1,0.1,0.2,0.3,0.3,0.5c0,0.2,0,0.4-0.1,0.5c0,0-0.1,0.1-0.1,0.1l-0.1,0.1c-0.2,0.2-0.5,0.3-0.8,0.3c-0.3,0-0.6-0.2-0.8-0.4
	l-0.1-0.1L20.7,30.5L20.7,30.5z"/>
<path class="st1" d="M20.7,30.5C20.8,30.5,20.8,30.6,20.7,30.5c0.2,0.2,0.4,0.3,0.6,0.4c0.2,0,0.4-0.1,0.5-0.2l0.1-0.1
	c0,0,0,0,0-0.1c0-0.1,0.1-0.2,0-0.3c0-0.1-0.1-0.2-0.2-0.3c-0.1-0.1-0.1-0.1-0.2-0.2c-0.2-0.1-0.4-0.2-0.6-0.2
	c-0.1,0-0.3,0.1-0.4,0.2c0.1,0.1,0.2,0.1,0.3,0.2c0.2,0.1,0.3,0.1,0.5,0.2l-0.1,0.3c-0.2,0-0.4-0.1-0.6-0.2
	c-0.2-0.1-0.4-0.2-0.5-0.3L20.2,30l0.1-0.1c0.2-0.2,0.4-0.4,0.7-0.5c0.3-0.1,0.6,0,0.8,0.2c0.1,0.1,0.2,0.1,0.3,0.2
	c0.1,0.1,0.2,0.3,0.3,0.5c0,0.2,0,0.4-0.1,0.5c0,0-0.1,0.1-0.1,0.1l-0.1,0.1c-0.2,0.2-0.5,0.3-0.8,0.3c-0.3,0-0.6-0.2-0.8-0.4
	l-0.1-0.1L20.7,30.5L20.7,30.5z"/>
<path class="st0" d="M17.9,27.7c-0.1,0.1-0.1,0.1-0.1,0.2c-0.1,0.1-0.1,0.3,0,0.4c0,0.1,0.1,0.1,0.1,0.2c0.1,0.2,0.2,0.3,0.4,0.4
	c0.1,0.1,0.2,0.1,0.3,0.1c0.1,0,0.2,0,0.3-0.1C18.4,28.6,18.1,28.1,17.9,27.7L17.9,27.7z M18.5,27.2c-0.1,0-0.2,0.1-0.4,0.2
	c0.1,0.2,0.2,0.5,0.4,0.7c0.2,0.2,0.3,0.4,0.5,0.6c0.1-0.1,0.2-0.2,0.2-0.3l0.3,0.2c-0.1,0.2-0.3,0.4-0.5,0.6
	c-0.1,0.1-0.3,0.2-0.5,0.2c-0.2,0-0.4,0-0.5-0.1c-0.2-0.1-0.3-0.3-0.5-0.5c-0.1-0.1-0.1-0.2-0.1-0.2c-0.1-0.2-0.1-0.5,0-0.7
	c0.1-0.2,0.3-0.4,0.5-0.6c0.1-0.1,0.3-0.2,0.5-0.2L18.5,27.2L18.5,27.2z"/>
<path class="st1" d="M17.9,27.7c-0.1,0.1-0.1,0.1-0.1,0.2c-0.1,0.1-0.1,0.3,0,0.4c0,0.1,0.1,0.1,0.1,0.2c0.1,0.2,0.2,0.3,0.4,0.4
	c0.1,0.1,0.2,0.1,0.3,0.1c0.1,0,0.2,0,0.3-0.1C18.4,28.6,18.1,28.1,17.9,27.7L17.9,27.7z M18.5,27.2c-0.1,0-0.2,0.1-0.4,0.2
	c0.1,0.2,0.2,0.5,0.4,0.7c0.2,0.2,0.3,0.4,0.5,0.6c0.1-0.1,0.2-0.2,0.2-0.3l0.3,0.2c-0.1,0.2-0.3,0.4-0.5,0.6
	c-0.1,0.1-0.3,0.2-0.5,0.2c-0.2,0-0.4,0-0.5-0.1c-0.2-0.1-0.3-0.3-0.5-0.5c-0.1-0.1-0.1-0.2-0.1-0.2c-0.1-0.2-0.1-0.5,0-0.7
	c0.1-0.2,0.3-0.4,0.5-0.6c0.1-0.1,0.3-0.2,0.5-0.2L18.5,27.2L18.5,27.2z"/>
</svg>
