<?xml version="1.0" encoding="utf-8"?>
<!-- Generator: Adobe Illustrator 22.0.0, SVG Export Plug-In . SVG Version: 6.00 Build 0)  -->
<svg version="1.1" id="Layer_1" xmlns="http://www.w3.org/2000/svg" xmlns:xlink="http://www.w3.org/1999/xlink" x="0px" y="0px"
	 viewBox="0 0 60 60" style="enable-background:new 0 0 60 60;" xml:space="preserve">
<style type="text/css">
	.st0{display:none;}
	.st1{display:inline;fill:#9D46F5;}
	.st2{display:inline;fill:#8630DD;}
	.st3{display:inline;fill:#FFFFFF;}
	.st4{display:inline;}
	.st5{fill:#8630DD;}
	.st6{display:inline;fill:#EEEEEC;}
	.st7{display:inline;fill:#F0F0F0;}
	.st8{clip-path:url(#SVGID_2_);fill:#8630DD;}
	.st9{clip-path:url(#SVGID_4_);fill:#8630DD;}
	.st10{clip-path:url(#SVGID_6_);fill:#8630DD;}
	.st11{clip-path:url(#SVGID_8_);fill:#8630DD;}
	.st12{clip-path:url(#SVGID_10_);fill:#9D46F5;}
	.st13{clip-path:url(#SVGID_12_);fill:#8630DD;}
	.st14{clip-path:url(#SVGID_14_);fill:#FFFFFF;}
	.st15{clip-path:url(#SVGID_16_);fill:#8630DD;}
	.st16{clip-path:url(#SVGID_18_);fill:#9D46F5;}
	.st17{clip-path:url(#SVGID_20_);fill:#FFFFFF;}
	.st18{clip-path:url(#SVGID_22_);fill:#8630DD;}
	.st19{clip-path:url(#SVGID_24_);fill:#FFFFFF;}
	.st20{clip-path:url(#SVGID_26_);fill:#9D46F5;}
	.st21{clip-path:url(#SVGID_28_);fill:#8630DD;}
	.st22{fill:#F0F0F0;}
	.st23{fill:#9D46F5;}
</style>
<g class="st0">
	<path class="st1" d="M80-3.5c19.4-51.7,21.1-103,20.4-127.7c-0.1-3.5-5-4.3-6.2-1L-2.4,124.6c-5-7.3-12.2-13.2-21.1-16.5
		c-23.2-8.7-49.2,3.1-57.8,26.4c-8.9,24.2,4.9,50.6,29.5,58.6C11.6,213.6,33.5,120.3,80-3.5L80-3.5z M-15.2,159.1
		c-5,13.2-19.7,19.9-33,15c-13.2-5-19.9-19.7-15-33c5-13.2,19.7-19.9,33-15C-17,131.1-10.2,145.8-15.2,159.1L-15.2,159.1z"/>
	<path class="st2" d="M-20.1-5.1c46.5,123.7,68.4,217.1,131.8,196.5c24.5-8,38.4-34.4,29.5-58.6c-8.6-23.3-34.6-35.1-57.8-26.4
		c-8.9,3.3-16.1,9.2-21.1,16.5l-96.6-256.8c-1.2-3.3-6.1-2.5-6.2,1C-41.2-108.1-39.5-56.8-20.1-5.1L-20.1-5.1z M75.2,157.3
		c-5-13.2,1.7-28,14.9-33c13.2-5,28,1.7,33,15c5,13.2-1.7,28-15,33C94.9,177.3,80.1,170.6,75.2,157.3L75.2,157.3z"/>
	<path class="st3" d="M36.4,82.5c0,3.3-2.7,6-6,6s-6-2.7-6-6s2.7-6,6-6C33.8,76.5,36.4,79.2,36.4,82.5L36.4,82.5z"/>
</g>
<g class="st0">
	<g class="st4">
		<g>
			<path class="st5" d="M32.3-86c-108.9-70.5-159,40.2-121.7,96.1C-45,76.7,13.7,119.2,28.7,129.4c2.2,1.5,5,1.5,7.2,0
				c15-10.2,73.8-52.8,118.1-119.3C191.5-45.9,141.3-156.5,32.3-86L32.3-86z"/>
		</g>
	</g>
	<path class="st1" d="M31.1-16.3c-21,0-38,17.1-38,38c0,19.2,14.2,30.7,38,30.7s38-11.5,38-30.7C69.1,0.8,52.1-16.3,31.1-16.3
		L31.1-16.3z"/>
	<path class="st1" d="M10.2-20c8.8,0,16-7.2,16-16c0-8-6.2-19.6-16-19.6c-9.7,0-16,11.6-16,19.6C-5.7-27.1,1.4-20,10.2-20L10.2-20z"
		/>
	<path class="st1" d="M52-20c8.8,0,16-7.2,16-16c0-8-6.2-19.6-16-19.6C42.3-55.6,36-44,36-36C36-27.1,43.2-20,52-20L52-20z"/>
	<path class="st1" d="M88.8-26.4c-9.7,0-16,11.6-16,19.6c0,8.8,7.2,16,16,16s16-7.2,16-16C104.8-14.7,98.5-26.4,88.8-26.4L88.8-26.4
		z"/>
	<path class="st1" d="M-8.2-6.7c0-8-6.2-19.6-16-19.6c-9.7,0-16,11.6-16,19.6c0,8.8,7.2,16,16,16C-15.2,9.2-8.2,2.1-8.2-6.7
		L-8.2-6.7z"/>
	<path class="st2" d="M41.9,14.6h-5.4V9.2c0-3-2.4-5.4-5.4-5.4s-5.4,2.4-5.4,5.4v5.4h-5.4c-3,0-5.4,2.4-5.4,5.4s2.4,5.4,5.4,5.4h5.4
		v5.4c0,3,2.4,5.4,5.4,5.4s5.4-2.4,5.4-5.4v-5.4h5.4c3,0,5.4-2.4,5.4-5.4S44.9,14.6,41.9,14.6L41.9,14.6z"/>
</g>
<g class="st0">
	<path class="st2" d="M-76.1,126.9c-5.6,0-8.5-7-4.5-10.9L-58,93.4c2.5-2.5,6.6-2.5,9.1,0s2.5,6.6,0,9.1l-22.6,22.6
		C-72.9,126.3-74.5,126.9-76.1,126.9L-76.1,126.9z"/>
	<path class="st1" d="M104.9-42.4L86.8-60.5c-2.5-2.5-6.6-2.5-9.1,0L55.1-37.9c-1.2,1.2-1.9,2.8-1.9,4.5c0,1.7,0.7,3.3,1.9,4.5
		l18.1,18.1c1.2,1.3,2.9,1.9,4.5,1.9s3.3-0.6,4.5-1.9l22.6-22.6c1.2-1.2,1.9-2.8,1.9-4.5C106.8-39.5,106.1-41.2,104.9-42.4
		L104.9-42.4z"/>
	<path class="st2" d="M109.4-22.4c-1.6,0-3.3-0.6-4.5-1.9L68.7-60.5c-2.5-2.5-2.5-6.5,0-9.1c2.5-2.5,6.6-2.5,9.1,0L114-33.4
		c2.5,2.5,2.5,6.6,0,9.1C112.8-23,111-22.4,109.4-22.4L109.4-22.4z"/>
	<path class="st2" d="M95.8-6.2L50.5-51.5c-2.5-2.5-6.6-2.5-9.1,0L-49,39.1c-1.2,1.2-1.9,2.8-1.9,4.5v24.5l-16.2,16.2
		c-1.2,1.2-1.9,2.8-1.9,4.5s0.7,3.3,1.9,4.5l18.1,18.1c1.3,1.3,2.9,1.9,4.5,1.9s3.3-0.6,4.5-1.9l16.2-16.2H0.8
		c1.7,0,3.3-0.7,4.5-1.9L95.8,2.8C98.3,0.4,98.3-3.7,95.8-6.2L95.8-6.2z"/>
	<path class="st1" d="M-51.5,68.7l-15.6,15.6c-1.2,1.2-1.9,2.8-1.9,4.5s0.7,3.3,1.9,4.5l18.1,18.1c1.3,1.3,2.9,1.9,4.5,1.9
		s3.3-0.6,4.5-1.9l15.6-15.6L-51.5,68.7z"/>
	<path class="st1" d="M41.5,0.2c5.6,0,8.5-7,4.5-10.9L23.4-33.3l-9,9.1L37-1.6C38.2-0.4,39.9,0.2,41.5,0.2L41.5,0.2z"/>
	<path class="st1" d="M14.4,27.4c5.6,0,8.5-7,4.5-10.9L-3.7-6.1L-12.8,3L9.8,25.7C11.1,26.8,12.8,27.4,14.4,27.4L14.4,27.4z"/>
	<path class="st1" d="M-12.8,54.5c5.6,0,8.5-7,4.5-10.9L-30.9,21l-9.1,9.1l22.6,22.6C-16.1,53.9-14.4,54.5-12.8,54.5L-12.8,54.5z"/>
</g>
<g class="st0">
	<path class="st2" d="M73.4-174.9H-3.4c-3.5,0-6.4,2.9-6.4,6.4v96c0,3.5,2.9,6.4,6.4,6.4h76.8c3.5,0,6.4-2.9,6.4-6.4v-96
		C79.8-172,77-174.9,73.4-174.9L73.4-174.9z"/>
	<path class="st2" d="M73.4-174.9H-3.4c-3.5,0-6.4,2.9-6.4,6.4v12.8h89.6v-12.8C79.8-172,77-174.9,73.4-174.9L73.4-174.9z"/>
	<path class="st1" d="M9.4-155.7c0,14.1,11.5,25.6,25.6,25.6s25.6-11.5,25.6-25.6"/>
	<rect x="-9.8" y="-155.7" class="st1" width="89.6" height="6.4"/>
	<path class="st1" d="M113.8-52l-34-20.4H-9.8l-34,20.4c-18.8,13.2-30,34.7-30,57.7v222.6c0,3.5,2.9,6.4,6.4,6.4h204.8
		c3.5,0,6.4-2.9,6.4-6.4V5.7C143.8-17.3,132.6-38.8,113.8-52L113.8-52z"/>
	<rect x="-73.8" y="10.7" class="st2" width="217.6" height="185.6"/>
	<path class="st1" d="M34,81.3c-17.6,0-31.8,14.3-31.8,31.8c0,16.1,11.9,25.7,31.8,25.7s31.8-9.6,31.8-25.7
		C65.9,95.6,51.6,81.3,34,81.3L34,81.3z"/>
	<path class="st1" d="M16.5,78.2c7.4,0,13.4-6,13.4-13.4c0-6.7-5.2-16.4-13.4-16.4S3.1,58.2,3.1,64.8C3.2,72.2,9.2,78.2,16.5,78.2
		L16.5,78.2z"/>
	<path class="st1" d="M51.5,78.2c7.4,0,13.4-6,13.4-13.4c0-6.7-5.2-16.4-13.4-16.4c-8.2,0-13.4,9.7-13.4,16.4
		C38.1,72.2,44.1,78.2,51.5,78.2L51.5,78.2z"/>
	<path class="st1" d="M82.3,72.8c-8.2,0-13.4,9.7-13.4,16.4c0,7.4,6,13.4,13.4,13.4s13.4-6,13.4-13.4C95.8,82.6,90.5,72.8,82.3,72.8
		L82.3,72.8z"/>
	<path class="st1" d="M1.1,89.3c0-6.7-5.2-16.4-13.4-16.4c-8.2,0-13.4,9.7-13.4,16.4c0,7.4,6,13.4,13.4,13.4
		C-4.9,102.6,1.1,96.6,1.1,89.3L1.1,89.3z"/>
	<path class="st2" d="M43.1,107.2h-4.5v-4.5c0-2.5-2-4.5-4.5-4.5s-4.5,2-4.5,4.5v4.5H25c-2.5,0-4.5,2-4.5,4.5s2,4.5,4.5,4.5h4.5v4.5
		c0,2.5,2,4.5,4.5,4.5s4.5-2,4.5-4.5v-4.5H43c2.5,0,4.5-2,4.5-4.5C47.6,109.2,45.5,107.2,43.1,107.2L43.1,107.2z"/>
	<circle class="st1" cx="107.6" cy="-142.9" r="11.9"/>
	<circle class="st2" cx="-44" cy="-148.5" r="22.5"/>
	<circle class="st1" cx="-84" cy="-72.5" r="17.5"/>
	<circle class="st2" cx="143.8" cy="-102" r="17.5"/>
</g>
<g class="st0">
	<path class="st1" d="M27.1,85.4c3.3-3.3,5-7.8,4.7-12.3c4.5,0.3,9-1.4,12.3-4.7c6.2-6.2,6.2-16.4,0-22.6s-16.4-6.2-22.6,0L-28-3.6
		c6.2-6.2,6.2-16.4,0-22.6c-6.2-6.2-16.4-6.2-22.6,0c-3.3,3.3-5,7.8-4.7,12.3c-4.5-0.3-9,1.4-12.3,4.7c-3.1,3.1-4.7,7.2-4.7,11.3
		c0,4.1,1.6,8.2,4.7,11.3c6.2,6.2,16.4,6.2,22.6,0L4.5,62.9c-6.2,6.2-6.2,16.4,0,22.6C10.8,91.7,20.9,91.7,27.1,85.4L27.1,85.4z"/>
	<path class="st2" d="M100.2,75.2c3.3-3.3,5-7.8,4.7-12.3c4.5,0.3,9-1.4,12.3-4.7c6.2-6.2,6.2-16.4,0-22.6s-16.4-6.2-22.6,0L45-13.9
		c6.2-6.2,6.2-16.4,0-22.6c-6.2-6.2-16.4-6.2-22.6,0c-3.3,3.3-5,7.8-4.7,12.3c-4.5-0.3-9,1.4-12.3,4.7c-3.1,3.1-4.7,7.2-4.7,11.3
		S2.3,0,5.4,3.1c6.2,6.2,16.4,6.2,22.6,0l49.5,49.5c-6.2,6.2-6.2,16.4,0,22.6C83.8,81.4,93.9,81.4,100.2,75.2L100.2,75.2z"/>
</g>
<g class="st0">
	<path class="st1" d="M-78.9-86c-7.1,0-12.8,5.7-12.8,12.8V-54c0,3.5,2.9,6.4,6.4,6.4h12.8c3.5,0,6.4-2.9,6.4-6.4v-19.2
		C-66.1-80.2-71.8-86-78.9-86L-78.9-86z"/>
	<path class="st2" d="M228.3,16.4H-46.9V-54c0-3.5-2.9-6.4-6.4-6.4h-57.6c-2.6,0-5,1.6-6,4.1l-58,85.5v89.6c0,3.5,2.9,6.4,6.4,6.4
		h396.8c3.5,0,6.4-2.9,6.4-6.4v-96C234.8,19.3,232,16.4,228.3,16.4L228.3,16.4z"/>
	<path class="st1" d="M-66.1-47.6h-37.8c-2.1,0-4.1,1.1-5.3,2.8l-39.4,58c-2.9,4.3,0.2,10,5.3,10H-66c3.5,0,6.4-2.9,6.4-6.4v-58
		C-59.7-44.7-62.5-47.6-66.1-47.6L-66.1-47.6z"/>
	<path class="st1" d="M-174.9,112.8v6c0,3.5,2.9,6.4,6.4,6.4h396.8c3.5,0,6.4-2.9,6.4-6.4v-6H-174.9z"/>
	<path class="st2" d="M151.5,80.4c-24.7,0-44.8,20.1-44.8,44.8c0,24.7,20.1,44.8,44.8,44.8s44.8-20.1,44.8-44.8
		S176.2,80.4,151.5,80.4L151.5,80.4z"/>
	<path class="st1" d="M151.5,99.6c-14.1,0-25.6,11.5-25.6,25.6s11.5,25.6,25.6,25.6s25.6-11.5,25.6-25.6S165.8,99.6,151.5,99.6
		L151.5,99.6z"/>
	<path class="st6" d="M151.5,106c-10.6,0-19.2,8.6-19.2,19.2s8.6,19.2,19.2,19.2c10.6,0,19.2-8.6,19.2-19.2S162.1,106,151.5,106
		L151.5,106z"/>
	<path class="st2" d="M-104.5,80.4c-24.7,0-44.8,20.1-44.8,44.8c0,24.7,20.1,44.8,44.8,44.8s44.8-20.1,44.8-44.8
		S-79.8,80.4-104.5,80.4L-104.5,80.4z"/>
	<path class="st1" d="M-104.5,99.6c-14.1,0-25.6,11.5-25.6,25.6s11.5,25.6,25.6,25.6s25.6-11.5,25.6-25.6S-90.2,99.6-104.5,99.6
		L-104.5,99.6z"/>
	<path class="st6" d="M-104.5,106c-10.6,0-19.2,8.6-19.2,19.2s8.6,19.2,19.2,19.2s19.2-8.6,19.2-19.2S-93.9,106-104.5,106
		L-104.5,106z"/>
	<path class="st2" d="M228.3-110.2H-40.5c-3.5,0-6.4,1.9-6.4,4.3V22.8h281.6v-128.7C234.8-108.2,232-110.2,228.3-110.2L228.3-110.2z
		"/>
	<rect x="-46.9" y="10" class="st1" width="281.6" height="12.8"/>
	<path class="st1" d="M-66.1,48.4h-12.8c-3.5,0-6.4-2.9-6.4-6.4s2.9-6.4,6.4-6.4h12.8c3.5,0,6.4,2.9,6.4,6.4
		C-59.7,45.6-62.5,48.4-66.1,48.4L-66.1,48.4z"/>
	<path class="st1" d="M81.1,67.6H-40.5c-3.5,0-6.4-2.9-6.4-6.4s2.9-6.4,6.4-6.4H81.1c3.5,0,6.4,2.9,6.4,6.4S84.8,67.6,81.1,67.6
		L81.1,67.6z"/>
	<path class="st1" d="M61.9,93.2H-40.5c-3.5,0-6.4-2.9-6.4-6.4s2.9-6.4,6.4-6.4H61.9c3.5,0,6.4,2.9,6.4,6.4
		C68.3,90.4,65.5,93.2,61.9,93.2L61.9,93.2z"/>
	<path class="st1" d="M86.8-57.3C73-57.3,62-46.2,62-32.5c0,12.5,9.3,20,24.8,20s24.8-7.5,24.8-20C111.6-46.2,100.4-57.3,86.8-57.3
		L86.8-57.3z"/>
	<path class="st1" d="M73.1-59.7c5.7,0,10.4-4.7,10.4-10.4c0-5.2-4.1-12.8-10.4-12.8c-6.4,0-10.4,7.6-10.4,12.8
		C62.8-64.4,67.4-59.7,73.1-59.7L73.1-59.7z"/>
	<path class="st1" d="M100.4-59.7c5.7,0,10.4-4.7,10.4-10.4c0-5.2-4.1-12.8-10.4-12.8C94-82.9,90-75.3,90-70.1
		C89.9-64.4,94.6-59.7,100.4-59.7L100.4-59.7z"/>
	<path class="st1" d="M124.5-63.9c-6.4,0-10.4,7.6-10.4,12.8c0,5.7,4.7,10.4,10.4,10.4c5.7,0,10.4-4.7,10.4-10.4
		C134.8-56.3,130.8-63.9,124.5-63.9L124.5-63.9z"/>
	<path class="st1" d="M61.1-51.1c0-5.2-4.1-12.8-10.4-12.8c-6.4,0-10.4,7.6-10.4,12.8c0,5.7,4.7,10.4,10.4,10.4
		C56.4-40.6,61.1-45.3,61.1-51.1L61.1-51.1z"/>
	<path class="st2" d="M93.8-37.1h-3.5v-3.5c0-1.9-1.6-3.5-3.5-3.5s-3.5,1.6-3.5,3.5v3.5h-3.5c-1.9,0-3.5,1.6-3.5,3.5
		c0,1.9,1.6,3.5,3.5,3.5h3.5v3.5c0,1.9,1.6,3.5,3.5,3.5s3.5-1.6,3.5-3.5v-3.5h3.5c1.9,0,3.5-1.6,3.5-3.5
		C97.3-35.5,95.8-37.1,93.8-37.1L93.8-37.1z"/>
</g>
<g class="st0">
	<path class="st7" d="M-261-119c-46.3-44.5-65.9-40-62.6,35.8C-305.7-98.4-284.5-110.7-261-119L-261-119z"/>
	<path class="st1" d="M-323.6-83.2c-3.3-75.8,16.3-80.3,62.6-35.8c9.4-3.3,19.2-6,29.3-8c-9.6-16.6-60.7-57.2-88.5-58.1
		c-29.7-2.3-39.9,78.8-27.1,126.5C-340.4-67.4-332.4-75.7-323.6-83.2L-323.6-83.2z"/>
	<path class="st1" d="M-58.4-185.1c-27.8,0.9-78.9,41.4-88.5,58.1c10.1,2,19.9,4.7,29.3,8c46.3-44.5,65.9-40,62.6,35.8
		c8.8,7.5,16.8,15.8,23.8,24.7C-18.5-106.2-28.8-187.3-58.4-185.1L-58.4-185.1z"/>
	<path class="st7" d="M-55.1-83.2c3.3-75.8-16.3-80.3-62.6-35.8C-94.1-110.7-72.9-98.4-55.1-83.2L-55.1-83.2z"/>
	<path class="st1" d="M-55.1-83.2c-17.8-15.3-39-27.5-62.6-35.8c-9.4-3.3-19.2-6-29.3-8c-13.6-2.7-27.8-4.1-42.4-4.1
		s-28.8,1.4-42.4,4.1c-10.1,2-19.9,4.7-29.3,8c-23.5,8.3-44.7,20.5-62.6,35.8c-8.8,7.5-16.8,15.8-23.8,24.7
		c-21.4,27.1-34,60-34,95.4c0,69.4,48.1,129,116.7,154.6c-13.4-9.5-21.5-23.5-21.5-43.7c0-19.2,7.3-41,19.6-60
		c4.7-7.2,10-13.9,16-20c9.4-9.6,20.2-17.4,32-22.5c-0.1-0.9-0.2-1.8-0.2-2.7c0-14.2,13.2-18.4,29.4-18.4s29.4,4.2,29.4,18.4
		c0,0.9-0.1,1.8-0.2,2.7c11.8,5.1,22.6,12.9,32,22.5c6,6.1,11.3,12.9,16,20c12.3,19,19.6,40.7,19.6,60c0,20.2-8.1,34.2-21.5,43.7
		C-45.6,165.9,2.5,106.3,2.5,36.9c0-35.4-12.5-68.3-34-95.4C-38.2-67.4-46.2-75.7-55.1-83.2L-55.1-83.2z"/>
	<path class="st1" d="M-159.9,42.7c0-14.2-13.2-18.4-29.4-18.4s-29.4,4.2-29.4,18.4c0,0.9,0.1,1.8,0.2,2.7
		c2,13.1,18.4,24.5,29.2,24.5s27.2-11.4,29.2-24.5C-160,44.5-159.9,43.6-159.9,42.7L-159.9,42.7z"/>
	<path class="st7" d="M-160.1,45.4c-2,13.1-18.4,24.5-29.2,24.5s-27.2-11.4-29.2-24.5c-11.8,5.1-22.6,12.9-32,22.5
		c-6,6.1-11.3,12.9-16,20c-12.3,19-19.6,40.7-19.6,60c0,20.2,8.1,34.2,21.5,43.7c17.7,12.5,44.9,17,75.3,17s57.5-4.5,75.3-17
		c13.4-9.5,21.5-23.5,21.5-43.7c0-19.2-7.3-41-19.6-60c-4.7-7.2-10-13.9-16-20C-137.5,58.3-148.4,50.4-160.1,45.4L-160.1,45.4z"/>
	<path class="st2" d="M-302-75l-0.2,0.1c-3.5,2.7-4.2,7.6-1.6,11.2c1.6,2.1,4,3.2,6.4,3.2c1.7,0,3.4-0.5,4.8-1.6
		c3.6-2.6,4.3-7.6,1.7-11.2C-293.4-76.8-298.4-77.6-302-75L-302-75z"/>
	<g class="st4">
		<g>
			<defs>
				<rect id="SVGID_1_" x="-390.1" y="-193.4" width="400.9" height="410.9"/>
			</defs>
			<clipPath id="SVGID_2_">
				<use xlink:href="#SVGID_1_"  style="overflow:visible;"/>
			</clipPath>
			<path class="st8" d="M-214.6-101.5c-0.8-4.4-4.9-7.3-9.3-6.5c-20.4,3.6-39.8,10.3-57.8,20.1c-3.9,2.1-5.3,7-3.2,10.9
				c1.5,2.7,4.2,4.2,7,4.2c1.3,0,2.6-0.3,3.8-1c16.4-8.9,34.2-15.1,52.9-18.4C-216.8-93-213.8-97.2-214.6-101.5L-214.6-101.5z"/>
		</g>
		<g>
			<defs>
				<rect id="SVGID_3_" x="-390.1" y="-193.4" width="400.9" height="410.9"/>
			</defs>
			<clipPath id="SVGID_4_">
				<use xlink:href="#SVGID_3_"  style="overflow:visible;"/>
			</clipPath>
			<path class="st9" d="M10.8,36.9c0-35.2-11.6-68.7-33.2-97.3c9.1-38.7,5.1-98.8-14.3-122.2c-7.8-9.4-16.2-10.9-21.9-10.5
				c-28.8,1.1-76,37-91.7,57.3c-12.6-2.2-25.6-3.3-38.8-3.3s-26.1,1.1-38.8,3.3c-15.7-20.3-62.9-56.2-91.7-57.3
				c-5.8-0.4-14.2,1.1-21.9,10.5c-19.4,23.4-23.4,83.4-14.3,122.2C-377.4-31.8-389,1.7-389,36.9c0,70.5,47.5,133.9,121,161.7
				c2.1,1.5,4.4,2.8,6.8,4.1c17.1,9.1,41.4,13.7,72.2,13.7s55.1-4.6,72.2-13.7c2.4-1.3,4.7-2.7,6.8-4.1
				C-36.8,170.8,10.8,107.4,10.8,36.9L10.8,36.9z M-58.2-177.1c0.1,0,0.2,0,0.3,0c1.1-0.1,4.4-0.3,8.6,4.7
				c13.1,15.7,18.7,60.5,13.3,96.3c-3.5-3.7-7.2-7.2-11.1-10.7c1.4-40.6-4-60.7-17.9-67c-12.9-5.8-29.4,1.8-54.8,25.5
				c-4.3-1.4-8.7-2.7-13.2-3.8C-115.9-149.6-78.2-176.4-58.2-177.1L-58.2-177.1z M-102.8-121.8c21.1-18.5,28.9-18.4,31.3-17.3
				c2.8,1.3,8.6,7.7,8.7,39.7C-75.1-108.3-88.6-115.8-102.8-121.8L-102.8-121.8z M-329.4-172.3c4.2-5.1,7.5-4.8,8.6-4.7
				c0.1,0,0.2,0,0.3,0c20.1,0.7,57.7,27.5,74.6,45.1c-4.4,1.1-8.8,2.4-13.2,3.8c-25.3-23.7-41.9-31.4-54.8-25.5
				c-13.9,6.3-19.3,26.4-17.9,67c-3.9,3.4-7.6,7-11.1,10.7C-348.1-111.9-342.5-156.6-329.4-172.3L-329.4-172.3z M-315.9-99.4
				c0.1-32,5.9-38.5,8.7-39.7c2.5-1.1,10.3-1.3,31.3,17.3C-290.1-115.8-303.5-108.3-315.9-99.4L-315.9-99.4z M-259.6,185.3
				c-0.2-0.2-0.5-0.4-0.7-0.5c-17.7-12.6-17.8-29.3-17.8-36.9c0-23.4,12.7-53.3,33.5-74.5l0,0c6.5-6.6,13.8-12.4,21.7-16.8
				c2.2,4,5.4,7.8,9.4,11.2c5,4.2,10.7,7.3,16.2,8.9v32.4c-2.8,3.8-7.1,6-11.6,6c-5.2,0-10-2.9-12.6-7.6c-2.2-3.9-7-5.2-10.9-3.1
				c-3.9,2.2-5.2,7-3.1,10.9c5.4,9.7,15.6,15.8,26.6,15.8c7.3,0,14.2-2.7,19.6-7.3c5.4,4.6,12.4,7.3,19.6,7.3
				c11,0,21.2-6.1,26.6-15.8c2.2-3.9,0.8-8.7-3.1-10.9c-3.9-2.2-8.7-0.8-10.9,3.1c-2.6,4.7-7.5,7.6-12.6,7.6c-4.6,0-8.9-2.3-11.6-6
				V76.8c5.5-1.6,11.2-4.7,16.2-8.9c4-3.4,7.2-7.2,9.4-11.2c7.9,4.4,15.2,10.2,21.7,16.8l0,0l0,0c20.8,21.2,33.5,51.2,33.5,74.5
				c0,7.6,0,24.3-17.7,36.9c-0.3,0.2-0.5,0.3-0.8,0.5c-12.7,8.7-34.1,15.2-70.3,15.2S-246.9,193.9-259.6,185.3L-259.6,185.3z
				 M-189.3,61.8c-7.5,0-21.4-9.8-21.4-19.1c0-2.9,0-10.4,21.4-10.4s21.4,7.6,21.4,10.4C-167.9,52-181.9,61.8-189.3,61.8
				L-189.3,61.8z M-88.2,170.6c2.4-6.9,3.7-14.5,3.7-22.8c0-10.1-1.9-20.9-5.4-31.8c10.3-1.4,20.6,0.3,30.8,4.9
				c1.1,0.5,2.2,0.7,3.3,0.7c3,0,5.9-1.7,7.3-4.7c1.8-4,0.1-8.8-3.9-10.6c-14.3-6.5-28.9-8.4-43.5-5.6c-1.5-3.3-3.2-6.6-5.1-9.9
				c19.7-9.7,41.2-12.5,64.1-8.3c4.4,0.8,8.5-2.1,9.3-6.4s-2.1-8.5-6.4-9.3c-27-4.9-52.4-1.3-75.6,10.5c-2.2-3.1-4.6-6-7-8.9
				c16.2-12.9,35.4-19.8,57.4-20.7c4.4-0.2,7.9-3.9,7.7-8.3c-0.2-4.4-3.9-7.8-8.3-7.7c-26,1-48.9,9.5-68,25.1
				c-7.5-6.8-15.7-12.5-24.1-16.7c-0.8-9.9-7.2-24.1-37.3-24.1s-36.5,14.1-37.3,24.1c-8.4,4.2-16.6,9.9-24.1,16.7
				c-19.1-15.7-41.9-24.1-68-25.1c-4.4-0.2-8.1,3.3-8.3,7.7c-0.2,4.4,3.3,8.1,7.7,8.3c21.9,0.9,41.2,7.8,57.4,20.7
				c-2.4,2.8-4.8,5.8-7,8.9C-292,65.5-317.4,62-344.4,66.9c-4.4,0.8-7.2,4.9-6.5,9.3c0.8,4.3,5,7.2,9.3,6.4
				c22.9-4.1,44.4-1.3,64.1,8.3c-1.8,3.2-3.5,6.5-5.1,9.9c-14.6-2.8-29.2-0.9-43.5,5.6c-4,1.8-5.8,6.6-3.9,10.6
				c1.3,2.9,4.2,4.7,7.3,4.7c1.1,0,2.2-0.2,3.3-0.7c10.2-4.7,20.5-6.3,30.8-4.9c-3.5,10.9-5.4,21.7-5.4,31.8
				c0,8.3,1.2,15.9,3.7,22.8c-51.2-29.3-82.9-79.2-82.9-133.7c0-88.2,82.5-160,184-160s184,71.8,184,160
				C-5.2,91.4-37,141.4-88.2,170.6L-88.2,170.6z"/>
		</g>
	</g>
	<path class="st2" d="M-138.2-31.1c-12.5,0-24.1,6.9-30.3,18c-2.2,3.9-0.8,8.7,3.1,10.9c3.9,2.2,8.7,0.8,10.9-3.1
		c3.4-6.1,9.6-9.8,16.3-9.8s13,3.8,16.3,9.8c1.5,2.6,4.2,4.1,7,4.1c1.3,0,2.7-0.3,3.9-1c3.9-2.2,5.2-7,3.1-10.9
		C-114.1-24.2-125.7-31.1-138.2-31.1L-138.2-31.1z"/>
	<path class="st2" d="M-240.5-31.1c-12.5,0-24.1,6.9-30.3,18c-2.2,3.9-0.8,8.7,3.1,10.9c1.2,0.7,2.6,1,3.9,1c2.8,0,5.5-1.5,7-4.1
		c3.4-6.1,9.6-9.8,16.3-9.8s13,3.8,16.3,9.8c2.2,3.9,7,5.2,10.9,3.1c3.9-2.2,5.2-7,3.1-10.9C-216.4-24.2-228-31.1-240.5-31.1
		L-240.5-31.1z"/>
</g>
<g class="st0">
	<path class="st7" d="M287.1-120.4v-35.1h-29.2v-29.3h-35.1v29.2h-29.2v35.1h29.2v29.2h35.1v-29.2L287.1-120.4L287.1-120.4z"/>
	<path class="st1" d="M222.8-120.4h-29.2v-35.1H96.3c-17.6,0-32,14.4-32,32v32.3v35.8c2.5-0.9,5.2-1.4,8-1.4h336
		c2.8,0,5.5,0.5,8,1.4v-68.1c0-17.6-14.4-32-32-32h-97.2v35.1h-29.2v29.2h-35.1L222.8-120.4L222.8-120.4z"/>
	<path class="st1" d="M96.3,15.2v-72h-24c-2.8,0-5.5,0.5-8,1.4c-9.3,3.3-16,12.2-16,22.6v48c0,10.4,6.7,19.3,16,22.6
		c2.5,0.9,5.2,1.4,8,1.4C85.5,39.2,96.3,28.4,96.3,15.2L96.3,15.2z"/>
	<path class="st1" d="M96.3-56.8v72c0,13.2,10.8,24,24,24s24-10.8,24-24v-72H96.3z"/>
	<path class="st1" d="M144.3-56.8v72c0,13.2,10.8,24,24,24s24-10.8,24-24v-72H144.3z"/>
	<path class="st1" d="M192.3-56.8v72c0,13.2,10.8,24,24,24s24-10.8,24-24v-72H192.3z"/>
	<path class="st1" d="M240.3-56.8v72c0,13.2,10.8,24,24,24s24-10.8,24-24v-72H240.3z"/>
	<path class="st1" d="M288.3-56.8v72c0,13.2,10.8,24,24,24s24-10.8,24-24v-72H288.3z"/>
	<path class="st1" d="M336.3-56.8v72c0,13.2,10.8,24,24,24s24-10.8,24-24v-72H336.3z"/>
	<path class="st1" d="M384.3-56.8v72c0,13.2,10.8,24,24,24c2.8,0,5.5-0.5,8-1.4c9.3-3.3,16-12.2,16-22.6v-48
		c0-10.4-6.7-19.3-16-22.6c-2.5-0.9-5.2-1.4-8-1.4H384.3z"/>
	<path class="st1" d="M384.3,15.2c0,13.2-10.8,24-24,24s-24-10.8-24-24c0,13.2-10.8,24-24,24s-24-10.8-24-24c0,13.2-10.8,24-24,24
		s-24-10.8-24-24c0,13.2-10.8,24-24,24s-24-10.8-24-24c0,13.2-10.8,24-24,24s-24-10.8-24-24c0,13.2-10.8,24-24,24s-24-10.8-24-24
		c0,13.2-10.8,24-24,24c-2.8,0-5.5-0.5-8-1.4v171h32v-112c0-8.8,7.2-16,16-16h64c8.8,0,16,7.2,16,16v112h224v-171
		c-2.5,0.9-5.2,1.4-8,1.4C395.1,39.2,384.3,28.4,384.3,15.2L384.3,15.2z M256.3,80.8h112c8.8,0,16,7.2,16,16v32c0,8.8-7.2,16-16,16
		h-112c-8.8,0-16-7.2-16-16v-32C240.3,88,247.5,80.8,256.3,80.8L256.3,80.8z"/>
	<path class="st7" d="M368.3,80.8h-112c-8.8,0-16,7.2-16,16v32c0,8.8,7.2,16,16,16h112c8.8,0,16-7.2,16-16v-32
		C384.3,88,377.1,80.8,368.3,80.8L368.3,80.8z"/>
	<path class="st7" d="M192.3,208.8v-112c0-8.8-7.2-16-16-16h-64c-8.8,0-16,7.2-16,16v112H192.3z"/>
	<path class="st2" d="M424.3-60.5v-63.1c0-22.1-17.9-40-40-40H265.8v-21.2c0-4.4-3.6-8-8-8h-35.1c-4.4,0-8,3.6-8,8v21.2H96.3
		c-22.1,0-40,17.9-40,40v63.1c-9.6,5.5-16,15.9-16,27.7v48c0,11.8,6.4,22.2,16,27.7v165.9c0,4.4,3.6,8,8,8h352c4.4,0,8-3.6,8-8V42.9
		c9.6-5.5,16-15.9,16-27.7v-48C440.3-44.6,433.8-54.9,424.3-60.5L424.3-60.5z M222.8-147.5c4.4,0,8-3.6,8-8v-21.3h19.1v21.2
		c0,4.4,3.6,8,8,8H279v19.1h-21.2c-4.4,0-8,3.6-8,8v21.2h-19.1v-21.2c0-4.4-3.6-8-8-8h-21.2v-19.1L222.8-147.5L222.8-147.5z
		 M408.3-64.8h-336v-18.4H117c4.4,0,8-3.6,8-8s-3.6-8-8-8H72.2v-24.3c0-13.2,10.8-24,24-24h89.2v27.1c0,4.4,3.6,8,8,8h21.2v21.2
		c0,4.4,3.6,8,8,8h35.1c4.4,0,8-3.6,8-8v-21.2H287c4.4,0,8-3.6,8-8v-27.1h89.2c13.2,0,24,10.8,24,24v24.3h-44.8c-4.4,0-8,3.6-8,8
		s3.6,8,8,8h44.8v18.4 M104.3-48.8h32v64c0,8.8-7.2,16-16,16s-16-7.2-16-16V-48.8z M152.3-48.8h32v64c0,8.8-7.2,16-16,16
		s-16-7.2-16-16V-48.8z M200.3-48.8h32v64c0,8.8-7.2,16-16,16s-16-7.2-16-16V-48.8z M248.3-48.8h32v64c0,8.8-7.2,16-16,16
		s-16-7.2-16-16V-48.8z M296.3-48.8h32v64c0,8.8-7.2,16-16,16s-16-7.2-16-16V-48.8z M344.3-48.8h32v64c0,8.8-7.2,16-16,16
		s-16-7.2-16-16V-48.8z M56.3-32.8c0-8.8,7.2-16,16-16h16v64c0,8.8-7.2,16-16,16s-16-7.2-16-16V-32.8z M184.3,200.8h-80v-104
		c0-4.4,3.6-8,8-8h64c4.4,0,8,3.6,8,8V200.8z M200.3,200.8v-104c0-13.2-10.8-24-24-24h-64c-13.2,0-24,10.8-24,24v104h-16V47.2
		c9.6,0,18.1-4.2,24-10.9c5.9,6.7,14.4,10.9,24,10.9c9.6,0,18.1-4.2,24-10.9c5.9,6.7,14.4,10.9,24,10.9s18.1-4.2,24-10.9
		c5.9,6.7,14.4,10.9,24,10.9s18.1-4.2,24-10.9c5.9,6.7,14.4,10.9,24,10.9s18.1-4.2,24-10.9c5.9,6.7,14.4,10.9,24,10.9
		s18.1-4.2,24-10.9c5.9,6.7,14.4,10.9,24,10.9s18.1-4.2,24-10.9c5.9,6.7,14.4,10.9,24,10.9v153.6H200.3z M424.3,15.2
		c0,8.8-7.2,16-16,16s-16-7.2-16-16v-64h16c8.8,0,16,7.2,16,16V15.2z"/>
	<path class="st2" d="M368.3,72.8h-112c-13.2,0-24,10.8-24,24v32c0,13.2,10.8,24,24,24h112c13.2,0,24-10.8,24-24v-32
		C392.3,83.6,381.5,72.8,368.3,72.8L368.3,72.8z M376.3,128.8c0,4.4-3.6,8-8,8h-112c-4.4,0-8-3.6-8-8v-32c0-4.4,3.6-8,8-8h112
		c4.4,0,8,3.6,8,8V128.8z"/>
	<path class="st2" d="M140.8-83.2h0.3c4.4,0,8-3.6,8-8s-3.6-8-8-8h-0.3c-4.4,0-8,3.6-8,8S136.5-83.2,140.8-83.2L140.8-83.2z"/>
	<path class="st2" d="M339.5-83.2h0.3c4.4,0,8-3.6,8-8s-3.6-8-8-8h-0.3c-4.4,0-8,3.6-8,8S335-83.2,339.5-83.2L339.5-83.2z"/>
</g>
<g class="st0">
	<path class="st3" d="M-281.2,91.7l49.4,4.8l-1.5-15.4l21.6-47.8l-79.7,23.8c-13.7-19.5-38.8-29.1-62.9-21.9
		c-30.1,9-47.2,40.6-38.2,70.7c9,30.1,40.6,47.2,70.7,38.2C-297.9,137.1-282.1,115.4-281.2,91.7L-281.2,91.7z M-351.9,77.1
		c7.8-7.8,20.5-7.8,28.3,0c7.8,7.8,7.8,20.5,0,28.3c-7.8,7.8-20.5,7.8-28.3,0C-359.7,97.6-359.7,84.9-351.9,77.1L-351.9,77.1z"/>
	<path class="st3" d="M-150.3,15l-18.4,61.5l157.4-71l9.9-34.9L-150.3,15z"/>
	<path class="st1" d="M-168.7,76.5l18.4-61.5l44.4-148.9l-34.9,9.9l-71,157.4l-21.6,47.8l1.5,15.4l4.9,49.4
		c-23.7,0.8-45.3,16.6-52.5,40.6c-9,30.1,8.1,61.8,38.2,70.7c30.1,9,61.8-8.1,70.7-38.2c7.2-24.1-2.4-49.2-21.9-62.9L-168.7,76.5z
		 M-210.9,188.7c7.8,7.8,7.8,20.5,0,28.3s-20.5,7.8-28.3,0s-7.8-20.5,0-28.3S-218.7,180.9-210.9,188.7L-210.9,188.7z"/>
	<g class="st4">
		<g>
			<defs>
				<rect id="SVGID_5_" x="-403" y="-142.2" width="409.9" height="410.9"/>
			</defs>
			<clipPath id="SVGID_6_">
				<use xlink:href="#SVGID_5_"  style="overflow:visible;"/>
			</clipPath>
			<path class="st10" d="M-337.7,63.3c-7.5,0-14.5,2.9-19.8,8.2c-5.3,5.3-8.2,12.3-8.2,19.8s2.9,14.5,8.2,19.8s12.3,8.2,19.8,8.2
				s14.5-2.9,19.8-8.2c5.3-5.3,8.2-12.3,8.2-19.8s-2.9-14.5-8.2-19.8C-323.2,66.2-330.2,63.3-337.7,63.3L-337.7,63.3z M-329.2,99.8
				c-2.3,2.3-5.3,3.5-8.5,3.5c-3.2,0-6.2-1.3-8.5-3.5c-2.3-2.3-3.5-5.3-3.5-8.5s1.3-6.2,3.5-8.5c2.3-2.3,5.3-3.5,8.5-3.5
				c3.2,0,6.2,1.3,8.5,3.5c2.3,2.3,3.5,5.3,3.5,8.5S-327,97.5-329.2,99.8L-329.2,99.8z"/>
		</g>
		<g>
			<defs>
				<rect id="SVGID_7_" x="-403" y="-142.2" width="409.9" height="410.9"/>
			</defs>
			<clipPath id="SVGID_8_">
				<use xlink:href="#SVGID_7_"  style="overflow:visible;"/>
			</clipPath>
			<path class="st11" d="M4.2-35.1c-2.1-2-5.1-2.8-7.9-2L-138.3,3.2l40.2-134.7c0.8-2.8,0.1-5.8-2-7.9c-2.1-2.1-5.1-2.9-7.9-2.1
				l-34.9,9.9c-2.3,0.6-4.1,2.3-5.1,4.4l-69.5,154l-70.9,21.2c-16.5-19.6-43.2-27.8-68.1-20.3c-34.4,10.2-53.9,46.4-43.7,80.7
				c8.4,28.1,34.2,46.3,62.2,46.3c6.1,0,12.4-0.9,18.5-2.7c24-7.2,41.4-27.2,45.4-51.4l35,3.4l3.4,35c-24.2,4-44.2,21.5-51.4,45.4
				c-10.2,34.3,9.3,70.5,43.6,80.7c6.1,1.8,12.3,2.7,18.6,2.7c13.7,0,27.3-4.5,38.4-12.6c11.5-8.4,19.7-20.1,23.7-33.7
				c7.4-25-0.7-51.6-20.3-68.1l21.2-71L-8,12.8c2.2-1,3.8-2.8,4.4-5.1l9.9-34.9C7.1-30.1,6.3-33.1,4.2-35.1L4.2-35.1z M-280.5,83.8
				c-2.2-0.2-4.4,0.5-6.1,1.9c-1.7,1.5-2.6,3.5-2.7,5.7c-0.7,21-14.7,39.1-34.9,45.1c-25.8,7.7-53.1-7-60.8-32.8
				c-7.7-25.8,7-53.1,32.8-60.8c20.2-6,41.9,1.5,54,18.8c2,2.8,5.5,4.1,8.8,3.1l62.9-18.8l-14.4,31.8c-0.6,1.3-0.8,2.7-0.7,4.1
				l0.6,5.7L-280.5,83.8z M-197,162.8c17.3,12.1,24.9,33.8,18.8,54c-6.1,20.5-25.4,34.9-46.8,34.9c-4.7,0-9.4-0.7-14-2.1
				c-25.8-7.7-40.5-35-32.8-60.8c6-20.1,24.1-34.1,45.1-34.9c2.2-0.1,4.3-1.1,5.7-2.7c0.8-0.9,1.3-1.9,1.7-3
				c0.1-0.2,0.2-0.5,0.3-0.7l19.1-49.2c1.6-4.1-0.4-8.8-4.6-10.4c-4.1-1.6-8.8,0.4-10.4,4.6l-7.5,19.3l-2.9-29.4l0,0l90.3-199.7
				l17.3-4.9l0,0l-82.4,276.2C-201.1,157.2-199.9,160.8-197,162.8L-197,162.8z M-18-0.3L-156,62l12.1-40.6l130.8-39L-18-0.3z"/>
		</g>
	</g>
	<path class="st2" d="M-225,174.9c-7.5,0-14.5,2.9-19.8,8.2c-5.3,5.3-8.2,12.3-8.2,19.8s2.9,14.5,8.2,19.8s12.3,8.2,19.8,8.2
		s14.5-2.9,19.8-8.2c10.9-10.9,10.9-28.7,0-39.6C-210.5,177.8-217.6,174.9-225,174.9L-225,174.9z M-216.5,211.3
		c-2.3,2.3-5.3,3.5-8.5,3.5s-6.2-1.3-8.5-3.5c-2.3-2.3-3.5-5.3-3.5-8.5s1.2-6.2,3.5-8.5s5.3-3.5,8.5-3.5s6.2,1.3,8.5,3.5
		C-211.9,199.1-211.9,206.7-216.5,211.3L-216.5,211.3z"/>
	<path class="st2" d="M-191.3,76.2l0.1-0.2c1.6-4.1-0.4-8.8-4.6-10.4c-4.1-1.6-8.8,0.4-10.4,4.6l-0.1,0.2c-1.6,4.1,0.5,8.8,4.6,10.4
		c0.9,0.4,1.9,0.5,2.9,0.5C-195.6,81.3-192.5,79.3-191.3,76.2L-191.3,76.2z"/>
</g>
<g class="st0">
	<g class="st4">
		<g>
			<g>
				<defs>
					<rect id="SVGID_9_" x="176.8" y="-245.4" width="410" height="406"/>
				</defs>
				<clipPath id="SVGID_10_">
					<use xlink:href="#SVGID_9_"  style="overflow:visible;"/>
				</clipPath>
				<path class="st12" d="M505.8-163.7c7.9-19,4.1-41.7-11.3-57.2c-20.5-20.5-53.6-20.5-74.1,0c-19.3,19.2-20.4,49.8-3.4,70.4
					L273.5-6.9c-20.5-19.7-53.1-19.5-73.3,0.8c-20.5,20.5-20.5,53.6,0,74.1c15.5,15.5,38.2,19.2,57.2,11.3
					c-7.9,19-4.1,41.7,11.3,57.2c20.5,20.5,53.6,20.5,74.1,0c20.2-20.2,20.5-52.8,0.8-73.3L487-80.3c0.6,0.7,1.3,1.4,2,2.1
					c20.5,20.5,53.6,20.5,74.1,0s20.5-53.6,0-74.1C547.5-167.9,524.8-171.6,505.8-163.7L505.8-163.7z"/>
			</g>
			<g>
				<defs>
					<rect id="SVGID_11_" x="176.8" y="-245.4" width="410" height="406"/>
				</defs>
				<clipPath id="SVGID_12_">
					<use xlink:href="#SVGID_11_"  style="overflow:visible;"/>
				</clipPath>
				<path class="st13" d="M568.6-158.1c-11.4-11.4-26.5-17.6-42.7-17.6c-2.9,0-5.9,0.2-8.7,0.6c2.8-18.6-3.3-37.7-17.1-51.5
					c-11.4-11.4-26.6-17.7-42.7-17.7s-31.3,6.3-42.7,17.7c-10.7,10.7-17,24.9-17.6,40c-0.6,12.5,2.8,24.8,9.4,35.2L273-17.8
					c-10.3-7.6-22.8-11.7-35.8-11.7c-16.1,0-31.3,6.3-42.7,17.7s-17.7,26.6-17.7,42.7s6.3,31.3,17.7,42.7
					C205.9,85,221,91.4,237.2,91.4c2.9,0,5.9-0.2,8.7-0.6c-2.8,18.6,3.3,37.7,17.1,51.5c11.4,11.4,26.6,17.7,42.7,17.7
					s31.3-6.3,42.7-17.7c11.3-11.3,17.5-26.2,17.7-42.1c0.1-13.2-4-25.9-11.7-36.4L487-69.2C498-60,511.5-55,526-55
					c16.1,0,31.3-6.3,42.7-17.7C592.2-96.2,592.2-134.5,568.6-158.1L568.6-158.1z M557.3-84c-8.4,8.4-19.5,13-31.4,13
					s-23-4.6-31.4-13c-0.6-0.6-1.1-1.1-1.7-1.8c-1.5-1.6-3.5-2.6-5.7-2.7c-2.2-0.1-4.3,0.8-5.9,2.3L337.8,57.5
					c-3.1,3.1-3.1,8.1-0.1,11.2c16.6,17.3,16.3,45.2-0.6,62.1c-8.4,8.4-19.5,13-31.4,13s-23-4.6-31.4-13
					c-12.8-12.8-16.5-31.8-9.6-48.5c1.2-3,0.6-6.4-1.7-8.7c-1.5-1.5-3.6-2.3-5.7-2.3c-1,0-2.1,0.2-3.1,0.6
					c-5.4,2.3-11.2,3.4-17.1,3.4c-11.9,0-23-4.6-31.4-13s-13-19.5-13-31.4s4.6-23,13-31.4s19.5-13,31.4-13
					c11.5,0,22.4,4.4,30.7,12.4c3.1,3,8.1,3,11.2-0.1l143.6-143.6c2.9-2.9,3.1-7.6,0.5-10.7c-14.6-17.7-13.4-43.3,2.9-59.6
					c8.4-8.4,19.5-13,31.4-13s23,4.6,31.4,13c12.8,12.8,16.5,31.8,9.6,48.5c-1.2,3-0.6,6.4,1.7,8.7c2.3,2.3,5.7,3,8.7,1.7
					c5.4-2.3,11.2-3.4,17.1-3.4c11.9,0,23,4.6,31.4,13C574.6-129.4,574.6-101.3,557.3-84L557.3-84z"/>
			</g>
		</g>
		<path class="st5" d="M340.8-46.1L303.5-8.8c-3.1,3.1-3.1,8.2,0,11.3c1.6,1.6,3.6,2.3,5.7,2.3c2,0,4.1-0.8,5.7-2.3l37.3-37.3
			c3.1-3.1,3.1-8.2,0-11.3C349-49.2,344-49.2,340.8-46.1L340.8-46.1z"/>
		<path class="st5" d="M357.8-63.1l-0.2,0.2c-3.1,3.1-3.1,8.2,0,11.3c1.6,1.6,3.6,2.3,5.7,2.3s4.1-0.8,5.7-2.3l0.2-0.2
			c3.1-3.1,3.1-8.2,0-11.3C366-66.2,361-66.2,357.8-63.1L357.8-63.1z"/>
	</g>
	<g class="st4">
		<g>
			<g>
				<defs>
					<rect id="SVGID_13_" x="401.2" y="-189" width="410" height="406"/>
				</defs>
				<clipPath id="SVGID_14_">
					<use xlink:href="#SVGID_13_"  style="overflow:visible;"/>
				</clipPath>
				<path class="st14" d="M730.4-107.3c7.9-19,4.1-41.7-11.3-57.2c-20.5-20.5-53.6-20.5-74.1,0c-19.3,19.3-20.4,49.8-3.4,70.4
					L497.8,49.5c-20.5-19.7-53.1-19.4-73.3,0.8c-20.5,20.5-20.5,53.6,0,74.1c15.5,15.5,38.2,19.2,57.2,11.3
					c-7.9,19-4.1,41.7,11.3,57.2c20.5,20.5,53.6,20.5,74.1,0c20.2-20.2,20.5-52.8,0.8-73.3L711.4-23.9c0.6,0.7,1.3,1.4,2,2.1
					c20.5,20.5,53.6,20.5,74.1,0s20.5-53.6,0-74.1C772-111.5,749.4-115.2,730.4-107.3L730.4-107.3z"/>
			</g>
			<g>
				<defs>
					<rect id="SVGID_15_" x="401.2" y="-189" width="410" height="406"/>
				</defs>
				<clipPath id="SVGID_16_">
					<use xlink:href="#SVGID_15_"  style="overflow:visible;"/>
				</clipPath>
				<path class="st15" d="M793.1-101.7c-11.4-11.4-26.6-17.7-42.7-17.7c-2.9,0-5.9,0.2-8.7,0.6c2.8-18.6-3.3-37.7-17.1-51.5
					c-11.4-11.4-26.6-17.7-42.7-17.7s-31.3,6.3-42.7,17.7c-10.7,10.7-17,24.9-17.6,40c-0.6,12.5,2.8,24.8,9.4,35.2L497.5,38.6
					c-10.3-7.6-22.8-11.7-35.8-11.7c-16.1,0-31.3,6.3-42.7,17.7c-11.4,11.4-17.7,26.6-17.7,42.7s6.3,31.3,17.7,42.7
					c11.4,11.4,26.6,17.7,42.7,17.7c2.9,0,5.9-0.2,8.7-0.6c-2.8,18.6,3.3,37.7,17.1,51.5c11.4,11.4,26.6,17.7,42.7,17.7
					c16.1,0,31.3-6.3,42.7-17.7c11.3-11.3,17.5-26.2,17.7-42.1c0.1-13.2-4-25.9-11.7-36.4L711.5-12.7C722.5-3.5,736,1.5,750.5,1.5
					c16.1,0,31.3-6.3,42.7-17.7C816.6-39.8,816.6-78.1,793.1-101.7L793.1-101.7z M781.9-27.6c-8.4,8.4-19.5,13-31.4,13
					s-23-4.6-31.4-13c-0.6-0.6-1.1-1.1-1.7-1.8c-1.5-1.6-3.5-2.6-5.7-2.7c-2.2-0.1-4.3,0.8-5.9,2.3L562.2,113.9
					c-3.1,3.1-3.1,8.1-0.1,11.2c16.6,17.3,16.3,45.2-0.6,62.1c-8.4,8.4-19.5,13-31.4,13s-23-4.6-31.4-13
					c-12.8-12.8-16.5-31.8-9.6-48.5c1.2-3,0.6-6.4-1.7-8.7c-1.5-1.5-3.6-2.3-5.7-2.3c-1,0-2.1,0.2-3.1,0.6
					c-5.4,2.3-11.2,3.4-17.1,3.4c-11.9,0-23-4.6-31.4-13s-13-19.5-13-31.4s4.6-23,13-31.4s19.5-13,31.4-13
					c11.5,0,22.4,4.4,30.7,12.4c3.1,3,8.1,3,11.2-0.1L647.1-88.3c2.9-2.9,3.1-7.6,0.5-10.7c-14.6-17.7-13.4-43.3,2.9-59.6
					c8.4-8.4,19.5-13,31.4-13s23,4.6,31.4,13c12.8,12.8,16.5,31.8,9.6,48.5c-1.2,3-0.6,6.4,1.7,8.7c2.3,2.3,5.7,3,8.7,1.7
					c5.4-2.3,11.2-3.4,17.1-3.4c11.9,0,23,4.6,31.4,13C799.1-73,799.1-44.9,781.9-27.6L781.9-27.6z"/>
			</g>
		</g>
	</g>
</g>
<g class="st0">
	<path class="st3" d="M-209.5,160.7l-28.8-28.8l-27.4-27.4c-5.5-5.5-14.6-5.5-20.2,0c-5.5,5.5-5.5,14.6,0,20.2l83.6,83.6
		c5.5,5.5,14.6,5.5,20.2,0c5.5-5.5,5.5-14.6,0-20.2L-209.5,160.7z"/>
	<path class="st1" d="M-169.2,62.4l83.5,83.5c6.8,6.8,17.8,6.8,24.6,0c6.8-6.8,6.8-17.8,0-24.6l-19.6-19.6l-0.1-0.1l46.1-46l23.1-23
		l46.1-46c14.1-14.1,14.1-37.1,0-51.2L-13-112.1c-14.1-14.1-37.1-14.1-51.2,0l-115,115.3l-19.7-19.7c-6.8-6.8-17.8-6.8-24.6,0
		s-6.8,17.8,0,24.6L-169.2,62.4z"/>
	<path class="st3" d="M10.9-88.1l11.3,11.3l23.1-23c6.3-6.3,6.3-16.7,0-23.1c-6.3-6.3-16.7-6.3-23.1,0l-23,23.1L10.9-88.1z"/>
	<path class="st3" d="M-209.5,160.7l-28.8-28.8l69.3-69.3l28.8,28.8L-209.5,160.7z"/>
	<path class="st2" d="M-69.5,101.6L40.1-7.7l0,0l0,0C48.4-16,53-27.1,53-38.9c0-11.9-4.6-23-12.9-31.3l-6.6-6.6l17.4-17.4
		c7.5-7.5,9.1-18.7,4.7-27.7l53.6-53.6c3.1-3.1,3.1-8.2,0-11.3c-3.1-3.1-8.2-3.1-11.3,0l-53.6,53.6c-3.3-1.6-6.8-2.4-10.6-2.4
		c-6.5,0-12.6,2.5-17.2,7.1l-17.4,17.4l-6.6-6.6c-8.3-8.3-19.4-12.9-31.3-12.9c-11.8,0-22.9,4.6-31.2,12.9L-179.2-8.1l-14.1-14.1
		c-4.8-4.8-11.2-7.4-17.9-7.4c-6.8,0-13.2,2.6-17.9,7.4c-9.9,9.9-9.9,26,0,35.9l48.9,48.9l-58,58L-260,98.8
		c-4.2-4.2-9.8-6.5-15.7-6.5c-6,0-11.5,2.3-15.7,6.5c-8.7,8.7-8.7,22.8,0,31.5l83.6,83.6c4.2,4.2,9.8,6.5,15.7,6.5
		s11.5-2.3,15.7-6.5c8.7-8.7,8.7-22.8,0-31.5l-21.7-21.7l58-58l48.9,48.9c4.8,4.8,11.1,7.4,17.9,7.4s13.2-2.6,17.9-7.4
		c4.8-4.8,7.4-11.1,7.4-17.9c0-6.8-2.6-13.2-7.4-17.9L-69.5,101.6 M-187.8,202.6c-1.2,1.2-2.7,1.8-4.4,1.8s-3.3-0.6-4.4-1.8
		l-83.6-83.6c-2.4-2.4-2.4-6.4,0-8.9c1.2-1.2,2.7-1.8,4.4-1.8s3.3,0.6,4.4,1.8l83.6,83.6C-185.3,196.1-185.3,200.1-187.8,202.6
		L-187.8,202.6z M-209.5,149.4l-17.5-17.5l58-58l17.5,17.5L-209.5,149.4z M33.6-25.5L21.4-37.7c-3.1-3.1-8.2-3.1-11.3,0
		c-3.1,3.1-3.1,8.2,0,11.3l13,13L11.4-1.7l-31.6-31.6c-3.1-3.1-8.2-3.1-11.3,0c-3.1,3.1-3.1,8.2,0,11.3L0.1,9.6l-11.8,11.7l-12.9-13
		c-3.1-3.1-8.2-3.1-11.3,0c-3.1,3.1-3.1,8.2,0,11.3L-23,32.5l-11.7,11.8l-31.6-31.6c-3.1-3.1-8.2-3.1-11.3,0
		c-3.1,3.1-3.1,8.2,0,11.3L-46,55.6l-11.8,11.7l-12.9-12.9c-3.1-3.1-8.2-3.1-11.3,0c-3.1,3.1-3.1,8.2,0,11.3L-69,78.6l-11.7,11.7
		l-31.5-31.5c-3.1-3.1-8.2-3.1-11.3,0c-3.1,3.1-3.1,8.2,0,11.3l56.9,56.9l0,0c1.8,1.8,2.7,4.1,2.7,6.6s-1,4.9-2.7,6.6
		c-1.8,1.8-4.1,2.7-6.6,2.7s-4.9-1-6.6-2.7l-138-137.8c-3.7-3.7-3.7-9.6,0-13.3c1.8-1.8,4.1-2.7,6.6-2.7s4.9,1,6.6,2.7l19.7,19.7
		c1.5,1.5,3.5,2.3,5.7,2.3l0,0c2.1,0,4.2-0.8,5.7-2.4l115-115.3c5.3-5.3,12.4-8.2,19.9-8.2c7.6,0,14.7,2.9,20,8.2l12.2,12.2l0,0
		l23,23l0,0l12.2,12.2c5.3,5.3,8.2,12.4,8.2,20C37-34.2,35.8-29.6,33.6-25.5L33.6-25.5z M39.6-105.5L22.2-88.1L10.5-99.8l17.4-17.4
		c1.6-1.6,3.6-2.4,5.9-2.4c2.2,0,4.3,0.9,5.9,2.4C42.8-114,42.8-108.7,39.6-105.5L39.6-105.5z"/>
	<path class="st2" d="M-37.2-50.3c-3.1-3.1-8.2-3.1-11.3,0c-3.1,3.1-3.1,8.2,0,11.3l0.2,0.2c1.6,1.6,3.6,2.3,5.6,2.3
		c2.1,0,4.1-0.8,5.7-2.4c3.1-3.1,3.1-8.2,0-11.3L-37.2-50.3z"/>
	<path class="st2" d="M-83.2-4.3c-3.1-3.1-8.2-3.1-11.3,0c-3.1,3.1-3.1,8.2,0,11.3l0.2,0.2c1.6,1.6,3.6,2.3,5.7,2.3
		c2,0,4.1-0.8,5.7-2.3c3.1-3.1,3.1-8.2,0-11.3L-83.2-4.3z"/>
	<path class="st2" d="M-129.2,41.8c-3.1-3.1-8.2-3.1-11.3,0s-3.1,8.2,0,11.3l0.2,0.2c1.6,1.6,3.6,2.4,5.7,2.4c2,0,4.1-0.8,5.7-2.3
		c3.1-3.1,3.1-8.2,0-11.3L-129.2,41.8z"/>
</g>
<g class="st0">
	<g class="st4">
		<g>
			<defs>
				<rect id="SVGID_17_" x="29.5" y="-102.2" width="410" height="338"/>
			</defs>
			<clipPath id="SVGID_18_">
				<use xlink:href="#SVGID_17_"  style="overflow:visible;"/>
			</clipPath>
			<path class="st16" d="M227.8,95.1L379.5-57.7L353.8-83c-16.2-16.3-33.4-10.3-45.4,1.7C260.5-33.6,225.5,1.1,177.5,48.8
				L45.1,183.6c-21,25,5.4,59,36,35.8L186,111.9L227.8,95.1z"/>
		</g>
	</g>
	<path class="st3" d="M354.3-32.2L405.8,19l25.3-25.5l-51.5-51.2L354.3-32.2z"/>
	<path class="st3" d="M405.8,19l-51.5-51.2L329-6.7l51.5,51.2L405.8,19z"/>
	<path class="st3" d="M380.5,44.5L329-6.7l-25.3,25.5L355.2,70L380.5,44.5z"/>
	<path class="st3" d="M355.2,70l-51.5-51.2l-25.4,25.5l51.5,51.2L355.2,70z"/>
	<path class="st3" d="M329.8,95.4l-51.5-51.1L253,69.8l51.5,51.2L329.8,95.4z"/>
	<g class="st4">
		<g>
			<defs>
				<rect id="SVGID_19_" x="29.5" y="-102.2" width="410" height="338"/>
			</defs>
			<clipPath id="SVGID_20_">
				<use xlink:href="#SVGID_19_"  style="overflow:visible;"/>
			</clipPath>
			<path class="st17" d="M304.5,120.9L253,69.8l-25.3,25.5l51.5,51.2L304.5,120.9z"/>
		</g>
		<g>
			<defs>
				<rect id="SVGID_21_" x="29.5" y="-102.2" width="410" height="338"/>
			</defs>
			<clipPath id="SVGID_22_">
				<use xlink:href="#SVGID_21_"  style="overflow:visible;"/>
			</clipPath>
			<path class="st18" d="M436.8-12.2l-51.5-51.2l0,0l0,0l-25.8-25.3c-8.1-8.2-17.1-12.3-26.8-12.3c-10.4,0-20.7,4.8-29.9,14
				c-31.6,31.5-57.6,57.3-85.4,84.9L172,43.1l-0.1,0.1L39.4,177.8c-0.1,0.1-0.3,0.3-0.4,0.5c-9.7,11.5-12.1,26.3-6.4,38.6
				c5.2,11.1,16,18.1,28.2,18.1c8.4,0,17.1-3.2,25.2-9.4c0.3-0.2,0.6-0.5,0.9-0.8l103.6-106.2l35.2-14.1l47.9,47.5
				c1.6,1.6,3.6,2.3,5.6,2.3c2.1,0,4.1-0.8,5.7-2.4l25.3-25.5l25.3-25.5l0,0l25.3-25.5l0,0l50.6-51l0,0L436.7-1
				c1.5-1.5,2.3-3.5,2.3-5.7C439.1-8.7,438.3-10.7,436.8-12.2L436.8-12.2z M304.5,109.6l-40.2-39.9l14-14.1l40.2,39.9L304.5,109.6z
				 M329.8,84.1l-40.2-39.9l14-14.1L343.8,70L329.8,84.1z M355.1,58.6l-40.2-39.9l14-14.1l40.2,39.9L355.1,58.6z M380.5,33.2
				L340.3-6.7l14-14.1l40.2,39.9L380.5,33.2z M183,104.4c-1,0.4-2,1-2.8,1.8l-104.4,107c-5.1,3.8-10.3,5.8-15,5.8
				c-6,0-11.1-3.3-13.7-8.8c-3.1-6.7-1.6-14.6,3.9-21.4L183.3,54.3l45.4-45.2c27.8-27.6,53.8-53.4,85.4-84.9c6-6,12.6-9.3,18.6-9.3
				c4.2,0,8.3,1.6,12.3,4.8l-31.9,31.8c-3.1,3.1-3.1,8.2,0,11.3c1.6,1.6,3.6,2.4,5.7,2.4c2,0,4.1-0.8,5.6-2.3l32.2-32l11.6,11.5
				l-145,146L183,104.4z M279.2,135.1L239,95.2l14-14.1l40.2,39.9L279.2,135.1z M405.8,7.7l-40.2-39.9l14-14.1l40.2,39.9L405.8,7.7z
				"/>
		</g>
	</g>
	<path class="st2" d="M301.8-17.9c2,0,4.1-0.8,5.6-2.3l0.2-0.2c3.1-3.1,3.2-8.2,0.1-11.3c-3.1-3.1-8.2-3.2-11.3-0.1l-0.2,0.2
		c-3.1,3.1-3.2,8.2-0.1,11.3C297.6-18.7,299.8-17.9,301.8-17.9L301.8-17.9z"/>
</g>
<g class="st0">
	<path class="st3" d="M-246.5-84.9c0,14-10.5,25.3-23.3,25.3c-12.9,0-23.3-11.3-23.3-25.3s10.4-25.3,23.3-25.3
		C-257-110.2-246.5-98.9-246.5-84.9L-246.5-84.9z"/>
	<path class="st3" d="M-178-116.5c0,14-10.4,25.3-23.3,25.3c-12.9,0-23.3-11.3-23.3-25.3s10.4-25.3,23.3-25.3
		C-188.5-141.8-178-130.5-178-116.5L-178-116.5z"/>
	<path class="st3" d="M-109.5-84.9c0,14-10.4,25.3-23.3,25.3s-23.3-11.3-23.3-25.3s10.4-25.3,23.3-25.3
		C-120-110.2-109.5-98.9-109.5-84.9L-109.5-84.9z"/>
	<g class="st4">
		<g>
			<defs>
				<rect id="SVGID_23_" x="-406.2" y="-236.1" width="410" height="372"/>
			</defs>
			<clipPath id="SVGID_24_">
				<use xlink:href="#SVGID_23_"  style="overflow:visible;"/>
			</clipPath>
			<path class="st19" d="M-155-4.5c0,25.7-20.8,46.6-46.4,46.6s-46.4-20.9-46.4-46.6s20.8-46.6,46.4-46.6S-155-30.3-155-4.5
				L-155-4.5z"/>
		</g>
		<g>
			<defs>
				<rect id="SVGID_25_" x="-406.2" y="-236.1" width="410" height="372"/>
			</defs>
			<clipPath id="SVGID_26_">
				<use xlink:href="#SVGID_25_"  style="overflow:visible;"/>
			</clipPath>
			<path class="st20" d="M-132.9-110.2c12.9,0,23.3,11.3,23.3,25.3s-10.4,25.3-23.3,25.3s-23.3-11.3-23.3-25.3
				S-145.8-110.2-132.9-110.2L-132.9-110.2z M-201.4-51.1c25.6,0,46.4,20.9,46.4,46.6s-20.8,46.6-46.4,46.6s-46.4-20.9-46.4-46.6
				C-247.8-30.3-227-51.1-201.4-51.1L-201.4-51.1z M-240.4,110.3c21.5,22.5,56.6,22.5,78,0L-38.2-20.1c44.9-47.1,44.9-124.3,0-171.4
				c-44.8-47.2-118.2-47.2-163.1-0.1c-44.8-47.1-118.2-47.1-163.1,0s-44.9,124.3,0,171.4L-240.4,110.3z M-178-116.5
				c0,14-10.4,25.3-23.3,25.3s-23.3-11.3-23.3-25.3s10.4-25.3,23.3-25.3S-178-130.5-178-116.5L-178-116.5z M-269.9-110.2
				c12.9,0,23.3,11.3,23.3,25.3s-10.4,25.3-23.3,25.3c-12.9,0-23.3-11.3-23.3-25.3S-282.7-110.2-269.9-110.2L-269.9-110.2z"/>
		</g>
		<g>
			<defs>
				<rect id="SVGID_27_" x="-406.2" y="-236.1" width="410" height="372"/>
			</defs>
			<clipPath id="SVGID_28_">
				<use xlink:href="#SVGID_27_"  style="overflow:visible;"/>
			</clipPath>
			<path class="st21" d="M-32.5-197.1c-23.2-24.4-54.2-37.8-87.3-37.8c-30.4,0-59.1,11.4-81.6,32.1c-22.5-20.8-51.1-32.1-81.6-32.1
				c-33,0-64,13.4-87.3,37.8c-47.9,50.3-47.9,132.2,0,182.5l124.1,130.4c11.9,12.5,27.8,19.4,44.8,19.4s32.9-6.9,44.8-19.4
				L-32.5-14.6C15.4-64.9,15.4-146.8-32.5-197.1L-32.5-197.1z M-44-25.7l-124.1,130.5c-8.9,9.3-20.6,14.4-33.2,14.4
				c-12.6,0-24.4-5.1-33.2-14.4L-358.7-25.7c-42.1-44.2-42.1-116.2,0-160.4c20.2-21.2,47.1-32.9,75.8-32.9s55.6,11.7,75.8,32.9
				c1.5,1.6,3.6,2.5,5.8,2.5s4.3-0.9,5.8-2.5c20.2-21.2,47.1-32.9,75.8-32.9s55.6,11.7,75.8,32.9C-2-141.8-2-69.9-44-25.7L-44-25.7z
				"/>
		</g>
	</g>
	<path class="st2" d="M-276-199c-0.1-4.4-3.6-7.9-8-7.9h-0.1c-24.9,0.3-48.3,10.6-65.9,29.1c-0.7,0.7-1.3,1.4-2,2.1
		c-0.5,0.5-0.9,1-1.4,1.5c-2.9,3.3-2.5,8.4,0.8,11.3c1.5,1.3,3.4,1.9,5.2,1.9c2.2,0,4.5-0.9,6.1-2.8c0.4-0.4,0.7-0.9,1.1-1.3
		c0.5-0.6,1.1-1.2,1.7-1.8c14.6-15.3,34-23.9,54.5-24.2C-279.4-191-275.9-194.6-276-199L-276-199z"/>
	<path class="st2" d="M-356.4-156.8c-4-2-8.8-0.3-10.7,3.6l-0.1,0.2c-1.9,4-0.3,8.8,3.7,10.7c1.1,0.5,2.3,0.8,3.5,0.8
		c3,0,5.8-1.7,7.2-4.5v-0.1C-350.9-150.1-352.5-154.9-356.4-156.8L-356.4-156.8z"/>
	<path class="st2" d="M-201.4-59.1c-30,0-54.4,24.5-54.4,54.6s24.4,54.6,54.4,54.6S-147,25.7-147-4.5S-171.4-59.1-201.4-59.1
		L-201.4-59.1z M-201.4,34.1c-21.2,0-38.4-17.3-38.4-38.6s17.2-38.6,38.4-38.6S-163-25.8-163-4.5S-180.2,34.1-201.4,34.1
		L-201.4,34.1z"/>
	<path class="st2" d="M-201.4-83.2c17.3,0,31.3-14.9,31.3-33.3c0-18.4-14.1-33.3-31.3-33.3c-17.3,0-31.3,14.9-31.3,33.3
		C-232.7-98.2-218.6-83.2-201.4-83.2L-201.4-83.2z M-201.4-133.8c8.5,0,15.3,7.8,15.3,17.3s-6.9,17.3-15.3,17.3
		c-8.5,0-15.3-7.8-15.3-17.3S-209.8-133.8-201.4-133.8L-201.4-133.8z"/>
	<path class="st2" d="M-132.9-118.2c-17.3,0-31.3,14.9-31.3,33.3s14.1,33.3,31.3,33.3c17.3,0,31.3-14.9,31.3-33.3
		C-101.5-103.3-115.6-118.2-132.9-118.2L-132.9-118.2z M-132.9-67.6c-8.5,0-15.3-7.8-15.3-17.3s6.9-17.3,15.3-17.3
		c8.5,0,15.3,7.8,15.3,17.3C-117.5-75.4-124.4-67.6-132.9-67.6L-132.9-67.6z"/>
	<path class="st2" d="M-238.5-84.9c0-18.4-14.1-33.3-31.3-33.3c-17.3,0-31.3,14.9-31.3,33.3s14.1,33.3,31.3,33.3
		C-252.6-51.6-238.5-66.5-238.5-84.9L-238.5-84.9z M-269.9-67.6c-8.5,0-15.3-7.8-15.3-17.3s6.9-17.3,15.3-17.3
		c8.5,0,15.3,7.8,15.3,17.3C-254.5-75.4-261.4-67.6-269.9-67.6L-269.9-67.6z"/>
</g>
<g class="st0">
	<path class="st1" d="M170.8,167.7H273l13.6,15l36.8-60.1l34.9,43.4l47.5-93.4l57.5,128.5l18.5-33.5h82.5V36.9c0-8.8-7.2-16-16-16
		H186.8c-8.8,0-16,7.2-16,16V167.7z"/>
	<path class="st1" d="M323.5,122.5l-36.8,60.1l-13.6-15H170.8v77.2h393.6v-77.2H482l-18.5,33.5L406,72.6L358.5,166L323.5,122.5z"/>
	<path class="st3" d="M564.5,244.9H170.8v16c0,8.8,7.2,16,16,16h361.6c8.8,0,16-7.2,16-16V244.9z"/>
	<path class="st3" d="M403.6,276.9h-72l-16,64h104L403.6,276.9z"/>
	<path class="st2" d="M548.5,12.9H186.8c-13.2,0-24,10.8-24,24v224c0,13.2,10.8,24,24,24h134.6L308,339c-0.6,2.4-0.1,4.9,1.5,6.9
		c1.5,1.9,3.8,3.1,6.3,3.1h104l0,0c4.4,0,8-3.6,8-8c0-0.9-0.1-1.7-0.4-2.5L413.9,285h134.6c13.2,0,24-10.8,24-24V37
		C572.5,23.7,561.6,12.9,548.5,12.9L548.5,12.9z M178.8,175.7h90.7l11.3,12.4c1.7,1.9,4.2,2.8,6.7,2.6c2.5-0.2,4.8-1.6,6.1-3.8
		l30.9-50.4l27.8,34.6c1.7,2.1,4.4,3.2,7.1,2.9c2.7-0.3,5.1-1.9,6.3-4.3l39.9-78.4l50.7,113.3c1.2,2.8,3.9,4.6,7,4.7
		c0.1,0,0.2,0,0.3,0c2.9,0,5.6-1.6,7-4.1l16.2-29.4h69.8v61.2H178.8V175.7z M186.8,28.9h361.6c4.4,0,8,3.6,8,8v122.8H482
		c-2.9,0-5.6,1.6-7,4.1l-10.8,19.4l-51-113.9c-1.3-2.8-4-4.7-7.1-4.7c-3.1-0.1-5.9,1.6-7.3,4.4L357,151.3l-27.2-33.8
		c-1.6-2-4.1-3.1-6.7-3c-2.6,0.2-5,1.6-6.3,3.8l-31.2,51l-6.5-7.1c-1.5-1.7-3.7-2.6-5.9-2.6h-94.2V36.9
		C178.8,32.5,182.5,28.9,186.8,28.9L186.8,28.9z M409.5,332.9H326l12-48h59.5L409.5,332.9z M548.5,268.9H186.8c-4.4,0-8-3.6-8-8v-8
		h377.6v8C556.5,265.3,552.8,268.9,548.5,268.9L548.5,268.9z"/>
	<path class="st2" d="M275.3,56.9h0.3c4.4,0,8-3.6,8-8s-3.6-8-8-8h-0.3c-4.4,0-8,3.6-8,8S271,56.9,275.3,56.9L275.3,56.9z"/>
	<path class="st2" d="M198.8,56.9h52.8c4.4,0,8-3.6,8-8s-3.6-8-8-8h-52.8c-4.4,0-8,3.6-8,8S194.5,56.9,198.8,56.9L198.8,56.9z"/>
</g>
<g class="st0">
	<path class="st3" d="M-308-214h48c8.8,0,16-7.2,16-16c0-0.8-0.1-1.6-0.2-2.3C-245.3-240-252-246-260-246h-48c-8.8,0-16,7.2-16,16
		S-316.8-214-308-214L-308-214z"/>
	<path class="st1" d="M-204-181.2h-212c-14.6,0-24.7,7.7-28.6,22.4l-14.8,62.2h350.9l-14.8-62.2c-3.9-14.7-14-22.4-28.6-22.4
		C-151.9-181.2-204-181.2-204-181.2z"/>
	<path class="st3" d="M-284-96.6h-181.5c-8.4,0-15.3,6.9-15.3,15.4V-56c0,8.5,6.9,15.4,15.3,15.4h362.9c8.4,0,15.3-6.9,15.3-15.4
		v-25.2c0-8.5-6.9-15.4-15.3-15.4H-284z"/>
	<path class="st1" d="M-108.7-40.6h-350.6l16.7,122c1.8,13.4,12,24.5,26.6,24.5h264c14.6,0,24.8-11.1,26.6-24.5L-108.7-40.6z
		 M-300,16.7c0-8.8,7.2-16,16-16s16,7.2,16,16v32c0,8.8-7.2,16-16,16s-16-7.2-16-16V16.7z M-220,16.7c0-8.8,7.2-16,16-16
		s16,7.2,16,16v32c0,8.8-7.2,16-16,16s-16-7.2-16-16V16.7z M-364,0.7c8.8,0,16,7.2,16,16v32c0,8.8-7.2,16-16,16s-16-7.2-16-16v-32
		C-380,7.9-372.8,0.7-364,0.7L-364,0.7z"/>
	<path class="st3" d="M-348,48.7v-32c0-8.8-7.2-16-16-16s-16,7.2-16,16v32c0,8.8,7.2,16,16,16S-348,57.5-348,48.7L-348,48.7z"/>
	<path class="st3" d="M-300,16.7v32c0,8.8,7.2,16,16,16s16-7.2,16-16v-32c0-8.8-7.2-16-16-16S-300,7.9-300,16.7L-300,16.7z"/>
	<path class="st3" d="M-220,16.7v32c0,8.8,7.2,16,16,16s16-7.2,16-16v-32c0-8.8-7.2-16-16-16S-220,7.9-220,16.7L-220,16.7z"/>
	<path class="st2" d="M-102.2-104.6l-13.4-56.1c0-0.1,0-0.1-0.1-0.2c-4.8-18-18.1-28.3-36.3-28.3h-44v-31.2c0-11-9-20-20-20h-22.3
		c-3.9-8.1-12.1-13.7-21.7-13.7h-48c-9.5,0-17.8,5.6-21.7,13.7H-352c-11,0-20,9-20,20v31.2h-44c-18.3,0-31.5,10.3-36.3,28.3
		c0,0.1,0,0.1-0.1,0.2l-13.4,56.1c-12.7,0.2-23,10.6-23,23.4V-56c0,12.6,10,22.9,22.5,23.4l15.7,115.1c2.5,18.5,16.7,31.4,34.6,31.4
		h264c17.8,0,32-12.9,34.6-31.4l15.7-115.1C-89.1-33-79.1-43.3-79.1-56v-25.2C-79.2-94-89.5-104.4-102.2-104.6L-102.2-104.6z
		 M-308-238h48c3.3,0,6.1,2,7.3,4.8c0,0.3,0,0.6,0,0.9c0,1.2,0.3,2.2,0.7,3.2c-0.4,4-3.8,7.1-7.9,7.1H-308c-4.4,0-8-3.6-8-8
		C-316-234.4-312.4-238-308-238L-308-238z M-356-220.4c0-2.2,1.8-4,4-4h20.7c2.6,10.5,12,18.3,23.3,18.3h48
		c11.3,0,20.8-7.8,23.3-18.3h20.7c2.2,0,4,1.8,4,4v31.2h-144V-220.4z M-436.9-156.8c3-11,9.8-16.4,20.9-16.4h264
		c11.1,0,17.9,5.4,20.9,16.4l12.4,52.2H-196v-13.1c0-4.4-3.6-8-8-8s-8,3.6-8,8v13.1h-64v-13.1c0-4.4-3.6-8-8-8s-8,3.6-8,8v13.1h-64
		v-13.1c0-4.4-3.6-8-8-8s-8,3.6-8,8v13.1h-77.3L-436.9-156.8z M-133.2,80.3c-1.2,8.8-7.4,17.6-18.7,17.6h-264
		c-11.3,0-17.5-8.8-18.7-17.6l-15.5-112.9h332.3L-133.2,80.3z M-102.5-48.6h-363c-4,0-7.3-3.3-7.3-7.4v-4.6h44.8c4.4,0,8-3.6,8-8
		s-3.6-8-8-8h-44.8v-4.6c0-4.1,3.3-7.4,7.3-7.4h6l0,0l0,0h94.5c0.3,0,0.7,0.1,1,0.1c0.4,0,0.7,0,1-0.1h78c0.3,0,0.7,0.1,1,0.1
		c0.4,0,0.7,0,1-0.1h78c0.3,0,0.7,0.1,1,0.1c0.4,0,0.7,0,1-0.1h94.3l0,0l0,0h6c4,0,7.3,3.3,7.3,7.4v4.6H-140c-4.4,0-8,3.6-8,8
		s3.6,8,8,8h44.8v4.6C-95.2-51.9-98.5-48.6-102.5-48.6L-102.5-48.6z"/>
	<path class="st2" d="M-364-7.3c-13.2,0-24,10.8-24,24v32c0,13.2,10.8,24,24,24s24-10.8,24-24v-32C-340,3.4-350.8-7.3-364-7.3
		L-364-7.3z M-356,48.7c0,4.4-3.6,8-8,8s-8-3.6-8-8v-32c0-4.4,3.6-8,8-8s8,3.6,8,8V48.7z"/>
	<path class="st2" d="M-204-7.3c-13.2,0-24,10.8-24,24v32c0,13.2,10.8,24,24,24s24-10.8,24-24v-32C-180,3.4-190.8-7.3-204-7.3
		L-204-7.3z M-196,48.7c0,4.4-3.6,8-8,8s-8-3.6-8-8v-32c0-4.4,3.6-8,8-8s8,3.6,8,8V48.7z"/>
	<path class="st2" d="M-284-7.3c-13.2,0-24,10.8-24,24v32c0,13.2,10.8,24,24,24s24-10.8,24-24v-32C-260,3.4-270.8-7.3-284-7.3
		L-284-7.3z M-276,48.7c0,4.4-3.6,8-8,8s-8-3.6-8-8v-32c0-4.4,3.6-8,8-8s8,3.6,8,8V48.7z"/>
	<path class="st2" d="M-163.7-76.6h-0.3c-4.4,0-8,3.6-8,8s3.6,8,8,8h0.3c4.4,0,8-3.6,8-8S-159.3-76.6-163.7-76.6L-163.7-76.6z"/>
</g>
<g>
	<path class="st22" d="M36.4,11.7V6.9h-4v-4h-4.8v4h-4v4.8h4v4h4.8v-4L36.4,11.7L36.4,11.7z"/>
	<path class="st23" d="M27.6,11.7h-4V6.9H10.2c-2.4,0-4.4,2-4.4,4.4v4.4v4.9c0.3-0.1,0.7-0.2,1.1-0.2h46.2c0.4,0,0.8,0.1,1.1,0.2
		v-9.4c0-2.4-2-4.4-4.4-4.4H36.4v4.8h-4v4h-4.8L27.6,11.7L27.6,11.7z"/>
	<path class="st23" d="M10.2,30.4v-9.9H6.9c-0.4,0-0.8,0.1-1.1,0.2c-1.3,0.5-2.2,1.7-2.2,3.1v6.6c0,1.4,0.9,2.7,2.2,3.1
		c0.3,0.1,0.7,0.2,1.1,0.2C8.7,33.7,10.2,32.2,10.2,30.4L10.2,30.4z"/>
	<path class="st23" d="M10.2,20.5v9.9c0,1.8,1.5,3.3,3.3,3.3s3.3-1.5,3.3-3.3v-9.9H10.2z"/>
	<path class="st23" d="M16.8,20.5v9.9c0,1.8,1.5,3.3,3.3,3.3s3.3-1.5,3.3-3.3v-9.9H16.8z"/>
	<path class="st23" d="M23.4,20.5v9.9c0,1.8,1.5,3.3,3.3,3.3c1.8,0,3.3-1.5,3.3-3.3v-9.9H23.4z"/>
	<path class="st23" d="M30,20.5v9.9c0,1.8,1.5,3.3,3.3,3.3s3.3-1.5,3.3-3.3v-9.9H30z"/>
	<path class="st23" d="M36.6,20.5v9.9c0,1.8,1.5,3.3,3.3,3.3s3.3-1.5,3.3-3.3v-9.9H36.6z"/>
	<path class="st23" d="M43.2,20.5v9.9c0,1.8,1.5,3.3,3.3,3.3c1.8,0,3.3-1.5,3.3-3.3v-9.9H43.2z"/>
	<path class="st23" d="M49.8,20.5v9.9c0,1.8,1.5,3.3,3.3,3.3c0.4,0,0.8-0.1,1.1-0.2c1.3-0.5,2.2-1.7,2.2-3.1v-6.6
		c0-1.4-0.9-2.7-2.2-3.1c-0.3-0.1-0.7-0.2-1.1-0.2H49.8z"/>
	<path class="st23" d="M49.8,30.4c0,1.8-1.5,3.3-3.3,3.3c-1.8,0-3.3-1.5-3.3-3.3c0,1.8-1.5,3.3-3.3,3.3s-3.3-1.5-3.3-3.3
		c0,1.8-1.5,3.3-3.3,3.3S30,32.2,30,30.4c0,1.8-1.5,3.3-3.3,3.3c-1.8,0-3.3-1.5-3.3-3.3c0,1.8-1.5,3.3-3.3,3.3s-3.3-1.5-3.3-3.3
		c0,1.8-1.5,3.3-3.3,3.3s-3.3-1.5-3.3-3.3c0,1.8-1.5,3.3-3.3,3.3c-0.4,0-0.8-0.1-1.1-0.2V57h4.4V41.6c0-1.2,1-2.2,2.2-2.2h8.8
		c1.2,0,2.2,1,2.2,2.2V57h30.8V33.5c-0.3,0.1-0.7,0.2-1.1,0.2C51.3,33.7,49.8,32.2,49.8,30.4L49.8,30.4z M32.2,39.4h15.4
		c1.2,0,2.2,1,2.2,2.2V46c0,1.2-1,2.2-2.2,2.2H32.2c-1.2,0-2.2-1-2.2-2.2v-4.4C30,40.4,31,39.4,32.2,39.4L32.2,39.4z"/>
	<path class="st22" d="M47.6,39.4H32.2c-1.2,0-2.2,1-2.2,2.2V46c0,1.2,1,2.2,2.2,2.2h15.4c1.2,0,2.2-1,2.2-2.2v-4.4
		C49.8,40.4,48.8,39.4,47.6,39.4L47.6,39.4z"/>
	<path class="st22" d="M23.4,57V41.6c0-1.2-1-2.2-2.2-2.2h-8.8c-1.2,0-2.2,1-2.2,2.2V57H23.4z"/>
	<path class="st5" d="M55.3,20v-8.7c0-3-2.5-5.5-5.5-5.5H33.5V2.9c0-0.6-0.5-1.1-1.1-1.1h-4.8c-0.6,0-1.1,0.5-1.1,1.1v2.9H10.2
		c-3,0-5.5,2.5-5.5,5.5V20c-1.3,0.8-2.2,2.2-2.2,3.8v6.6c0,1.6,0.9,3.1,2.2,3.8V57c0,0.6,0.5,1.1,1.1,1.1h48.4
		c0.6,0,1.1-0.5,1.1-1.1V34.2c1.3-0.8,2.2-2.2,2.2-3.8v-6.6C57.5,22.1,56.6,20.7,55.3,20L55.3,20z M27.6,8c0.6,0,1.1-0.5,1.1-1.1V4
		h2.6v2.9c0,0.6,0.5,1.1,1.1,1.1h2.9v2.6h-2.9c-0.6,0-1.1,0.5-1.1,1.1v2.9h-2.6v-2.9c0-0.6-0.5-1.1-1.1-1.1h-2.9V8L27.6,8L27.6,8z
		 M53.1,19.4H6.9v-2.5H13c0.6,0,1.1-0.5,1.1-1.1c0-0.6-0.5-1.1-1.1-1.1H6.9v-3.3C6.9,9.5,8.3,8,10.2,8h12.3v3.7
		c0,0.6,0.5,1.1,1.1,1.1h2.9v2.9c0,0.6,0.5,1.1,1.1,1.1h4.8c0.6,0,1.1-0.5,1.1-1.1v-2.9h2.9c0.6,0,1.1-0.5,1.1-1.1V8h12.3
		c1.8,0,3.3,1.5,3.3,3.3v3.3h-6.2c-0.6,0-1.1,0.5-1.1,1.1c0,0.6,0.5,1.1,1.1,1.1H53L53.1,19.4 M11.3,21.6h4.4v8.8
		c0,1.2-1,2.2-2.2,2.2s-2.2-1-2.2-2.2V21.6z M17.9,21.6h4.4v8.8c0,1.2-1,2.2-2.2,2.2s-2.2-1-2.2-2.2V21.6z M24.5,21.6h4.4v8.8
		c0,1.2-1,2.2-2.2,2.2c-1.2,0-2.2-1-2.2-2.2V21.6z M31.1,21.6h4.4v8.8c0,1.2-1,2.2-2.2,2.2s-2.2-1-2.2-2.2V21.6z M37.7,21.6h4.4v8.8
		c0,1.2-1,2.2-2.2,2.2s-2.2-1-2.2-2.2V21.6z M44.3,21.6h4.4v8.8c0,1.2-1,2.2-2.2,2.2c-1.2,0-2.2-1-2.2-2.2V21.6z M4.7,23.8
		c0-1.2,1-2.2,2.2-2.2h2.2v8.8c0,1.2-1,2.2-2.2,2.2s-2.2-1-2.2-2.2V23.8z M22.3,55.9h-11V41.6c0-0.6,0.5-1.1,1.1-1.1h8.8
		c0.6,0,1.1,0.5,1.1,1.1V55.9z M24.5,55.9V41.6c0-1.8-1.5-3.3-3.3-3.3h-8.8c-1.8,0-3.3,1.5-3.3,3.3v14.3H6.9V34.8
		c1.3,0,2.5-0.6,3.3-1.5c0.8,0.9,2,1.5,3.3,1.5c1.3,0,2.5-0.6,3.3-1.5c0.8,0.9,2,1.5,3.3,1.5s2.5-0.6,3.3-1.5c0.8,0.9,2,1.5,3.3,1.5
		c1.3,0,2.5-0.6,3.3-1.5c0.8,0.9,2,1.5,3.3,1.5c1.3,0,2.5-0.6,3.3-1.5c0.8,0.9,2,1.5,3.3,1.5s2.5-0.6,3.3-1.5c0.8,0.9,2,1.5,3.3,1.5
		c1.3,0,2.5-0.6,3.3-1.5c0.8,0.9,2,1.5,3.3,1.5v21.1H24.5z M55.3,30.4c0,1.2-1,2.2-2.2,2.2s-2.2-1-2.2-2.2v-8.8h2.2
		c1.2,0,2.2,1,2.2,2.2V30.4z"/>
	<path class="st5" d="M47.6,38.3H32.2c-1.8,0-3.3,1.5-3.3,3.3V46c0,1.8,1.5,3.3,3.3,3.3h15.4c1.8,0,3.3-1.5,3.3-3.3v-4.4
		C50.9,39.8,49.4,38.3,47.6,38.3L47.6,38.3z M48.7,46c0,0.6-0.5,1.1-1.1,1.1H32.2c-0.6,0-1.1-0.5-1.1-1.1v-4.4
		c0-0.6,0.5-1.1,1.1-1.1h15.4c0.6,0,1.1,0.5,1.1,1.1V46z"/>
	<path class="st5" d="M16.3,16.8L16.3,16.8c0.6,0,1.1-0.5,1.1-1.1c0-0.6-0.5-1.1-1.1-1.1h0c-0.6,0-1.1,0.5-1.1,1.1
		C15.2,16.3,15.7,16.8,16.3,16.8L16.3,16.8z"/>
	<path class="st5" d="M43.6,16.8L43.6,16.8c0.6,0,1.1-0.5,1.1-1.1c0-0.6-0.5-1.1-1.1-1.1h0c-0.6,0-1.1,0.5-1.1,1.1
		C42.5,16.3,43,16.8,43.6,16.8L43.6,16.8z"/>
</g>
</svg>
